<?xml version="1.0" encoding="utf-8"?>
<!-- Generator: Adobe Illustrator 24.1.1, SVG Export Plug-In . SVG Version: 6.00 Build 0)  -->
<svg version="1.1" id="Capa_1" xmlns="http://www.w3.org/2000/svg" xmlns:xlink="http://www.w3.org/1999/xlink" x="0px" y="0px"
	 viewBox="0 0 85 85" style="enable-background:new 0 0 85 85;" xml:space="preserve">
<style type="text/css">
	.st0{fill:#D10D0D;}
	.st1{fill:#FFFFFF;}
</style>
<path id="Rectángulo_34" class="st0" d="M10.5,2.5h64c4.4,0,8,3.6,8,8v64c0,4.4-3.6,8-8,8h-64c-4.4,0-8-3.6-8-8v-64
	C2.5,6.1,6.1,2.5,10.5,2.5z"/>
<g id="Grupo_96" transform="translate(-1208.13 545.332)">
	<path id="Trazado_101" class="st1" d="M1268.2-500.2L1268.2-500.2L1268.2-500.2L1268.2-500.2z"/>
	<path id="Trazado_102" class="st1" d="M1234.9-493.2L1234.9-493.2l-0.1-0.2v-21.2h1.6c0.9,0,1.8-0.4,2.4-1.1
		c0.6,0.7,1.5,1.1,2.4,1.1h3.2c0.9,0,1.8-0.4,2.4-1.1c0.6,0.7,1.5,1.1,2.4,1.1h3.2c0.9,0,1.8-0.4,2.4-1.1c0.6,0.7,1.5,1.1,2.4,1.1
		h3.2c0.9,0,1.8-0.4,2.4-1.1c0.6,0.7,1.5,1.1,2.4,1.1h1.6v21.2l-0.1,0.3l1.9-7.1l-0.2,0.9v-15.3c1.7,0,3.2-1.4,3.2-3.2l0,0v-2.4
		c0-0.7-0.4-1.4-0.9-1.9l-4-3c-1.2-0.9-2.7-1.4-4.3-1.4h-22.6c-1.5,0-3,0.5-4.3,1.4l-4,3c-0.6,0.5-0.9,1.2-0.9,1.9v2.4
		c0,1.7,1.4,3.2,3.2,3.2l0,0v15.3l-0.2-0.8l0,0L1234.9-493.2z M1245.9-517.8c0,0.9-0.7,1.6-1.6,1.6h-3.2c-0.9,0-1.6-0.7-1.6-1.6
		v-1.6h6.3V-517.8z M1253.8-517.8c0,0.9-0.7,1.6-1.6,1.6h-3.2c-0.9,0-1.6-0.7-1.6-1.6v-1.6h6.3L1253.8-517.8z M1261.7-517.8
		c0,0.9-0.7,1.6-1.6,1.6h-3.2c-0.9,0-1.6-0.7-1.6-1.6v-1.6h6.3V-517.8z M1269.6-517.8c0,0.9-0.7,1.6-1.6,1.6h-3.2
		c-0.9,0-1.6-0.7-1.6-1.6v-1.6h6.3V-517.8z M1236-523.8c1-0.7,2.1-1.1,3.3-1.1h22.6c1.2,0,2.4,0.4,3.3,1.1l3.8,2.8h-36.9L1236-523.8
		z M1231.7-517.8v-1.6h6.3v1.6c0,0.9-0.7,1.6-1.6,1.6h-3.2C1232.4-516.3,1231.7-517,1231.7-517.8
		C1231.7-517.8,1231.7-517.8,1231.7-517.8L1231.7-517.8z"/>
	<path id="Trazado_103" class="st1" d="M1268.9-502.6l-0.6,2.4l1.2-3.4C1269.2-503.4,1269-503,1268.9-502.6z"/>
	<path id="Trazado_104" class="st1" d="M1244.1-481.9c0,0.1-0.1,0.1-0.1,0.2C1244-481.8,1244-481.9,1244.1-481.9z"/>
	<path id="Trazado_105" class="st1" d="M1257.3-481.9L1257.3-481.9L1257.3-481.9z"/>
	<path id="Trazado_106" class="st1" d="M1257.2-482l0.1,0.1L1257.2-482z"/>
	<path id="Trazado_107" class="st1" d="M1257-482.2l0.2,0.2L1257-482.2z"/>
	<path id="Trazado_108" class="st1" d="M1257-482.2L1257-482.2L1257-482.2z"/>
	<path id="Trazado_109" class="st1" d="M1257.3-481.8L1257.3-481.8L1257.3-481.8z"/>
	<path id="Trazado_110" class="st1" d="M1257.3-481.9L1257.3-481.9L1257.3-481.9z"/>
	<path id="Trazado_111" class="st1" d="M1257.3-481.8"/>
	<path id="Trazado_112" class="st1" d="M1255.3-483.6L1255.3-483.6L1255.3-483.6L1255.3-483.6z"/>
	<path id="Trazado_113" class="st1" d="M1256.9-485.5c0-1.3,1.1-2.4,2.4-2.4h8.8l0.7,8c0,0.4,0.4,0.7,0.8,0.7h0.1
		c0.2,0,0.4-0.1,0.5-0.3c0.1-0.2,0.2-0.4,0.2-0.6l-0.8-8.5c0.3-0.3,0.6-0.7,0.7-1.2l3.2-11.9c0.2-0.6,0.1-1.3-0.3-1.8
		c-0.3-0.5-0.8-0.9-1.5-1.1c-0.8-0.2-1.7,0-2.3,0.7l-1.2,3.4v0l-1.9,7.1l-0.1,0.6h-7.7c-1.7,0-3.2,1.4-3.2,3.2v0
		c0,0.6,0.4,1.2,0.9,1.4c-0.6,0.7-0.9,1.6-0.9,2.5v1.9l0,0c0.6,0.3,1.2,0.8,1.6,1.3c0,0,0,0,0,0L1256.9-485.5z M1267.2-490.4
		l3.2-11.9c0.1-0.4,0.5-0.7,1-0.6c0.4,0.1,0.7,0.5,0.6,1l0,0l-3.2,11.9c-0.1,0.4-0.5,0.7-1,0.6
		C1267.4-489.5,1267.1-490,1267.2-490.4L1267.2-490.4z M1258.5-491h7.2l-0.1,0.2c-0.1,0.5-0.1,0.9,0.1,1.4h-8.8
		C1256.9-490.3,1257.7-491,1258.5-491L1258.5-491z"/>
	<path id="Trazado_114" class="st1" d="M1245.9-485.5c0-0.9-0.3-1.8-0.9-2.5c0.6-0.3,0.9-0.8,0.9-1.4c0-1.7-1.4-3.2-3.2-3.2l0,0
		h-7.7l-0.2-0.7l0,0l-1.9-7l0,0l-0.6-2.4c-0.3-1.3-1.6-2-2.9-1.7c0,0,0,0,0,0c-1.3,0.3-2,1.6-1.7,2.9l3.2,11.8
		c0.1,0.4,0.4,0.9,0.7,1.2l-0.8,8.5c0,0.2,0,0.4,0.2,0.6c0.1,0.2,0.3,0.3,0.5,0.3h0.1c0.4,0,0.8-0.3,0.8-0.7l0.7-8h8.8
		c1.3,0,2.4,1.1,2.4,2.4v3.2c-0.1,0.1-0.2,0.2-0.2,0.4c0.5-0.8,1.3-1.5,2.2-1.8c-0.1,0-0.3,0.1-0.4,0.1L1245.9-485.5z M1233.4-489.4
		c-0.4,0.1-0.9-0.2-1-0.6l-3.2-11.8c-0.1-0.3,0-0.6,0.2-0.8c0.2-0.2,0.5-0.3,0.8-0.2c0.3,0.1,0.5,0.3,0.5,0.6l3.2,11.8
		C1234.1-490,1233.9-489.5,1233.4-489.4C1233.4-489.4,1233.4-489.4,1233.4-489.4L1233.4-489.4z M1235.5-489.4
		c0.2-0.4,0.2-0.9,0.1-1.4l-0.1-0.2h7.2c0.9,0,1.6,0.7,1.6,1.6L1235.5-489.4z"/>
	<path id="Trazado_115" class="st1" d="M1244-481.7L1244-481.7L1244-481.7z"/>
	<path id="Trazado_116" class="st1" d="M1260.9-500.5h-20.5c-1.3,0-2.4,1.1-2.4,2.4v3.2c0,0.4,0.4,0.8,0.8,0.8l0,0
		c0.4,0,0.8-0.4,0.8-0.8c0,0,0,0,0,0v-0.8h8.7v5.5c0,4.7-0.9,6.1-1.1,6.4c-0.3,0-0.6,0.1-0.9,0.2c-0.9,0.3-1.7,0.9-2.2,1.8
		c0,0-0.1,0.1-0.1,0.2l0,0c-0.3,0.6-0.4,1.2-0.4,1.8c0,0.4,0.4,0.8,0.8,0.8l0,0h12.6c0.4,0,0.8-0.4,0.8-0.8c0,0,0,0,0,0
		c0-0.8-0.3-1.6-0.8-2.3c-0.4-0.6-1-1-1.6-1.3c-0.4-0.2-0.8-0.3-1.2-0.3c-0.3-0.3-1.1-1.7-1.1-6.4v-5.5h8.7v0.8
		c0,0.4,0.4,0.8,0.8,0.8l0,0c0.4,0,0.8-0.4,0.8-0.8c0,0,0,0,0,0v-3.2C1263.3-499.4,1262.2-500.5,1260.9-500.5
		C1260.9-500.5,1260.9-500.5,1260.9-500.5z M1253.8-482.3C1253.8-482.3,1253.8-482.3,1253.8-482.3L1253.8-482.3c1,0,1.9,0.6,2.2,1.6
		h-10.8c0.3-0.9,1.2-1.6,2.2-1.6L1253.8-482.3z M1252.3-483.9h-3.4c0.7-2,1-4.2,0.9-6.3v-5.5h1.6v5.5
		C1251.3-488,1251.6-485.9,1252.3-483.9L1252.3-483.9z M1261.7-497.3h-22.1v-0.8c0-0.4,0.4-0.8,0.8-0.8l0,0h20.5
		c0.4,0,0.8,0.4,0.8,0.8c0,0,0,0,0,0L1261.7-497.3z"/>
	<path id="Trazado_117" class="st1" d="M1253.3-505.4c-0.3-0.3-0.7-0.5-1.2-0.5h-0.2c0.4-0.7,0.8-1.4,1.4-2c1,0.7,2.3,0.6,3.2-0.3
		c0.9-0.9,1-2.2,0.3-3.2c-0.7-1-2-1.3-3.1-0.8c-1.1,0.5-1.6,1.8-1.3,2.9c-0.4,0.4-0.8,0.9-1.2,1.4c-0.1-0.7-0.4-1.4-0.7-2.1
		c0.1-0.2,0.1-0.5,0.1-0.8c0-1.3-1.1-2.4-2.4-2.4s-2.4,1.1-2.4,2.4c0,1.3,1.1,2.4,2.4,2.4c0.4,0,0.7-0.1,1.1-0.3
		c0.3,0.9,0.4,1.7,0.5,2.6h-0.6c-0.5,0-0.9,0.2-1.2,0.5c-0.3,0.3-0.4,0.8-0.4,1.3l0.5,3.7h1.6l-0.6-4h2.9l-0.6,4h1.6l0.5-3.7
		C1253.7-504.6,1253.6-505.1,1253.3-505.4z M1254.6-510.7c0.4,0,0.8,0.4,0.8,0.8c0,0,0,0,0,0c0,0.4-0.4,0.8-0.8,0.8l0,0
		c-0.4,0-0.8-0.4-0.8-0.8c0,0,0,0,0,0C1253.8-510.4,1254.1-510.7,1254.6-510.7L1254.6-510.7z M1248.3-509.9c-0.4,0-0.8-0.4-0.8-0.8
		c0,0,0,0,0,0c0-0.4,0.4-0.8,0.8-0.8l0,0c0.4,0,0.8,0.4,0.8,0.8c0,0,0,0,0,0C1249.1-510.3,1248.7-509.9,1248.3-509.9
		C1248.3-509.9,1248.3-509.9,1248.3-509.9L1248.3-509.9z"/>
</g>
</svg>
