<?xml version="1.0" encoding="utf-8"?>
<!-- Generator: Adobe Illustrator 24.1.2, SVG Export Plug-In . SVG Version: 6.00 Build 0)  -->
<svg version="1.1" id="Capa_1" xmlns="http://www.w3.org/2000/svg" xmlns:xlink="http://www.w3.org/1999/xlink" x="0px" y="0px"
	 viewBox="0 0 40 40" style="enable-background:new 0 0 40 40;" xml:space="preserve">
<style type="text/css">
	.st0{fill:#585858;}
</style>
<path id="Trazado_314" class="st0" d="M37.5,2.7c-0.2-0.1-0.5-0.1-0.8,0L22.6,11L2.5,23c-0.3,0.2-0.4,0.5-0.4,0.8s0.3,0.6,0.6,0.7
	L14,27.9l5,9.1l0,0l0,0c0.1,0.1,0.2,0.2,0.4,0.3c0.3,0.1,0.6,0,0.9-0.2l5.8-5.6l10.8,3.3c0.1,0,0.2,0,0.2,0c0.2,0,0.3-0.1,0.5-0.2
	c0.2-0.1,0.3-0.4,0.3-0.6V3.4C37.9,3.1,37.7,2.9,37.5,2.7z M4.8,23.4l18.3-10.8l0,0l10.3-6.1L14.3,26.3L4.8,23.4z M19.1,28.3
	C19,28.4,19,28.6,19,28.7v4.8l-3.4-6.2l15.1-15.7L19.1,28.3z M20.5,34.7v-4.9l3.8,1.2L20.5,34.7z M36.3,33L21,28.3L36.3,6.2V33z"/>
</svg>
