<?xml version="1.0" encoding="utf-8"?>
<!-- Generator: Adobe Illustrator 24.1.2, SVG Export Plug-In . SVG Version: 6.00 Build 0)  -->
<svg version="1.1" id="Capa_1" xmlns="http://www.w3.org/2000/svg" xmlns:xlink="http://www.w3.org/1999/xlink" x="0px" y="0px"
	 viewBox="0 0 40 40" style="enable-background:new 0 0 40 40;" xml:space="preserve">
<style type="text/css">
	.st0{fill:#585858;}
</style>
<g id="Grupo_205" transform="translate(-0.001)">
	<g id="Grupo_231">
		<g id="Grupo_230">
			<path id="Trazado_236" class="st0" d="M4.4,5.8c-3.2,3.3-3.2,8.5,0,11.8l19.4,19.7c0.1,0.1,0.3,0.2,0.5,0.2s0.3-0.1,0.5-0.2
				c0.3-0.3,0.3-0.7,0-0.9l0,0L5.4,16.7c-2.7-2.8-2.7-7.2,0-10l0.9-0.9c2.7-2.7,7-2.7,9.7-0.1l0.1,0.1l19.3,19.4
				c1.8,1.8,1.8,4.8,0,6.6l-0.6,0.6c-0.9,0.9-2.2,1.4-3.5,1.4c-1.2,0-2.3-0.5-3.2-1.3L10.8,15c-0.8-0.9-0.8-2.2,0-3.1l0.3-0.3
				c0.4-0.4,0.9-0.6,1.5-0.6s1.1,0.2,1.5,0.6l16,16.2c0.3,0.3,0.7,0.3,0.9,0c0.3-0.3,0.3-0.7,0-0.9l0,0L15,10.7
				c-0.7-0.7-1.5-1-2.5-1c-0.9,0-1.8,0.4-2.5,1L9.8,11c-1.3,1.4-1.3,3.6,0,5l17.3,17.6c1.1,1.1,2.6,1.7,4.1,1.7
				c1.7,0,3.2-0.7,4.4-1.8l0.6-0.6c2.3-2.4,2.3-6.1,0-8.5L17,4.9C13.8,1.7,8.7,1.6,5.4,4.8L5.3,4.9L4.4,5.8z"/>
		</g>
	</g>
	<g id="Grupo_233">
		<g id="Grupo_232">
			<path id="Trazado_237" class="st0" d="M24.3,37.7c-0.2,0-0.5-0.1-0.6-0.3L4.3,17.8C1,14.4,1,9,4.3,5.7l0.9-0.9
				C8.4,1.5,13.7,1.4,17,4.7l0.1,0.1l19.3,19.4c2.4,2.4,2.4,6.3,0,8.7l-0.6,0.6c-1.2,1.2-2.8,1.9-4.5,1.9c-1.6,0-3.1-0.6-4.2-1.7
				L9.7,16.1c-1.4-1.5-1.4-3.8,0-5.2l0.3-0.3c0.7-0.7,1.6-1.1,2.6-1.1l0,0c1,0,1.9,0.4,2.6,1.1l16,16.2c0.2,0.2,0.3,0.4,0.3,0.6
				s-0.1,0.4-0.3,0.6c-0.3,0.3-0.9,0.3-1.2,0L14,11.7c-0.4-0.4-0.9-0.6-1.4-0.6s-1,0.2-1.4,0.6l-0.3,0.4c-0.8,0.8-0.7,2,0,2.8
				l17.3,17.6c0.8,0.8,1.9,1.3,3,1.2c1.2,0,2.4-0.5,3.3-1.4l0.6-0.6c1.7-1.8,1.7-4.6,0-6.3L15.9,6c-2.5-2.6-6.7-2.7-9.4-0.2L6.4,5.9
				l-0.9,1c-2.6,2.7-2.6,7,0,9.7l19.4,19.7c0.3,0.3,0.3,0.9,0,1.2C24.8,37.6,24.5,37.7,24.3,37.7z M4.6,5.9c-3.1,3.2-3.1,8.3,0,11.5
				L24,37.2c0.2,0.2,0.5,0.2,0.7,0s0.2-0.5,0-0.7l0,0L5.3,16.8C2.5,14,2.5,9.5,5.2,6.6l0.9-0.9c1.3-1.4,3.1-2.1,5-2.1s3.7,0.8,5,2.1
				l19.3,19.4c1.9,1.9,1.9,5,0,6.9l-0.6,0.6c-1,1-2.2,1.5-3.6,1.5c-1.2,0-2.4-0.5-3.3-1.3L10.6,15.2c-0.9-0.9-0.9-2.4,0-3.4l0.3-0.3
				c0.4-0.4,1-0.7,1.6-0.7s1.2,0.3,1.7,0.7l16,16.2c0.2,0.2,0.5,0.2,0.6,0l0,0c0.1-0.1,0.1-0.2,0.1-0.3c0-0.1,0-0.2-0.1-0.3
				l-16-16.2c-0.6-0.6-1.4-1-2.3-1l0,0c-0.9,0-1.7,0.3-2.3,1L10,11.1c-1.3,1.3-1.3,3.4,0,4.7l17.3,17.6c1.1,1.1,2.5,1.6,4,1.6
				c1.6,0,3.1-0.6,4.3-1.8l0.6-0.6c2.2-2.3,2.2-5.9,0-8.2L16.8,5.1C13.7,1.9,8.7,1.9,5.6,4.9L5.5,5L4.6,5.9z"/>
		</g>
	</g>
</g>
</svg>
