<?xml version="1.0" encoding="utf-8"?>
<!-- Generator: Adobe Illustrator 24.1.2, SVG Export Plug-In . SVG Version: 6.00 Build 0)  -->
<svg version="1.1" id="Capa_1" xmlns="http://www.w3.org/2000/svg" xmlns:xlink="http://www.w3.org/1999/xlink" x="0px" y="0px"
	 viewBox="0 0 40 40" style="enable-background:new 0 0 40 40;" xml:space="preserve">
<style type="text/css">
	.st0{fill:#FA9100;}
</style>
<path id="Trazado_331" class="st0" d="M34.9,5.1c-2.1-2.1-5.5-2.1-7.6,0L5.8,26.6c0,0,0,0,0,0l0,0c0,0-0.1,0.1-0.1,0.1c0,0,0,0,0,0
	l0,0l-2.1,8.9c0,0,0,0.1,0,0.1c0,0,0,0,0,0c0,0.1,0,0.1,0,0.2l0,0c0,0.1,0.1,0.1,0.1,0.2c0.1,0.1,0.1,0.1,0.2,0.1c0.1,0,0.1,0,0.2,0
	c0,0,0.1,0,0.1,0l8.9-2.1c0,0,0,0,0,0c0,0,0,0,0.1,0c0,0,0.1,0,0.1-0.1c0,0,0,0,0,0c0,0,0,0,0,0l21.6-21.6C37,10.6,37,7.2,34.9,5.1
	L34.9,5.1z M34.1,5.9c1.5,1.5,1.6,3.8,0.4,5.5l-5.9-5.9C30.3,4.3,32.6,4.4,34.1,5.9L34.1,5.9z M31.1,14.8l-5.9-5.9L26.1,8l5.9,5.9
	L31.1,14.8z M6.5,33.5c-0.2-0.2-0.6-0.2-0.8,0L5.2,34l1.5-6.4l2.6-0.3L9,30.4c0,0,0,0,0,0.1c0,0,0,0,0,0.1c0,0,0,0,0,0.1
	c0,0,0,0.1,0,0.1c0,0,0,0.1,0.1,0.1c0,0,0,0.1,0.1,0.1c0,0,0.1,0.1,0.1,0.1c0,0,0.1,0,0.1,0c0,0,0.1,0,0.1,0c0,0,0,0,0.1,0
	c0,0,0,0,0.1,0l0,0c0,0,0,0,0.1,0l3.1-0.3l-0.3,2.6L6,34.8l0.5-0.5C6.7,34.2,6.7,33.8,6.5,33.5L6.5,33.5z M14,30.3l13.4-13.4
	c0.2-0.2,0.2-0.6,0-0.8c-0.2-0.2-0.6-0.2-0.8,0c0,0,0,0,0,0L13.1,29.4l-2.9,0.3l0.3-2.9l13.4-13.4c0.2-0.2,0.2-0.6,0-0.8
	c-0.2-0.2-0.6-0.2-0.8,0L9.7,26l-1.9,0.2L24.4,9.7l5.9,5.9L13.7,32.2L14,30.3z M32.8,13.1l-5.9-5.9l0.8-0.8l5.9,5.9L32.8,13.1z"/>
</svg>
