<?xml version="1.0" encoding="utf-8"?>
<!-- Generator: Adobe Illustrator 24.1.2, SVG Export Plug-In . SVG Version: 6.00 Build 0)  -->
<svg version="1.1" id="Capa_1" xmlns="http://www.w3.org/2000/svg" xmlns:xlink="http://www.w3.org/1999/xlink" x="0px" y="0px"
	 viewBox="0 0 40 40" style="enable-background:new 0 0 40 40;" xml:space="preserve">
<style type="text/css">
	.st0{fill:#D01317;}
</style>
<g>
	<path class="st0" d="M31,12.2c-0.4-0.4-1-0.4-1.4,0L16.1,25.6L10.5,20c0,0,0,0,0,0c-0.4-0.4-1-0.4-1.4,0c0,0,0,0,0,0
		c-0.4,0.4-0.4,1,0,1.4l6.4,6.4c0.2,0.2,0.4,0.3,0.7,0.3c0.3,0,0.5-0.1,0.7-0.3L31,13.7c0,0,0,0,0,0C31.4,13.3,31.3,12.6,31,12.2
		C31,12.2,31,12.2,31,12.2z"/>
	<path class="st0" d="M20,1C9.5,1,1,9.5,1,20c0,10.5,8.5,19,19,19c10.5,0,19-8.5,19-19C39,9.5,30.5,1,20,1z M20,36.7
		c-9.2,0-16.7-7.5-16.7-16.7c0-9.2,7.5-16.7,16.7-16.7v0c9.2,0,16.7,7.5,16.7,16.7C36.7,29.2,29.2,36.7,20,36.7z"/>
</g>
</svg>
