<?xml version="1.0" encoding="utf-8"?>
<!-- Generator: Adobe Illustrator 24.1.2, SVG Export Plug-In . SVG Version: 6.00 Build 0)  -->
<svg version="1.1" id="Capa_1" xmlns="http://www.w3.org/2000/svg" xmlns:xlink="http://www.w3.org/1999/xlink" x="0px" y="0px"
	 viewBox="0 0 40 40" style="enable-background:new 0 0 40 40;" xml:space="preserve">
<style type="text/css">
	.st0{fill:#585858;}
</style>
<g>
	<path class="st0" d="M36.9,1H3.1C1.9,1,1,1.9,1,3.1v33.8C1,38.1,1.9,39,3.1,39h18.2V24.3h-5v-5.7h5v-4.2c0-4.9,3-7.6,7.4-7.6
		c2.1,0,3.9,0.2,4.4,0.2v5.1l-3,0c-2.4,0-2.8,1.1-2.8,2.8v3.7h5.7l-0.7,5.7h-4.9V39h9.7c1.2,0,2.1-0.9,2.1-2.1V3.1
		C39,1.9,38.1,1,36.9,1L36.9,1z M36.9,1"/>
</g>
</svg>
