<?xml version="1.0" encoding="utf-8"?>
<!-- Generator: Adobe Illustrator 24.1.2, SVG Export Plug-In . SVG Version: 6.00 Build 0)  -->
<svg version="1.1" id="Capa_1" xmlns="http://www.w3.org/2000/svg" xmlns:xlink="http://www.w3.org/1999/xlink" x="0px" y="0px"
	 viewBox="0 0 40 40" style="enable-background:new 0 0 40 40;" xml:space="preserve">
<style type="text/css">
	.st0{fill:#585858;}
</style>
<g>
	<path class="st0" d="M20,39.3C9.4,39.3,0.8,30.6,0.8,20S9.4,0.8,20,0.8S39.3,9.4,39.3,20S30.6,39.3,20,39.3z M20,2.4
		C10.3,2.4,2.4,10.3,2.4,20S10.3,37.6,20,37.6S37.6,29.7,37.6,20S29.7,2.4,20,2.4z"/>
</g>
<g>
	<path class="st0" d="M18.1,24.4L18,23.6c-0.2-1.6,0.4-3.4,1.9-5.2c1.3-1.6,2.1-2.8,2.1-4.1c0-1.5-1-2.5-2.8-2.6
		c-1.1,0-2.3,0.4-3,0.9l-0.7-1.9c1-0.7,2.7-1.2,4.3-1.2c3.4,0,5,2.1,5,4.4c0,2-1.1,3.5-2.6,5.2c-1.3,1.6-1.8,2.9-1.7,4.4l0.1,0.7
		H18.1z M17.4,28.6c0-1.1,0.7-1.9,1.8-1.9c1.1,0,1.8,0.8,1.8,1.9c0,1-0.7,1.9-1.8,1.9C18.1,30.4,17.4,29.6,17.4,28.6z"/>
</g>
</svg>
