<?xml version="1.0" encoding="utf-8"?>
<!-- Generator: Adobe Illustrator 24.1.2, SVG Export Plug-In . SVG Version: 6.00 Build 0)  -->
<svg version="1.1" id="Capa_1" xmlns="http://www.w3.org/2000/svg" xmlns:xlink="http://www.w3.org/1999/xlink" x="0px" y="0px"
	 viewBox="0 0 40 40" style="enable-background:new 0 0 40 40;" xml:space="preserve">
<style type="text/css">
	.st0{fill:#585858;}
</style>
<path id="Trazado_313" class="st0" d="M31.7,5.9h-5c-0.1-1.5-0.4-3.6-0.7-3.6H14c-0.3,0-0.5,2.1-0.7,3.6h-5C6,5.9,4.2,7.8,4.2,10
	v23.4c0,2.3,1.9,4.1,4.1,4.1h23.4c2.3,0,4.1-1.9,4.1-4.1V10.1C35.8,7.8,34,5.9,31.7,5.9z M20,28.7c-3.8,0-6.9-3.1-6.9-6.9
	s3.1-6.9,6.9-6.9s6.9,3.1,6.9,6.9l0,0C26.9,25.6,23.8,28.7,20,28.7z"/>
</svg>
