<?xml version="1.0" encoding="utf-8"?>
<!-- Generator: Adobe Illustrator 24.1.2, SVG Export Plug-In . SVG Version: 6.00 Build 0)  -->
<svg version="1.1" id="Capa_1" xmlns="http://www.w3.org/2000/svg" xmlns:xlink="http://www.w3.org/1999/xlink" x="0px" y="0px"
	 viewBox="0 0 40 40" style="enable-background:new 0 0 40 40;" xml:space="preserve">
<style type="text/css">
	.st0{fill-rule:evenodd;clip-rule:evenodd;fill:#585858;}
	.st1{fill:#585858;}
</style>
<g id="Grupo_162" transform="translate(-98.119 424.648)">
	<g id="Capa_1_1_" transform="translate(100.396 -422.49)">
		<path id="Trazado_237" class="st0" d="M8.6,19.5H16v7.8c0,0.9,0.8,1.7,1.7,1.7s1.7-0.8,1.7-1.7v-7.8h7.5c0.9,0,1.7-0.8,1.7-1.7
			c0-0.9-0.8-1.7-1.7-1.7h-7.5V8.3c0-0.9-0.8-1.7-1.7-1.7S16,7.4,16,8.3v7.8H8.6c-0.9,0-1.7,0.8-1.7,1.7C6.9,18.8,7.6,19.5,8.6,19.5
			z"/>
	</g>
	<g id="Capa_2_2_" transform="translate(98.119 -424.648)">
		<g id="Grupo_161_1_" transform="translate(0 0)">
			<path id="Trazado_238_1_" class="st1" d="M20,38c-9.9,0-18-8-18-18c0-9.9,8-18,18-18c9.9,0,18,8,18,18C38,29.9,29.9,38,20,38z
				 M20,3.6C10.9,3.6,3.6,10.9,3.6,20c0,9.1,7.4,16.4,16.4,16.4c9.1,0,16.4-7.4,16.4-16.4C36.4,10.9,29.1,3.6,20,3.6L20,3.6z"/>
		</g>
	</g>
</g>
</svg>
