<?xml version="1.0" encoding="utf-8"?>
<!-- Generator: Adobe Illustrator 24.1.2, SVG Export Plug-In . SVG Version: 6.00 Build 0)  -->
<svg version="1.1" id="Capa_1" xmlns="http://www.w3.org/2000/svg" xmlns:xlink="http://www.w3.org/1999/xlink" x="0px" y="0px"
	 viewBox="0 0 85 85" style="enable-background:new 0 0 85 85;" xml:space="preserve">
<style type="text/css">
	.st0{fill:#FA9100;}
	.st1{fill:#FFFFFF;}
</style>
<g>
	<path id="Rectángulo_34" class="st0" d="M10.5,2.5h64c4.4,0,8,3.6,8,8v64c0,4.4-3.6,8-8,8h-64c-4.4,0-8-3.6-8-8v-64
		C2.5,6.1,6.1,2.5,10.5,2.5z"/>
	<g id="Grupo_254" transform="translate(3387.314 611.426)">
		<path id="Trazado_330" class="st1" d="M-3322.2-547h-1.8v-2.3h1.8c0.7,0,1.2-0.6,1.2-1.2c0-6.9-5.2-12.6-12.1-13.3v-2.2
			c0-0.7-0.6-1.2-1.2-1.2c-0.7,0-1.2,0.6-1.2,1.2v2.2c-6.9,0.6-12.1,6.4-12.1,13.3c0,0.7,0.6,1.2,1.2,1.2h1.8v2.3h-1.8
			c-0.7,0-1.2,0.6-1.2,1.2c0,0.7,0.6,1.2,1.2,1.2h24.2c0.7,0,1.2-0.6,1.2-1.2S-3321.5-547-3322.2-547L-3322.2-547z M-3326.5-547
			h-15.7v-2.3h15.7V-547z M-3345.1-551.8c0.6-5.5,5.3-9.6,10.8-9.6c5.5,0,10.1,4.1,10.8,9.6H-3345.1z M-3354-583.3
			c-3.7,0-6.5,2.1-6.5,4.8s2.9,4.8,6.5,4.8s6.5-2.1,6.5-4.8S-3350.3-583.3-3354-583.3z M-3354-576.3c-2.4,0-4-1.2-4-2.3
			s1.7-2.3,4-2.3s4,1.2,4,2.3S-3351.6-576.3-3354-576.3z M-3351-547h-15.3v-39.9h24.7v20.7c0,0.7,0.6,1.2,1.2,1.2
			c0.7,0,1.2-0.6,1.2-1.2v-21.9c0-0.7-0.6-1.2-1.2-1.2h-0.6v-4.8c0-0.4-0.2-0.7-0.4-0.9c-0.3-0.2-0.6-0.3-1-0.3l-25.4,3
			c-0.6,0.1-1.1,0.6-1.1,1.2v45.4c0,0.7,0.6,1.2,1.2,1.2h16.5c0.7,0,1.2-0.6,1.2-1.2S-3350.4-547-3351-547L-3351-547z
			 M-3366.3-590.1l22.9-2.7v3.4h-22.9V-590.1z M-3356.1-550.6c-0.7,0-1.2-0.6-1.2-1.2s0.6-1.2,1.2-1.2h4.2c0.7,0,1.2,0.6,1.2,1.2
			s-0.6,1.2-1.2,1.2H-3356.1z"/>
	</g>
</g>
</svg>
