<?xml version="1.0" encoding="utf-8"?>
<!-- Generator: Adobe Illustrator 24.1.2, SVG Export Plug-In . SVG Version: 6.00 Build 0)  -->
<svg version="1.1" id="Capa_1" xmlns="http://www.w3.org/2000/svg" xmlns:xlink="http://www.w3.org/1999/xlink" x="0px" y="0px"
	 viewBox="0 0 40 40" style="enable-background:new 0 0 40 40;" xml:space="preserve">
<style type="text/css">
	.st0{fill:#D01317;}
</style>
<g id="Grupo_114" transform="translate(-371.91 -493.775)">
	<path id="Trazado_137" class="st0" d="M407.2,501.8h-13.5v-1.7c0-0.8-0.6-1.4-1.4-1.4h-13.2c-0.8,0-1.4,0.6-1.4,1.4v1.7h-1
		c-1.6,0-2.8,1.3-2.8,2.8V526c0,1.6,1.3,2.8,2.8,2.8h30.5c1.6,0,2.8-1.3,2.8-2.8v-21.4C410,503.1,408.7,501.8,407.2,501.8
		L407.2,501.8z M378.6,500.1c0-0.3,0.2-0.5,0.5-0.5l0,0h13.2c0.3,0,0.5,0.2,0.5,0.5l0,0v1.7h-14.1V500.1z M376.7,502.7h30.5
		c1.1,0,1.9,0.9,1.9,1.9v2.5h-34.3v-2.5C374.7,503.6,375.6,502.7,376.7,502.7L376.7,502.7z M407.2,527.9h-30.5
		c-1.1,0-1.9-0.9-1.9-1.9v-18h34.3v18C409.1,527,408.2,527.9,407.2,527.9L407.2,527.9z"/>
	<path id="Trazado_138" class="st0" d="M402.7,506.5h2.5c0.4,0,0.6-0.3,0.6-0.6v-1.7c0-0.4-0.3-0.6-0.6-0.6h-2.5
		c-0.4,0-0.6,0.3-0.6,0.6v1.7C402.1,506.2,402.4,506.5,402.7,506.5z M403,504.4h2v1.2h-2V504.4z"/>
	<path id="Trazado_139" class="st0" d="M391.9,509.6c-4.6,0-8.3,3.7-8.3,8.3s3.7,8.3,8.3,8.3c4.6,0,8.3-3.7,8.3-8.3
		C400.2,513.3,396.5,509.6,391.9,509.6z M391.9,525.2c-4.1,0-7.4-3.3-7.4-7.4c0-4.1,3.3-7.4,7.4-7.4s7.4,3.3,7.4,7.4c0,0,0,0,0,0
		C399.3,521.9,396,525.2,391.9,525.2z"/>
	<path id="Trazado_140" class="st0" d="M391.9,512.3c-3.1,0-5.6,2.5-5.6,5.6c0,3.1,2.5,5.6,5.6,5.6c3.1,0,5.6-2.5,5.6-5.6l0,0
		C397.5,514.8,395,512.3,391.9,512.3z M391.9,522.5c-2.6,0-4.7-2.1-4.7-4.7c0-2.6,2.1-4.7,4.7-4.7c2.6,0,4.7,2.1,4.7,4.7l0,0
		C396.6,520.4,394.5,522.5,391.9,522.5z"/>
	<path id="Trazado_141" class="st0" d="M378.1,506.5c0.8,0,1.5-0.7,1.5-1.5c0-0.8-0.7-1.5-1.5-1.5c-0.8,0-1.5,0.7-1.5,1.5l0,0
		C376.7,505.8,377.3,506.5,378.1,506.5z M378.1,504.4c0.3,0,0.6,0.2,0.6,0.6c0,0.3-0.2,0.6-0.6,0.6c-0.3,0-0.6-0.2-0.6-0.6
		C377.6,504.7,377.8,504.4,378.1,504.4L378.1,504.4z"/>
</g>
</svg>
