<?xml version="1.0" encoding="utf-8"?>
<!-- Generator: Adobe Illustrator 24.1.1, SVG Export Plug-In . SVG Version: 6.00 Build 0)  -->
<svg version="1.1" id="Capa_1" xmlns="http://www.w3.org/2000/svg" xmlns:xlink="http://www.w3.org/1999/xlink" x="0px" y="0px"
	 viewBox="0 0 100 125" style="enable-background:new 0 0 100 125;" xml:space="preserve">
<style type="text/css">
	.st0{fill:#09C932;}
	.st1{fill:#FFFFFF;}
</style>
<g id="Grupo_42" transform="translate(1133 -1601)">
	<path id="Trazado_41" class="st0" d="M-1044.4,1608.1l-71.2-4.5c-6.5-0.4-12.2,4.5-12.6,11.1c0,0,0,0,0,0l-4.5,71.2
		c-0.4,6.5,4.5,12.2,11.1,12.6l25.5,1.6c5.1,8.1,15.6,21.9,29.9,23.5c0,0-5.8-13.1-6.7-22l22.6,1.4c6.5,0.4,12.2-4.5,12.6-11.1
		c0,0,0,0,0,0l4.5-71.2C-1032.9,1614.1-1037.8,1608.5-1044.4,1608.1z"/>
	<g id="Grupo_30" transform="translate(-1117.9 1631.779)">
		<path id="Trazado_44" class="st1" d="M71.4,27.8c0-2.5-0.7-4.9-2.1-7c-0.1-0.2-0.2-0.3-0.3-0.4c-2.2-3.1-5.8-5-9.7-5h-1.5
			L47.5,5.5c-2.1-2-4.8-3.1-7.7-3.2H6.1c-3.3,0.1-6,2.8-5.9,6.1v18.1c0,0.2,0,0.3,0,0.5c0,0,0,0.1,0,0.1c0,0.2,0,0.3,0.1,0.5
			c0.5,3.1,3.1,5.4,6.3,5.4h0c0.9,4.1,5,6.7,9.1,5.7c2.8-0.7,5.1-2.9,5.7-5.7h30.9c0.9,4.1,5,6.7,9.1,5.7c2.9-0.7,5.1-2.9,5.7-5.8
			C69.7,32.5,71.4,30.3,71.4,27.8L71.4,27.8z M14,36.6c-3.1,0.1-5.6-2.3-5.7-5.4s2.3-5.6,5.4-5.7c3.1-0.1,5.6,2.3,5.7,5.4
			c0,0.1,0,0.1,0,0.2C19.4,34.1,17,36.6,14,36.6z M59.8,36.6c-3.1,0.1-5.6-2.3-5.7-5.4c-0.1-3.1,2.3-5.6,5.4-5.7
			c3.1-0.1,5.6,2.3,5.7,5.4c0,0.1,0,0.1,0,0.2C65.2,34.1,62.8,36.6,59.8,36.6z M67.4,30.5c-0.2-4.2-3.8-7.5-8-7.3
			c-4.1,0.2-7.3,3.5-7.3,7.6H21.7c0-4.2-3.5-7.6-7.7-7.6c-4.2,0-7.5,3.4-7.6,7.6c-1.5-0.1-2.8-1-3.4-2.3h1c0.7,0,1.2-0.6,1.1-1.2
			C5,26.5,4.5,26,3.9,26H2.5V8.4c0-2,1.6-3.7,3.6-3.7h33.7c2.3,0,4.5,0.9,6.2,2.5l10.5,10.2c0.2,0.2,0.5,0.3,0.8,0.3h2
			c2.3,0,4.6,0.8,6.3,2.4c-0.6,0.1-1.1,0.6-1.1,1.3c0,0.6,0.5,1.1,1.1,1.1h1.9c1,1.6,1.5,3.5,1.5,5.4C69.1,29,68.5,30,67.4,30.5
			L67.4,30.5z"/>
		<path id="Trazado_45" class="st1" d="M50,22.4H22.8c-0.7,0-1.2,0.5-1.2,1.2c0,0.7,0.5,1.2,1.2,1.2H50c0.7,0,1.2-0.5,1.2-1.2
			C51.1,23,50.6,22.4,50,22.4z"/>
		<path id="Trazado_46" class="st1" d="M33.3,17.7V7.1c0-0.7-0.5-1.2-1.2-1.2h-26c-0.7,0-1.2,0.5-1.2,1.2v10.6
			c0,0.7,0.5,1.2,1.2,1.2c0,0,0,0,0,0h26C32.8,18.9,33.3,18.4,33.3,17.7L33.3,17.7L33.3,17.7z M31,16.5H7.3V8.3H31V16.5z"/>
		<path id="Trazado_47" class="st1" d="M44.6,8.2c-1.6-1.5-3.6-2.3-5.7-2.3h-3.4c-0.7,0-1.2,0.5-1.2,1.2v10.6c0,0.7,0.5,1.2,1.2,1.2
			c0,0,0,0,0,0h17.6c0.7,0,1.2-0.5,1.2-1.2c0-0.3-0.1-0.6-0.4-0.9L44.6,8.2z M36.6,16.5V8.3h2.3c1.5,0,3,0.6,4.1,1.6l7.1,6.6
			L36.6,16.5z"/>
		<path id="Trazado_48" class="st1" d="M14.4,27c-2.2,0-4,1.8-4,4c0,2.2,1.8,4,4,4c2.2,0,4-1.8,4-4C18.5,28.8,16.7,27,14.4,27z
			 M14.4,32.8c-0.9,0-1.7-0.8-1.7-1.7c0-0.9,0.8-1.7,1.7-1.7c0.9,0,1.7,0.7,1.7,1.7C16.1,32,15.4,32.7,14.4,32.8z"/>
		<path id="Trazado_49" class="st1" d="M59.4,27c-2.2,0-4,1.8-4,4s1.8,4,4,4c2.2,0,4-1.8,4-4v0C63.5,28.8,61.7,27,59.4,27z
			 M59.4,32.8c-0.9,0-1.7-0.7-1.7-1.7s0.7-1.7,1.7-1.7c0.9,0,1.7,0.7,1.7,1.7C61.1,32,60.3,32.7,59.4,32.8z"/>
	</g>
</g>
</svg>
