<?xml version="1.0" encoding="utf-8"?>
<!-- Generator: Adobe Illustrator 24.1.2, SVG Export Plug-In . SVG Version: 6.00 Build 0)  -->
<svg version="1.1" id="Capa_1" xmlns="http://www.w3.org/2000/svg" xmlns:xlink="http://www.w3.org/1999/xlink" x="0px" y="0px"
	 viewBox="0 0 40 40" style="enable-background:new 0 0 40 40;" xml:space="preserve">
<style type="text/css">
	.st0{fill:#585858;}
	.st1{fill:#FFFFFF;}
</style>
<g id="Capa_2_1_">
	<g id="Grupo_161" transform="translate(0 0)">
		<g id="Trazado_238">
			<path class="st0" d="M20,38c-9.9,0-18-8-18-18c0-9.9,8-18,18-18c9.9,0,18,8,18,18C38,29.9,29.9,38,20,38z M20,3.6
				C10.9,3.6,3.6,10.9,3.6,20c0,9.1,7.4,16.4,16.4,16.4c9.1,0,16.4-7.4,16.4-16.4C36.4,10.9,29.1,3.6,20,3.6L20,3.6z"/>
		</g>
	</g>
</g>
<g id="Rectángulo_64" transform="translate(2 5.33)">
	<g>
		<path class="st1" d="M8.6,13.1h18.7c0.9,0,1.6,0.7,1.6,1.6l0,0c0,0.9-0.7,1.6-1.6,1.6H8.6c-0.9,0-1.6-0.7-1.6-1.6l0,0
			C7.1,13.8,7.8,13.1,8.6,13.1z"/>
	</g>
	<g>
		<rect x="8.6" y="13.1" class="st0" width="18.7" height="3.1"/>
	</g>
</g>
</svg>
