<?xml version="1.0" encoding="utf-8"?>
<!-- Generator: Adobe Illustrator 24.1.2, SVG Export Plug-In . SVG Version: 6.00 Build 0)  -->
<svg version="1.1" id="Capa_1" xmlns="http://www.w3.org/2000/svg" xmlns:xlink="http://www.w3.org/1999/xlink" x="0px" y="0px"
	 viewBox="0 0 40 40" style="enable-background:new 0 0 40 40;" xml:space="preserve">
<style type="text/css">
	.st0{fill:#BDBDBD;}
</style>
<g id="Grupo_184" transform="translate(-163.192 818.015)">
	<g id="Grupo_182" transform="translate(163.192 -818.015)">
		<path id="Trazado_278" class="st0" d="M20,37.2c-9.6,0-17.4-7.8-17.5-17.5c0-9.6,7.8-17.4,17.5-17.5c9.6,0,17.4,7.8,17.5,17.5
			C37.4,29.4,29.6,37.2,20,37.2z M20,3.8c-8.8,0-15.9,7.1-15.9,15.9c0,8.8,7.1,15.9,15.9,15.9c8.8,0,15.9-7.1,15.9-15.9
			C35.9,10.9,28.8,3.8,20,3.8L20,3.8z"/>
	</g>
	<g id="Grupo_183" transform="translate(169.367 -814.311)">
		<path id="Trazado_279" class="st0" d="M12.1,20l-0.1-0.7c-0.1-1.7,0.5-3.4,1.7-4.7c1.1-1,1.7-2.3,1.9-3.7c0-1.4-0.9-2.3-2.6-2.3
			c-1,0-1.9,0.3-2.7,0.8L9.7,7.7c1.2-0.7,2.5-1.1,3.9-1.1c2.2-0.3,4.2,1.3,4.5,3.5c0,0.2,0,0.4,0,0.5c-0.2,1.8-1,3.5-2.3,4.7
			c-1,1.1-1.6,2.5-1.5,4l0.1,0.7L12.1,20z M11.6,23.8c-0.1-0.9,0.6-1.6,1.5-1.7c0,0,0.1,0,0.1,0c0.9,0,1.6,0.7,1.6,1.5
			c0,0.1,0,0.1,0,0.2c0.1,0.9-0.6,1.6-1.5,1.7c0,0-0.1,0-0.1,0C12.3,25.5,11.6,24.8,11.6,23.8C11.6,23.9,11.6,23.8,11.6,23.8
			L11.6,23.8z"/>
	</g>
</g>
</svg>
