<?xml version="1.0" encoding="utf-8"?>
<!-- Generator: Adobe Illustrator 24.1.2, SVG Export Plug-In . SVG Version: 6.00 Build 0)  -->
<svg version="1.1" id="Capa_1" xmlns="http://www.w3.org/2000/svg" xmlns:xlink="http://www.w3.org/1999/xlink" x="0px" y="0px"
	 viewBox="0 0 85 85" style="enable-background:new 0 0 85 85;" xml:space="preserve">
<style type="text/css">
	.st0{fill:#FA9100;}
	.st1{fill:#FFFFFF;}
</style>
<g>
	<path id="Rectángulo_35" class="st0" d="M10.5,2.5h64c4.4,0,8,3.6,8,8v64c0,4.4-3.6,8-8,8h-64c-4.4,0-8-3.6-8-8v-64
		C2.5,6.1,6.1,2.5,10.5,2.5z"/>
	<g id="Grupo_30" transform="translate(11 24.855)">
		<path id="Trazado_44" class="st1" d="M60.7,23.4c0-2-0.6-4-1.7-5.7c-0.1-0.1-0.1-0.3-0.3-0.4c-1.8-2.6-4.8-4.1-7.9-4.1h-1.3
			l-8.3-8.1c-1.7-1.7-4-2.6-6.3-2.6H7.3c-2.7,0-4.9,2.3-4.8,5v14.8c0,0.1,0,0.3,0,0.4c0,0.2,0,0.3,0.1,0.5c0.4,2.5,2.6,4.4,5.1,4.5
			h0c0.8,3.4,4.1,5.5,7.5,4.7c2.3-0.5,4.1-2.4,4.7-4.7h25.3c0.8,3.4,4.1,5.4,7.5,4.7c2.4-0.5,4.2-2.4,4.7-4.8
			C59.3,27.2,60.7,25.4,60.7,23.4L60.7,23.4z M13.8,30.6c-2.5,0.1-4.6-1.9-4.7-4.4c-0.1-2.5,1.9-4.6,4.4-4.7
			c2.5-0.1,4.6,1.9,4.7,4.4c0,0,0,0.1,0,0.1C18.2,28.5,16.3,30.5,13.8,30.6z M51.2,30.6c-2.5,0.1-4.6-1.9-4.7-4.4s1.9-4.6,4.4-4.7
			s4.6,1.9,4.7,4.4c0,0,0,0.1,0,0.1C55.7,28.5,53.7,30.5,51.2,30.6z M57.5,25.5c-0.2-3.5-3.1-6.1-6.6-6c-3.3,0.2-5.9,2.9-6,6.2H20.1
			c-0.1-3.5-2.9-6.2-6.4-6.2c-3.4,0.1-6.1,2.8-6.2,6.1c-1.2-0.1-2.3-0.8-2.8-1.9h0.8c0.5,0,1-0.4,1-1c0-0.5-0.4-1-1-1H4.4V7.5
			c0-1.7,1.3-3,3-3h27.6c1.9,0,3.7,0.7,5,2.1l8.6,8.3c0.2,0.2,0.4,0.3,0.6,0.3h1.6c1.9,0,3.7,0.7,5.2,1.9c-0.5,0-0.9,0.5-0.9,1
			c0,0.5,0.4,0.9,0.9,0.9h1.6c0.8,1.3,1.3,2.9,1.2,4.4C58.8,24.3,58.3,25.1,57.5,25.5L57.5,25.5z"/>
		<path id="Trazado_45" class="st1" d="M43.2,18.9H20.9c-0.5,0-1,0.4-1,1s0.4,1,1,1c0,0,0,0,0,0h22.2c0.5,0,1-0.4,1-1
			S43.7,18.9,43.2,18.9C43.2,18.9,43.2,18.9,43.2,18.9L43.2,18.9z"/>
		<path id="Trazado_46" class="st1" d="M29.6,15.1V6.4c0-0.5-0.4-1-1-1c0,0,0,0,0,0H7.3c-0.5,0-1,0.4-1,1c0,0,0,0,0,0v8.7
			c0,0.5,0.4,1,1,1c0,0,0,0,0,0h21.3C29.2,16,29.6,15.6,29.6,15.1L29.6,15.1z M27.6,14.1H8.3V7.4h19.3L27.6,14.1z"/>
		<path id="Trazado_47" class="st1" d="M38.8,7.3c-1.3-1.2-2.9-1.9-4.7-1.9h-2.8c-0.5,0-1,0.4-1,1c0,0,0,0,0,0v8.7c0,0.5,0.4,1,1,1
			c0,0,0,0,0,0h14.4c0.5,0,1-0.4,1-1c0-0.3-0.1-0.5-0.3-0.7L38.8,7.3z M32.3,14.1V7.4h1.8c1.3,0,2.5,0.5,3.4,1.3l5.8,5.4L32.3,14.1z
			"/>
		<path id="Trazado_48" class="st1" d="M14.1,22.7c-1.8,0-3.3,1.5-3.3,3.3s1.5,3.3,3.3,3.3s3.3-1.5,3.3-3.3v0
			C17.4,24.2,16,22.7,14.1,22.7z M14.1,27.4c-0.8,0-1.4-0.6-1.4-1.4s0.6-1.4,1.4-1.4c0.8,0,1.4,0.6,1.4,1.4l0,0
			C15.5,26.8,14.9,27.4,14.1,27.4z"/>
		<path id="Trazado_49" class="st1" d="M50.9,22.7c-1.8,0-3.3,1.5-3.3,3.3c0,1.8,1.5,3.3,3.3,3.3c1.8,0,3.3-1.5,3.3-3.3v0
			C54.2,24.2,52.8,22.7,50.9,22.7z M50.9,27.4c-0.8,0-1.4-0.6-1.4-1.4s0.6-1.4,1.4-1.4c0.8,0,1.4,0.6,1.4,1.4l0,0
			C52.3,26.8,51.7,27.4,50.9,27.4z"/>
	</g>
</g>
</svg>
