<?xml version="1.0" encoding="utf-8"?>
<!-- Generator: Adobe Illustrator 24.1.2, SVG Export Plug-In . SVG Version: 6.00 Build 0)  -->
<svg version="1.1" id="Capa_1" xmlns="http://www.w3.org/2000/svg" xmlns:xlink="http://www.w3.org/1999/xlink" x="0px" y="0px"
	 viewBox="0 0 40 40" style="enable-background:new 0 0 40 40;" xml:space="preserve">
<style type="text/css">
	.st0{fill:#FA9100;}
	.st1{fill:none;stroke:#FA9100;stroke-linecap:round;}
</style>
<g id="Grupo_288" transform="translate(-289.395 -287.667)">
	<g id="Grupo_287" transform="translate(152 -94.236)">
		<path id="Trazado_358" class="st0" d="M153.8,413.4c-1.6,0-2.8-1.3-2.8-2.8c0-1.6,1.3-2.8,2.8-2.8c1.6,0,2.8,1.3,2.8,2.8
			C156.6,412.1,155.3,413.4,153.8,413.4z M153.8,408.8c-1,0-1.8,0.8-1.8,1.8c0,0,0,0,0,0c0,1,0.8,1.8,1.8,1.8l0,0
			c1,0,1.8-0.8,1.8-1.8c0,0,0,0,0,0C155.5,409.6,154.8,408.8,153.8,408.8L153.8,408.8z"/>
		<path id="Trazado_359" class="st0" d="M170.9,413.4c-1.6,0-2.8-1.3-2.8-2.8c0-1.6,1.3-2.8,2.8-2.8c1.6,0,2.8,1.3,2.8,2.8
			C173.7,412.1,172.4,413.4,170.9,413.4z M170.9,408.8c-1,0-1.8,0.8-1.8,1.8c0,0,0,0,0,0c0,1,0.8,1.8,1.8,1.8l0,0
			c1,0,1.8-0.8,1.8-1.8c0,0,0,0,0,0C172.6,409.6,171.8,408.8,170.9,408.8L170.9,408.8z"/>
		<path id="Trazado_360" class="st0" d="M155.1,399.8l-0.8-0.5c0.3-0.4,0.6-0.8,0.9-1.2l0.7,0.6C155.6,399,155.3,399.4,155.1,399.8z
			"/>
		<path id="Trazado_361" class="st0" d="M156.5,398.1l-0.6-0.7c1.9-1.8,4.4-2.8,7-2.8v0.9C160.5,395.5,158.2,396.5,156.5,398.1z"/>
		<path id="Trazado_362" class="st0" d="M173.6,408.6h-21.5c-1.8,0-3.3-1.5-3.3-3.3c0-0.3,0.2-0.5,0.5-0.5l0,0h27.1
			c0.3,0,0.5,0.2,0.5,0.5c0,0,0,0,0,0C176.9,407.2,175.4,408.6,173.6,408.6z M149.8,405.8c0.2,1.1,1.2,1.9,2.3,1.9h21.5
			c1.1,0,2.1-0.8,2.3-1.9H149.8z"/>
		<path id="Trazado_363" class="st0" d="M174.5,405.8h-23.3c-0.3,0-0.5-0.2-0.5-0.5c0,0,0,0,0,0v-0.5c0-6.7,5.4-12.1,12.1-12.1
			c6.7,0,12.1,5.4,12.1,12.1v0.5C175,405.6,174.8,405.8,174.5,405.8C174.5,405.8,174.5,405.8,174.5,405.8z M151.7,404.9h22.4
			c0-6.2-5-11.2-11.2-11.2C156.7,393.7,151.7,398.7,151.7,404.9L151.7,404.9z"/>
		<rect id="Rectángulo_143" x="161.5" y="390.4" class="st0" width="2.8" height="0.9"/>
		<rect id="Rectángulo_144" x="162.4" y="390.9" class="st0" width="0.9" height="2.3"/>
	</g>
	<path id="Trazado_364" class="st1" d="M306.8,299.6l-11.9,0.1"/>
	<path id="Trazado_365" class="st1" d="M303.8,302.6l-11.9,0.1"/>
	<path id="Trazado_366" class="st1" d="M301.9,305.5l-11.9,0.1"/>
</g>
</svg>
