<?xml version="1.0" encoding="utf-8"?>
<!-- Generator: Adobe Illustrator 24.1.2, SVG Export Plug-In . SVG Version: 6.00 Build 0)  -->
<svg version="1.1" id="Capa_1" xmlns="http://www.w3.org/2000/svg" xmlns:xlink="http://www.w3.org/1999/xlink" x="0px" y="0px"
	 viewBox="0 0 40 40" style="enable-background:new 0 0 40 40;" xml:space="preserve">
<style type="text/css">
	.st0{fill:#D01317;}
</style>
<g id="Grupo_141" transform="translate(-19.911 -107.504)">
	<path id="Trazado_150" class="st0" d="M37.8,139.1H21.9c-0.8,0-1.4-0.6-1.4-1.4v-20.4c0-0.8,0.6-1.5,1.4-1.5c0,0,0,0,0,0h15.9
		c0.8,0,1.5,0.6,1.5,1.4c0,0,0,0,0,0v20.4C39.3,138.5,38.6,139.1,37.8,139.1z M21.9,116.8c-0.3,0-0.5,0.2-0.5,0.5l0,0v20.4
		c0,0.3,0.2,0.5,0.5,0.5c0,0,0,0,0,0h15.9c0.3,0,0.5-0.2,0.5-0.5l0,0v-20.4c0-0.3-0.2-0.5-0.5-0.5h0L21.9,116.8z"/>
	<path id="Trazado_151" class="st0" d="M57.9,139.1H42c-0.8,0-1.4-0.6-1.4-1.4v-20.4c0-0.8,0.6-1.5,1.4-1.5c0,0,0,0,0,0h15.9
		c0.8,0,1.4,0.6,1.4,1.4v20.4C59.3,138.5,58.7,139.1,57.9,139.1C57.9,139.1,57.9,139.1,57.9,139.1z M42,116.8
		c-0.3,0-0.5,0.2-0.5,0.5l0,0v20.4c0,0.3,0.2,0.5,0.5,0.5h0h15.9c0.3,0,0.5-0.2,0.5-0.5l0,0v-20.4c0-0.3-0.2-0.5-0.5-0.5h0L42,116.8
		z"/>
	<path id="Trazado_152" class="st0" d="M26.1,125.6c-1.9,0-3.5-1.6-3.5-3.5c0-1.9,1.6-3.5,3.5-3.5s3.5,1.6,3.5,3.5l0,0
		C29.6,124.1,28,125.6,26.1,125.6z M26.1,119.6c-1.4,0-2.5,1.1-2.5,2.5s1.1,2.5,2.5,2.5c1.4,0,2.5-1.1,2.5-2.5l0,0
		C28.6,120.8,27.5,119.6,26.1,119.6z"/>
	<path id="Trazado_153" class="st0" d="M27.5,122.1c0,0.7-0.6,1.3-1.3,1.3c-0.7,0-1.3-0.6-1.3-1.3c0-0.7,0.6-1.3,1.3-1.3
		c0,0,0,0,0,0C26.9,120.8,27.5,121.4,27.5,122.1z"/>
	<path id="Trazado_154" class="st0" d="M56.4,122.6H51c0,0-0.1,0-0.1,0c-0.7-0.2-1.2-0.9-1-1.6c0.1-0.5,0.5-0.9,1-1l0.1,0
		c0.2,0,0.4-0.1,0.5-0.1c0.6-0.2,1.2-0.5,1.6-1c0-0.1,0.1-0.2,0-0.3c-0.1-0.3,0-0.5,0.3-0.6c0.1,0,0.2,0,0.3,0
		c0.6,0.3,3.5,1.6,3.8,3.2c0,0.1,0,0.2,0,0.3c0,0.6-0.4,1.2-1,1.3C56.5,122.6,56.4,122.6,56.4,122.6z M51.1,121.6h5.3
		c0.1-0.1,0.2-0.2,0.2-0.4c0,0,0-0.1,0-0.1c-0.1-0.7-1.4-1.5-2.5-2.1c0,0,0,0.1,0,0.1c-0.5,0.7-1.2,1.3-2.1,1.5
		c-0.2,0.1-0.4,0.1-0.7,0.2l-0.1,0c-0.2,0-0.3,0.2-0.3,0.4C50.8,121.5,50.9,121.6,51.1,121.6L51.1,121.6z"/>
	<path id="Trazado_155" class="st0" d="M55.7,127.6h-4c-0.3,0-0.5-0.2-0.5-0.5s0.2-0.5,0.5-0.5l0,0h4c0.3,0,0.5,0.2,0.5,0.5
		S56,127.6,55.7,127.6z"/>
	<path id="Trazado_156" class="st0" d="M27.6,135.3c-0.7,0-1.2-0.5-1.2-1.2c0-0.1,0-0.2,0.1-0.4c-0.2-0.2-0.4-0.2-0.6-0.2
		c-0.9,0.1-1.8-0.1-2.4-0.7c-0.5-0.5-0.8-1.1-0.8-1.8c0-1.5,1.2-2.7,2.8-2.8c0.7,0,1.3,0.3,1.8,0.8c0.6,0.7,0.9,1.6,0.7,2.4
		c0,0.2,0.1,0.5,0.2,0.6c0.5-0.2,1.1,0,1.3,0.5c0.3,0.4,0.3,0.9,0,1.3c-0.2,0.3-0.4,0.5-0.7,0.5c-0.1,0.3-0.3,0.6-0.5,0.7
		C28,135.2,27.8,135.3,27.6,135.3z M25.9,132.5c0.5,0,0.9,0.2,1.3,0.5c0.3,0.2,0.3,0.6,0.2,0.9c0,0.1,0,0.2,0.1,0.3
		c0.1,0.1,0.2,0,0.3-0.1c0-0.1,0-0.1,0-0.2c-0.1-0.3,0.1-0.5,0.3-0.6c0.1,0,0.2,0,0.3,0c0.1,0,0.2,0,0.3-0.1c0-0.1,0-0.2-0.1-0.3
		c0,0-0.1,0-0.1,0c-0.3,0.1-0.7,0-0.9-0.2c-0.4-0.4-0.6-0.9-0.5-1.5c0.1-0.6-0.1-1.2-0.5-1.6c-0.3-0.3-0.7-0.5-1.1-0.5
		c-1,0-1.8,0.8-1.8,1.8c0,0.4,0.2,0.8,0.5,1.1c0.4,0.4,1.1,0.6,1.6,0.5C25.7,132.5,25.8,132.5,25.9,132.5z"/>
	<path id="Trazado_157" class="st0" d="M26.7,133.8c-0.3,0-0.5-0.2-0.5-0.5c0-0.1,0.1-0.2,0.1-0.3l1-1c0.2-0.2,0.5-0.1,0.7,0.1
		c0.1,0.2,0.1,0.4,0,0.6l-1,1C26.9,133.7,26.8,133.8,26.7,133.8z"/>
	<path id="Trazado_158" class="st0" d="M56.3,136.7h-5.2c-0.7,0-1.3-0.6-1.3-1.3l0,0v-2.1c0-2.1,1.7-3.9,3.8-4
		c2.2-0.1,4,1.6,4.1,3.8c0,0,0,0.1,0,0.1v2.2C57.6,136.1,57,136.7,56.3,136.7C56.3,136.7,56.3,136.7,56.3,136.7z M53.7,130.2h-0.1
		c-1.6,0.1-2.9,1.4-2.9,3.1v2.1c0,0.2,0.2,0.4,0.4,0.4h5.2c0.2,0,0.4-0.2,0.4-0.4v-2.2C56.7,131.5,55.3,130.2,53.7,130.2L53.7,130.2
		z"/>
	<path id="Trazado_159" class="st0" d="M51.9,134.5c-0.6,0-1.1-0.5-1.1-1.1c0-0.1-0.1-0.3-0.2-0.3h-0.3c-0.3,0-0.5-0.2-0.5-0.5
		c0,0,0,0,0-0.1c0.3-2.2,2.2-3.7,4.4-3.4c1.7,0.2,3.1,1.5,3.4,3.2c0.1,0.5-0.2,0.9-0.7,1c0,0-0.1,0-0.1,0c-0.2,0-0.5-0.1-0.6-0.2
		c-0.2-0.2-0.3-0.4-0.3-0.6c0,0,0-0.1-0.1-0.1c0,0-0.1-0.1-0.1,0c-0.1,0-0.2,0.1-0.2,0.2v0.2c0,0.6-0.5,1.1-1.1,1.1c0,0,0,0-0.1,0
		c-0.6,0-1-0.5-1-1.1v-0.2c0-0.1-0.1-0.2-0.2-0.2c0,0,0,0,0,0c-0.1,0-0.2,0.1-0.2,0.3v0.7c0,0.5-0.4,1-0.9,1.1
		C52,134.5,51.9,134.5,51.9,134.5z M50.9,132.3c0.6,0.1,0.9,0.6,0.9,1.2c0,0.1,0,0.1,0.1,0.1c0,0,0,0,0,0c0.1,0,0.1-0.1,0.1-0.1
		v-0.7c0-0.7,0.4-1.2,1.1-1.3c0.3,0,0.6,0.1,0.9,0.3c0.2,0.2,0.4,0.5,0.4,0.9v0.2c0,0.1,0,0.1,0.1,0.1c0,0,0.1,0,0.1,0
		c0,0,0,0,0-0.1v-0.2c0-0.6,0.5-1.1,1.1-1.2c0.2,0,0.5,0.1,0.7,0.2c-0.8-1.4-2.6-1.9-4.1-1.1C51.6,130.9,51.1,131.5,50.9,132.3
		L50.9,132.3z"/>
	<path id="Trazado_160" class="st0" d="M54.3,127.6h-1.3c-0.3,0-0.5-0.2-0.5-0.5l0,0V127c0-0.6-0.3-1.2-0.9-1.5
		c-1.2-0.7-2-1.9-2-3.3c0-0.3,0.2-0.5,0.5-0.5h0h6.9c0.3,0,0.5,0.2,0.5,0.5l0,0c0,1.4-0.7,2.6-2,3.3c-0.5,0.3-0.9,0.9-0.9,1.5v0.1
		C54.8,127.4,54.6,127.6,54.3,127.6z M53.5,126.6h0.4c0.1-0.8,0.6-1.6,1.3-2c0.7-0.4,1.3-1.1,1.4-2h-5.9c0.1,0.8,0.7,1.6,1.4,2
		C52.9,125,53.4,125.8,53.5,126.6L53.5,126.6z"/>
	<path id="Trazado_161" class="st0" d="M36.1,122.6h-4.6c-0.3,0-0.5-0.2-0.5-0.5s0.2-0.5,0.5-0.5h4.6c0.3,0,0.5,0.2,0.5,0.5
		S36.3,122.6,36.1,122.6z"/>
	<path id="Trazado_162" class="st0" d="M36.1,125.6H30c-0.3,0-0.5-0.2-0.5-0.5s0.2-0.5,0.5-0.5l0,0h6.1c0.3,0,0.5,0.2,0.5,0.5
		S36.3,125.6,36.1,125.6z"/>
	<path id="Trazado_163" class="st0" d="M47.8,124.6h-4.6c-0.3,0-0.5-0.2-0.5-0.5c0-0.3,0.2-0.5,0.5-0.5l0,0h4.6
		c0.3,0,0.5,0.2,0.5,0.5C48.3,124.4,48.1,124.6,47.8,124.6z"/>
	<path id="Trazado_164" class="st0" d="M49.3,127.6h-6.1c-0.3,0-0.5-0.2-0.5-0.5s0.2-0.5,0.5-0.5l0,0h6.1c0.3,0,0.5,0.2,0.5,0.5
		S49.6,127.6,49.3,127.6z"/>
	<path id="Trazado_165" class="st0" d="M47.8,133.3h-4.6c-0.3,0-0.5-0.2-0.5-0.5c0-0.3,0.2-0.5,0.5-0.5l0,0h4.6
		c0.3,0,0.5,0.2,0.5,0.5C48.3,133.1,48.1,133.3,47.8,133.3z"/>
	<path id="Trazado_166" class="st0" d="M48.7,136.3h-5.5c-0.3,0-0.5-0.2-0.5-0.4c0-0.3,0.2-0.5,0.4-0.5c0,0,0.1,0,0.1,0h5.5
		c0.3,0,0.5,0.2,0.5,0.4c0,0.3-0.2,0.5-0.4,0.5C48.8,136.3,48.7,136.3,48.7,136.3z"/>
	<path id="Trazado_167" class="st0" d="M36.1,133.3h-4.6c-0.3,0-0.5-0.2-0.5-0.5c0-0.3,0.2-0.5,0.5-0.5h4.6c0.3,0,0.5,0.2,0.5,0.5
		C36.5,133.1,36.3,133.3,36.1,133.3z"/>
	<path id="Trazado_168" class="st0" d="M36.1,136.3H30c-0.3,0-0.5-0.2-0.5-0.4c0-0.3,0.2-0.5,0.4-0.5c0,0,0.1,0,0.1,0h6.1
		c0.3,0,0.5,0.2,0.5,0.4c0,0.3-0.2,0.5-0.4,0.5C36.1,136.3,36.1,136.3,36.1,136.3z"/>
	<path id="Trazado_169" class="st0" d="M41,119.8h-2.2c-0.3,0-0.5-0.2-0.5-0.5s0.2-0.5,0.5-0.5H41c0.3,0,0.5,0.2,0.5,0.5
		S41.3,119.8,41,119.8z"/>
	<path id="Trazado_170" class="st0" d="M41,123.1h-2.2c-0.3,0-0.5-0.2-0.5-0.5s0.2-0.5,0.5-0.5H41c0.3,0,0.5,0.2,0.5,0.5
		S41.3,123.1,41,123.1z"/>
	<path id="Trazado_171" class="st0" d="M41,126.4h-2.2c-0.3,0-0.5-0.2-0.5-0.5s0.2-0.5,0.5-0.5H41c0.3,0,0.5,0.2,0.5,0.5
		S41.3,126.4,41,126.4z"/>
	<path id="Trazado_172" class="st0" d="M41,129.6h-2.2c-0.3,0-0.5-0.2-0.5-0.5c0-0.3,0.2-0.5,0.5-0.5H41c0.3,0,0.5,0.2,0.5,0.5
		C41.5,129.4,41.3,129.6,41,129.6z"/>
	<path id="Trazado_173" class="st0" d="M41,132.9h-2.2c-0.3,0-0.5-0.2-0.5-0.5s0.2-0.5,0.5-0.5H41c0.3,0,0.5,0.2,0.5,0.5
		S41.3,132.9,41,132.9z"/>
	<path id="Trazado_174" class="st0" d="M41,136.2h-2.2c-0.3,0-0.5-0.2-0.5-0.5s0.2-0.5,0.5-0.5H41c0.3,0,0.5,0.2,0.5,0.5
		S41.3,136.2,41,136.2z"/>
</g>
</svg>
