<?xml version="1.0" encoding="utf-8"?>
<!-- Generator: Adobe Illustrator 24.1.1, SVG Export Plug-In . SVG Version: 6.00 Build 0)  -->
<svg version="1.1" id="Capa_1" xmlns="http://www.w3.org/2000/svg" xmlns:xlink="http://www.w3.org/1999/xlink" x="0px" y="0px"
	 viewBox="0 0 100 125" style="enable-background:new 0 0 100 125;" xml:space="preserve">
<style type="text/css">
	.st0{fill:#D10D0D;}
	.st1{fill:#FFFFFF;}
</style>
<g id="Grupo_38" transform="translate(-73 -444)">
	<path id="Trazado_39" class="st0" d="M161.6,452l-71.2-4.5c-6.5-0.4-12.1,4.5-12.6,11.1c0,0,0,0,0,0l-4.5,71.2
		c-0.4,6.5,4.5,12.2,11.1,12.6l25.5,1.6c5.1,8.1,15.6,21.9,29.9,23.5c0,0-5.8-13.1-6.7-22l22.6,1.4c6.5,0.4,12.2-4.5,12.6-11.1l0,0
		l4.5-71.2C173.1,458,168.2,452.4,161.6,452z"/>
	<g id="Grupo_26" transform="translate(91.371 459.823)">
		<path id="Trazado_9" class="st1" d="M32.1,3.3c-17.7,0-32,14.3-32,31.9s14.3,32,31.9,32c0,0,0,0,0,0c1,0,1.9,0,2.9-0.1
			c0.9-0.1,1.8-0.2,2.6-0.4l0.3-0.1c17.4-3.2,28.8-19.9,25.6-37.3C60.7,14.3,47.5,3.3,32.1,3.3z M29.6,65L29.6,65
			c-0.9-0.1-1.7-0.2-2.5-0.3c0,0-0.1,0-0.1,0c-0.8-0.1-1.6-0.3-2.4-0.5l-0.2,0c-0.8-0.2-1.5-0.4-2.3-0.7c-0.1,0-0.2-0.1-0.2-0.1
			c-0.7-0.3-1.4-0.6-2.1-0.9c-0.1,0-0.2-0.1-0.3-0.1c-0.7-0.3-1.4-0.7-2-1.1l-0.3-0.2c-0.7-0.4-1.3-0.8-1.9-1.2
			c-0.1-0.1-0.2-0.1-0.3-0.2c-0.6-0.4-1.2-0.9-1.8-1.4L13,58.1v-9c0-6.5,5.3-11.7,11.7-11.7h14.9c6.5,0,11.7,5.3,11.7,11.7v9
			l-0.1,0.1c-0.6,0.5-1.2,1-1.8,1.4c-0.1,0.1-0.2,0.1-0.3,0.2c-0.6,0.4-1.3,0.9-1.9,1.2c-0.1,0-0.2,0.1-0.3,0.1
			c-0.7,0.4-1.4,0.7-2.1,1.1c-0.1,0-0.2,0.1-0.2,0.1c-0.7,0.3-1.4,0.6-2.2,0.9c-0.1,0-0.1,0.1-0.2,0.1c-0.7,0.3-1.5,0.5-2.3,0.7
			l-0.2,0c-0.8,0.2-1.6,0.4-2.4,0.5c0,0-0.1,0-0.1,0c-0.8,0.1-1.6,0.3-2.5,0.3h-0.1c-0.9,0.1-1.7,0.1-2.6,0.1
			C31.3,65.1,30.4,65.1,29.6,65L29.6,65z M53.5,56.1v-7c0-7.6-6.2-13.8-13.9-13.9H24.7c-7.6,0-13.8,6.2-13.9,13.9v7
			C-0.7,44.4-0.5,25.5,11.3,14s30.7-11.3,42.2,0.4C64.8,26,64.8,44.5,53.5,56.1L53.5,56.1z"/>
		<path id="Trazado_10" class="st1" d="M32.1,13C25.4,13,20,18.5,20,25.2s5.4,12.1,12.1,12.1c6.7,0,12.1-5.4,12.1-12.1
			S38.8,13,32.1,13L32.1,13z M32.1,34.9c-5.4,0-9.7-4.3-9.7-9.7s4.3-9.7,9.7-9.7s9.7,4.3,9.7,9.7S37.5,34.9,32.1,34.9L32.1,34.9z"/>
	</g>
</g>
</svg>
