<?xml version="1.0" encoding="utf-8"?>
<!-- Generator: Adobe Illustrator 24.1.1, SVG Export Plug-In . SVG Version: 6.00 Build 0)  -->
<svg version="1.1" id="Capa_1" xmlns="http://www.w3.org/2000/svg" xmlns:xlink="http://www.w3.org/1999/xlink" x="0px" y="0px"
	 viewBox="0 0 40 40" style="enable-background:new 0 0 40 40;" xml:space="preserve">
<style type="text/css">
	.st0{fill:none;}
	.st1{fill:#FFFFFF;}
	.st2{enable-background:new    ;}
</style>
<g>
	<g id="Elipse_1">
		<g>
			<circle class="st0" cx="20" cy="20" r="19"/>
		</g>
		<g>
			<path class="st1" d="M20,39C9.5,39,1,30.5,1,20S9.5,1,20,1s19,8.5,19,19S30.5,39,20,39z M20,2.9C10.6,2.9,2.9,10.6,2.9,20
				S10.6,37.1,20,37.1c9.4,0,17.1-7.7,17.1-17.1S29.4,2.9,20,2.9z"/>
		</g>
	</g>
	<g class="st2">
		<path class="st1" d="M18.7,24.8c0-0.3,0-0.5,0-0.7c0-0.9,0.1-1.7,0.4-2.4c0.2-0.5,0.5-1,0.9-1.5c0.3-0.4,0.9-0.9,1.7-1.6
			c0.8-0.7,1.3-1.3,1.6-1.7c0.2-0.4,0.4-0.9,0.4-1.4c0-0.9-0.4-1.7-1.1-2.4c-0.7-0.7-1.6-1-2.6-1c-1,0-1.8,0.3-2.5,0.9
			c-0.7,0.6-1.1,1.6-1.3,2.9l-2.4-0.3c0.2-1.8,0.9-3.1,1.9-4.1c1.1-0.9,2.5-1.4,4.2-1.4c1.9,0,3.3,0.5,4.5,1.5s1.7,2.2,1.7,3.7
			c0,0.8-0.2,1.6-0.6,2.3c-0.4,0.7-1.2,1.6-2.3,2.6c-0.8,0.7-1.3,1.2-1.5,1.5c-0.2,0.3-0.4,0.7-0.5,1.1c-0.1,0.4-0.2,1.1-0.2,2H18.7
			z M18.6,29.5v-2.7h2.7v2.7H18.6z"/>
	</g>
</g>
</svg>
