<?xml version="1.0" encoding="utf-8"?>
<!-- Generator: Adobe Illustrator 24.1.2, SVG Export Plug-In . SVG Version: 6.00 Build 0)  -->
<svg version="1.1" id="Capa_1" xmlns="http://www.w3.org/2000/svg" xmlns:xlink="http://www.w3.org/1999/xlink" x="0px" y="0px"
	 viewBox="0 0 40 40" style="enable-background:new 0 0 40 40;" xml:space="preserve">
<style type="text/css">
	.st0{fill:#C30010;}
</style>
<g id="Grupo_190" transform="translate(237.501 -723.435)">
	<g id="Capa_1_1_" transform="translate(-218.502 727.873)">
		<g id="Grupo_189" transform="translate(0 0)">
			<path id="Trazado_293" class="st0" d="M12.8,15H0.7c-1,0-1.8-0.8-1.8-1.8c0-0.1,0.1-0.3,0.3-0.3h15.3c0.1,0,0.3,0.1,0.3,0.3
				C14.7,14.2,13.8,15,12.8,15z M-0.6,13.5c0.1,0.6,0.7,1.1,1.3,1.1h12.1c0.6,0,1.2-0.4,1.3-1.1H-0.6z"/>
			<path id="Trazado_294" class="st0" d="M13.4,13.5H0.2c-0.1,0-0.3-0.1-0.3-0.3v-0.3c0-3.8,3.1-6.9,6.9-6.9c3.8,0,6.9,3.1,6.9,6.9
				v0.3C13.6,13.3,13.5,13.5,13.4,13.5C13.4,13.5,13.4,13.5,13.4,13.5z M0.4,12.9h12.7c0-3.5-2.8-6.3-6.3-6.3
				C3.3,6.6,0.4,9.4,0.4,12.9L0.4,12.9z"/>
			<rect id="Rectángulo_85" x="6" y="4.7" class="st0" width="1.6" height="0.5"/>
			<rect id="Rectángulo_86" x="6.5" y="5" class="st0" width="0.5" height="1.3"/>
		</g>
	</g>
	<g id="Capa_2_1_" transform="translate(-237.501 723.435)">
		<path id="Trazado_295" class="st0" d="M36.3,5.3H14.8c-1.3,0-2.3,1-2.4,2.3c0,0,0,0,0,0v3.6H3.7c-0.6,0-1.2,0.2-1.6,0.7
			c-0.4,0.4-0.7,1-0.7,1.6v15.2c0,1.3,1,2.4,2.3,2.4h0.4v2.7c0,0.4,0.3,0.8,0.8,0.8c0.2,0,0.3,0,0.5-0.1l4.5-3.3h13
			c1.3,0,2.4-1.1,2.4-2.4v-4.1h4.3l4.8,3.6c0.1,0.1,0.3,0.2,0.5,0.2c0.1,0,0.2,0,0.3-0.1c0.3-0.1,0.4-0.4,0.4-0.7v-2.9h0.7
			c0.6,0,1.2-0.2,1.6-0.7c0.4-0.4,0.7-1,0.7-1.7V7.6C38.6,7,38.4,6.4,38,6C37.5,5.6,36.9,5.3,36.3,5.3L36.3,5.3z M23.8,28.8
			c0,0.4-0.4,0.8-0.8,0.8H9.6c-0.2,0-0.3,0-0.5,0.1l-3.5,2.6v-1.9c0-0.2-0.1-0.4-0.2-0.5c-0.1-0.1-0.3-0.2-0.6-0.2H3.7
			c-0.4,0-0.8-0.4-0.8-0.8c0,0,0,0,0,0V13.6c0-0.2,0.1-0.4,0.2-0.5c0.1-0.1,0.3-0.2,0.5-0.2h8.7v9.5c0,1.3,1.1,2.3,2.4,2.3h9
			L23.8,28.8z M37.1,22.3c0,0.2-0.1,0.4-0.2,0.5c-0.1,0.1-0.3,0.2-0.5,0.2h-1.4c-0.4,0-0.8,0.4-0.8,0.8v2.2l-3.8-2.8
			c-0.1-0.1-0.3-0.2-0.5-0.2H14.8c-0.4,0-0.8-0.3-0.8-0.8c0,0,0,0,0,0V7.6c0-0.4,0.4-0.8,0.8-0.7c0,0,0,0,0,0h21.6
			c0.2,0,0.4,0.1,0.5,0.2c0.1,0.1,0.2,0.3,0.2,0.5L37.1,22.3L37.1,22.3z"/>
	</g>
</g>
</svg>
