<?xml version="1.0" encoding="utf-8"?>
<!-- Generator: Adobe Illustrator 24.1.2, SVG Export Plug-In . SVG Version: 6.00 Build 0)  -->
<svg version="1.1" id="Capa_1" xmlns="http://www.w3.org/2000/svg" xmlns:xlink="http://www.w3.org/1999/xlink" x="0px" y="0px"
	 viewBox="0 0 85 85" style="enable-background:new 0 0 85 85;" xml:space="preserve">
<style type="text/css">
	.st0{fill:#FA9100;}
	.st1{fill:#FFFFFF;}
</style>
<path id="Rectángulo_33" class="st0" d="M10.1,2.7h64c4.4,0,8,3.6,8,8v64c0,4.4-3.6,8-8,8h-64c-4.4,0-8-3.6-8-8v-64
	C2.1,6.3,5.7,2.7,10.1,2.7z"/>
<g id="Grupo_95" transform="translate(-71 -339.5)">
	<g id="Grupo_92" transform="translate(84 353)">
		<path id="Trazado_94" class="st1" d="M34,52.7H11.9c-0.5,0-0.9-0.4-0.9-0.9V41.1c0-0.3,0.1-0.5,0.3-0.7l4.4-3.6
			c0.8-0.7,1.8-1,2.8-1h11.6c1.7,0,3.1,1.3,3.2,3v0.1c0,1.7-1.4,3.1-3.1,3.1h-5.8c-0.5,0-0.9,0.4-0.9,0.9s0.4,0.9,0.9,0.9
			c0,0,0,0,0.1,0h10.4l10-7.1c1.6-1.1,3.7-0.8,4.8,0.8l0,0c0.1,0.1,0.1,0.2,0.2,0.2c0.9,1.6,0.5,3.6-1,4.6L38,51.2
			C36.9,52.2,35.5,52.7,34,52.7z M12.8,50.9H34c1,0,2-0.4,2.8-1l10.9-9c0.8-0.5,1-1.5,0.5-2.3c0,0,0-0.1-0.1-0.1
			c-0.5-0.8-1.6-0.9-2.4-0.4l0,0l-10.2,7.3c-0.2,0.1-0.3,0.2-0.5,0.2H24.4c-1.5,0-2.7-1.2-2.7-2.7s1.2-2.7,2.7-2.7l0,0h5.8
			c0.7,0,1.3-0.6,1.3-1.3s-0.6-1.3-1.4-1.3H18.5c-0.6,0-1.2,0.2-1.7,0.6l-4,3.4L12.8,50.9z"/>
		<path id="Trazado_95" class="st1" d="M11.9,56.2H2.1v-1.8H11V41.1H2.1v-1.8h9.8c0.5,0,0.9,0.4,0.9,0.9l0,0v15.2
			C12.8,55.8,12.4,56.2,11.9,56.2L11.9,56.2z"/>
		<path id="Trazado_96" class="st1" d="M6.5,52.7c-1.5,0-2.7-1.2-2.7-2.7s1.2-2.7,2.7-2.7s2.7,1.2,2.7,2.7l0,0
			C9.2,51.5,8,52.7,6.5,52.7z M6.5,49.1c-0.5,0-0.9,0.4-0.9,0.9s0.4,0.9,0.9,0.9s0.9-0.4,0.9-0.9l0,0C7.4,49.5,7,49.1,6.5,49.1z"/>
		<path id="Trazado_97" class="st1" d="M49.3,37.5h-41c-3.4,0-6.2-2.8-6.2-6.2c0-0.5,0.4-0.9,0.9-0.9l0,0h51.7
			c0.5,0,0.9,0.4,0.9,0.9l0,0C55.6,34.7,52.8,37.5,49.3,37.5z M3.9,32.2c0.4,2.1,2.3,3.6,4.4,3.6h41c2.1,0,3.9-1.5,4.4-3.6H3.9z"/>
		<path id="Trazado_98" class="st1" d="M51.1,32.2H6.5c-0.5,0-0.9-0.4-0.9-0.9l0,0v-0.9C5.6,17.6,16,7.2,28.8,7.2S52,17.6,52,30.4
			v0.9C52,31.8,51.6,32.2,51.1,32.2L51.1,32.2z M7.4,30.4h42.8C50.2,18.6,40.6,9,28.8,9S7.4,18.6,7.4,30.4z"/>
		<path id="Trazado_99" class="st1" d="M13.9,20.6l-1.5-1c0.5-0.8,1.1-1.5,1.7-2.2l1.3,1.2C14.9,19.2,14.4,19.9,13.9,20.6z"/>
		<path id="Trazado_100" class="st1" d="M16.6,17.4l-1.2-1.3c3.6-3.4,8.4-5.3,13.4-5.3v1.8C24.3,12.5,19.9,14.3,16.6,17.4z"/>
		<rect id="Rectángulo_30" x="26.2" y="2.7" class="st1" width="5.3" height="1.8"/>
		<rect id="Rectángulo_31" x="27.9" y="3.6" class="st1" width="1.8" height="4.5"/>
	</g>
</g>
</svg>
