<?xml version="1.0" encoding="utf-8"?>
<!-- Generator: Adobe Illustrator 24.1.1, SVG Export Plug-In . SVG Version: 6.00 Build 0)  -->
<svg version="1.1" id="Capa_1" xmlns="http://www.w3.org/2000/svg" xmlns:xlink="http://www.w3.org/1999/xlink" x="0px" y="0px"
	 viewBox="0 0 40 40" style="enable-background:new 0 0 40 40;" xml:space="preserve">
<style type="text/css">
	.st0{fill:#FFFFFF;}
</style>
<path class="st0" d="M22.6,20L38,4.6c0.7-0.7,0.7-1.9,0-2.6s-1.9-0.7-2.6,0L20,17.4L4.6,2C3.9,1.3,2.7,1.3,2,2
	C1.3,2.7,1.3,3.9,2,4.6L17.4,20L2,35.4c-0.7,0.7-0.7,1.9,0,2.6c0.7,0.7,1.9,0.7,2.6,0L20,22.6L35.4,38c0.7,0.7,1.9,0.7,2.6,0
	c0.7-0.7,0.7-1.9,0-2.6L22.6,20z"/>
</svg>
