<?xml version="1.0" encoding="utf-8"?>
<!-- Generator: Adobe Illustrator 24.1.1, SVG Export Plug-In . SVG Version: 6.00 Build 0)  -->
<svg version="1.1" id="Capa_1" xmlns="http://www.w3.org/2000/svg" xmlns:xlink="http://www.w3.org/1999/xlink" x="0px" y="0px"
	 viewBox="0 0 100 125" style="enable-background:new 0 0 100 125;" xml:space="preserve">
<style type="text/css">
	.st0{fill:#FA9100;}
	.st1{fill:#FFFFFF;}
</style>
<g id="Grupo_40" transform="translate(-94 -546.4)">
	<path id="Trazado_40" class="st0" d="M182.6,553.5l-71.2-4.5c-6.5-0.4-12.2,4.5-12.6,11.1c0,0,0,0,0,0l-4.5,71.2
		c-0.4,6.5,4.5,12.2,11.1,12.6l25.5,1.6c5.1,8.1,15.6,21.9,29.9,23.5c0,0-5.8-13.1-6.7-22l22.6,1.4c6.5,0.4,12.2-4.5,12.6-11.1
		c0,0,0,0,0,0l4.5-71.2C194.1,559.5,189.2,553.9,182.6,553.5C182.6,553.5,182.6,553.5,182.6,553.5z"/>
	<g id="Grupo_29" transform="translate(109.078 567.808)">
		<path id="Trazado_42" class="st1" d="M35.1,15.3c-7.5,0-14.3,4.6-17.1,11.6c-2.9,7-1.3,15,4,20.4c5.3,5.4,13.2,7,20.2,4.1
			c9.6-4.1,14-15.1,9.9-24.7C49.2,19.9,42.5,15.4,35.1,15.3z M35.1,50.5c-6.6,0-12.5-4-15-10.1c-2.5-6.1-1.1-13.2,3.5-17.9
			c4.6-4.7,11.6-6.1,17.6-3.6c8.4,3.6,12.2,13.2,8.7,21.6C47.4,46.4,41.6,50.4,35.1,50.5L35.1,50.5z"/>
		<path id="Trazado_43" class="st1" d="M68.9,2.4h-2.3c-5.8,0-10.5,4.7-10.5,10.6v2.5C46,3.9,28.4,2.7,16.9,12.7
			c-0.2,0.2-0.4,0.4-0.7,0.6l-0.6-9.9c-0.1-0.6-0.6-1.1-1.3-1c-0.6,0.1-1.1,0.6-1.1,1.2L14,15.3c-1.4,0.7-2.9,1.1-4.5,1.1V3.6
			c0-0.6-0.5-1.2-1.1-1.2c-0.6,0-1.2,0.5-1.2,1.1c0,0,0,0,0,0.1v12.9c-1.6,0-3.1-0.4-4.5-1.1L3.4,3.6C3.5,3,3,2.5,2.3,2.4
			c-0.6,0-1.1,0.4-1.2,1.1L0.2,17.7C0,20.5,2.1,23,4.9,23.4v11.8c-0.6,0-1.2,0.5-1.2,1.2v22.3c0,2.6,2.1,4.7,4.7,4.7
			s4.7-2.1,4.7-4.7v-7.4c9.3,12.2,26.8,14.6,39,5.2c3.8-2.9,6.8-6.8,8.7-11.2v13.4c0,2.6,2.1,4.7,4.7,4.7s4.7-2.1,4.7-4.7V3.6
			C70,2.9,69.5,2.4,68.9,2.4C68.9,2.4,68.9,2.4,68.9,2.4z M10.7,58.7c0,1.3-1,2.3-2.3,2.3S6,59.9,6,58.7V37.6h4.7V58.7z M7.2,35.2
			V23.5h2.3v11.7L7.2,35.2z M11.1,21.1H5.6c-0.9,0-1.7-0.4-2.2-1c-0.6-0.6-0.9-1.5-0.8-2.3c1.9,0.7,3.8,1,5.8,0.9
			c2,0,3.9-0.3,5.8-0.9c0,0.9-0.3,1.7-0.8,2.3C12.7,20.8,11.9,21.1,11.1,21.1L11.1,21.1z M52.5,53c-10.3,9.6-26.4,9-36-1.3
			c-1.3-1.4-2.5-3-3.4-4.7V36.4c0-0.6-0.5-1.2-1.2-1.2V23.4c2.8-0.4,4.8-2.9,4.6-5.7l-0.1-1.3c9.6-10.3,25.7-11,36-1.4
			c1.4,1.3,2.6,2.7,3.7,4.2v17.2c0,0.6,0.5,1.2,1.2,1.2h3.3C59.7,43.5,56.9,48.9,52.5,53L52.5,53z M67.7,58.7c0,1.3-1,2.3-2.3,2.3
			c-1.3,0-2.3-1-2.3-2.3V37.6h4.7V58.7z M67.7,35.2h-9.3V12.9c0-4.5,3.6-8.2,8.1-8.2h1.2V35.2z"/>
	</g>
</g>
</svg>
