<?xml version="1.0" encoding="utf-8"?>
<!-- Generator: Adobe Illustrator 24.1.1, SVG Export Plug-In . SVG Version: 6.00 Build 0)  -->
<svg version="1.1" id="Capa_1" xmlns="http://www.w3.org/2000/svg" xmlns:xlink="http://www.w3.org/1999/xlink" x="0px" y="0px"
	 viewBox="0 0 40 40" style="enable-background:new 0 0 40 40;" xml:space="preserve">
<style type="text/css">
	.st0{fill:#FFFFFF;}
</style>
<path class="st0" d="M38.9,37.6L27.1,25.7c2.3-2.6,3.6-6,3.6-9.7c0-8.2-6.6-14.8-14.8-14.8C7.9,1.1,1.5,7.4,1.1,15.2
	c0,0.3,0,0.5,0,0.8c0,0.3,0,0.6,0,0.9C1.5,24.1,7.2,30,14.4,30.7c0.5,0.1,1,0.1,1.5,0.1c0.5,0,1,0,1.5-0.1c3.2-0.3,6.1-1.7,8.4-3.7
	l11.9,11.9L38.9,37.6z M15.9,28.9c-7.2,0-13-5.8-13-13s5.8-13,13-13c7.2,0,13,5.8,13,13S23,28.9,15.9,28.9z"/>
</svg>
