<?xml version="1.0" encoding="utf-8"?>
<!-- Generator: Adobe Illustrator 24.1.1, SVG Export Plug-In . SVG Version: 6.00 Build 0)  -->
<svg version="1.1" id="Capa_1" xmlns="http://www.w3.org/2000/svg" xmlns:xlink="http://www.w3.org/1999/xlink" x="0px" y="0px"
	 viewBox="0 0 85 85" style="enable-background:new 0 0 85 85;" xml:space="preserve">
<style type="text/css">
	.st0{fill:#D10D0D;}
	.st1{fill:#FFFFFF;}
</style>
<path id="Rectángulo_35" class="st0" d="M10.5,2.5h64c4.4,0,8,3.6,8,8v64c0,4.4-3.6,8-8,8h-64c-4.4,0-8-3.6-8-8v-64
	C2.5,6.1,6.1,2.5,10.5,2.5z"/>
<g id="Grupo_97" transform="translate(132.688 660.02)">
	<path id="Trazado_118" class="st1" d="M-68.2-640.4c-0.2,0-0.4,0.1-0.6,0.2c0,0,0,0,0,0l-4.2,4.2l-4.2-4.2l0,0
		c-0.1-0.1-0.2-0.1-0.3-0.2c-0.3-0.1-0.7-0.1-1,0.2l-2.8,2.8l-2.8-2.8c-0.2-0.2-0.4-0.3-0.6-0.3c-0.2,0-0.5,0.1-0.6,0.3l-2.8,2.8
		l-2.8-2.8c-0.2-0.2-0.4-0.3-0.6-0.3c-0.2,0-0.5,0.1-0.6,0.3l-2.8,2.8l-2.8-2.8c-0.2-0.2-0.4-0.3-0.6-0.3c-0.2,0-0.5,0.1-0.6,0.3
		l-2.8,2.8l-2.8-2.8c-0.2-0.2-0.4-0.3-0.6-0.3c-0.2,0-0.5,0.1-0.6,0.3l-2.8,2.8l-2.8-2.8c-0.3-0.3-0.6-0.3-1-0.2
		c-0.3,0.1-0.6,0.5-0.6,0.8v44c0,0.5,0.4,0.9,0.9,0.9h44c0.5,0,0.9-0.4,0.9-0.9v-44C-67.3-640-67.7-640.4-68.2-640.4L-68.2-640.4z
		 M-73-633.8c0.2,0,0.5-0.1,0.6-0.3l3.3-3.3v39.7l-3-3v-20.8c0-0.5-0.4-0.9-0.9-0.9s-0.9,0.4-0.9,0.9v20.8l-3,3v-39.7l3.3,3.3
		C-73.5-633.9-73.3-633.8-73-633.8L-73-633.8z M-73-599.1l2.7,2.7h-5.3L-73-599.1z M-111.3-637.4l1.9,1.9c0.2,0.2,0.4,0.3,0.6,0.3
		c0.2,0,0.5-0.1,0.6-0.3l2.8-2.8l2.8,2.8c0.2,0.2,0.4,0.3,0.6,0.3c0.2,0,0.5-0.1,0.6-0.3l2.8-2.8l2.8,2.8c0.3,0.3,0.9,0.3,1.3,0
		l2.8-2.8l2.8,2.8c0.2,0.2,0.4,0.3,0.6,0.3c0.2,0,0.5-0.1,0.6-0.3l2.8-2.8l2.8,2.8c0.2,0.2,0.4,0.3,0.6,0.3c0.2,0,0.5-0.1,0.6-0.3
		l1.9-1.9v40.9h-32.5V-637.4z"/>
	<path id="Trazado_119" class="st1" d="M-101.5-624.8h2.9c0.5,0,0.9-0.4,0.9-0.9c0-0.5-0.4-0.9-0.9-0.9h-2.9c-1.1,0-2-0.9-2-2
		c0-1.1,0.9-2,2-2h12.9c1.1,0,2,0.9,2,2c0,1.1-0.9,2-2,2h-2.9c-0.5,0-0.9,0.4-0.9,0.9c0,0.5,0.4,0.9,0.9,0.9h2.9
		c2.1,0,3.8-1.7,3.8-3.8c0-2.1-1.7-3.8-3.8-3.8h-12.9c-2.1,0-3.8,1.7-3.8,3.8C-105.2-626.5-103.5-624.8-101.5-624.8z"/>
	<path id="Trazado_120" class="st1" d="M-73-624.2c0.2,0,0.5-0.1,0.6-0.3c0.2-0.2,0.3-0.4,0.3-0.6c0-0.2-0.1-0.5-0.3-0.6
		c-0.2-0.2-0.4-0.3-0.6-0.3c-0.2,0-0.5,0.1-0.6,0.3c-0.2,0.2-0.3,0.4-0.3,0.6c0,0.2,0.1,0.5,0.3,0.6
		C-73.5-624.3-73.3-624.2-73-624.2z"/>
	<path id="Trazado_121" class="st1" d="M-94.4-625.1c0.2-0.2,0.3-0.4,0.3-0.6c0-0.2-0.1-0.5-0.3-0.6c-0.2-0.2-0.4-0.3-0.6-0.3
		c-0.2,0-0.5,0.1-0.6,0.3c-0.2,0.2-0.3,0.4-0.3,0.6c0,0.2,0.1,0.5,0.3,0.6c0.2,0.2,0.4,0.3,0.6,0.3
		C-94.8-624.8-94.6-624.9-94.4-625.1z"/>
	<path id="Trazado_122" class="st1" d="M-81.5-609.1h-1.9c0-0.2,0.1-0.4,0.1-0.6c0-1.5-1.2-2.8-2.7-3c-0.5-0.9-1.6-1.4-2.6-1.1
		c-0.9-1.2-2.6-1.6-3.9-0.8c-1-0.6-2.3-0.5-3.2,0.2l-2.1-1.6c-0.1-0.1-0.3-0.1-0.4-0.1c-0.2,0-0.3,0.1-0.4,0.2l-2.2,2.8l-0.5-0.5
		c-0.1-0.1-0.3-0.2-0.4-0.2c-0.2,0-0.3,0.1-0.4,0.2l-4.6,4.6h-2.1c-0.3,0-0.6,0.3-0.6,0.6c0,2.3,1.9,4.2,4.2,4.2h20.2
		c2.3,0,4.2-1.9,4.2-4.2C-81-608.8-81.2-609.1-81.5-609.1z M-92.9-613.4c0.2,0.2,0.5,0.2,0.7,0c0.8-0.6,1.9-0.5,2.5,0.3
		c0.1,0.1,0.1,0.2,0.2,0.3c0.1,0.1,0.2,0.3,0.3,0.3c0.2,0.1,0.3,0,0.5,0c0.6-0.3,1.3-0.1,1.6,0.5c0,0.1,0.1,0.1,0.1,0.2
		c0.1,0.2,0.4,0.4,0.6,0.4c1,0,1.8,0.8,1.8,1.8c0,0.2,0,0.4-0.1,0.6h-14.7c0-0.7,0.5-1.2,1.2-1.2c0.3,0,0.6-0.3,0.6-0.6c0,0,0,0,0,0
		c0-0.9,0.7-1.7,1.6-1.8c0.2,0,0.4-0.1,0.4-0.3c0.5-0.9,1.6-1.1,2.5-0.6C-93-613.5-93-613.5-92.9-613.4L-92.9-613.4z M-98.1-614.8
		l1.4,1.1c-1.1,0.3-1.8,1.2-2,2.3c-0.1,0-0.2,0.1-0.3,0.1l-1-1L-98.1-614.8z M-101.8-612.4l1.8,1.8c-0.4,0.4-0.6,1-0.6,1.5h-4.5
		L-101.8-612.4z M-85.1-605.5h-20.2c-1.4,0-2.6-1-2.9-2.4h26C-82.5-606.5-83.7-605.5-85.1-605.5L-85.1-605.5z"/>
</g>
</svg>
