<?xml version="1.0" encoding="utf-8"?>
<!-- Generator: Adobe Illustrator 24.1.2, SVG Export Plug-In . SVG Version: 6.00 Build 0)  -->
<svg version="1.1" id="Capa_1" xmlns="http://www.w3.org/2000/svg" xmlns:xlink="http://www.w3.org/1999/xlink" x="0px" y="0px"
	 viewBox="0 0 40 40" style="enable-background:new 0 0 40 40;" xml:space="preserve">
<style type="text/css">
	.st0{fill-rule:evenodd;clip-rule:evenodd;fill:url(#Trazado_179_1_);}
	.st1{fill:#2F4905;}
	.st2{font-family:'BerlinSansFB-Bold';}
	.st3{font-size:4.8187px;}
</style>
<linearGradient id="Trazado_179_1_" gradientUnits="userSpaceOnUse" x1="16.0569" y1="22.221" x2="16.6592" y2="22.221" gradientTransform="matrix(41.552 0 0 -50.605 -659.7093 1141.6494)">
	<stop  offset="0" style="stop-color:#019147"/>
	<stop  offset="1" style="stop-color:#F9EC23"/>
</linearGradient>
<path id="Trazado_179" class="st0" d="M9.1,24.2C6.9,6.8,28.7,10.7,31.8,1.9c3.6,15.5-6.1,25.9-19.5,24.8c-2.2-0.2-3.8,2.8-4.8,5.7
	c0.7-7.5,4.9-12.2,9.4-15.5l0,1.9c-1.3,0.2-2.2,1.2-2.3,2.5c0,1.4,0.8,3.5,1.7,4.2c0.4,0.3,1,0.3,1.4,0c1.1-1.1,1.9-2.5,2-4.1
	c0.1-1.2-0.8-2.4-2-2.6l0.2-2.6c1.1-0.8,2.2-1.4,3.3-2.1l0.2,1.8c-2.2,0.7-1.2,5.2-0.4,6.5c0,0,0,0,0,0l-0.2-3.8
	c0-0.1,0.1-0.3,0.2-0.3l0,0c0.1,0,0.3,0.1,0.3,0.2c0.1,1.3,0.2,2.5,0.5,3.8c0.3-0.8,0.1-3.2,0.1-3.8c0-0.1,0.1-0.3,0.2-0.3l0,0
	c0.1,0,0.3,0.1,0.3,0.2c0.1,1.3,0.2,2.5,0.5,3.7c0.1-1.2,0.1-2.5,0-3.7c0-0.1,0.1-0.3,0.2-0.3l0,0c0.1,0,0.3,0.1,0.3,0.2l0.2,3.7
	c0,0,0,0,0,0c0.8-1.1,1.2-6-1.2-6.4l-0.1-2.4c0.6-0.4,1.2-0.7,1.8-1l1.1,10c1.2-1.1,1.8-4.1,1.5-9.1c-0.5,0.1-1.1-0.1-1.5-0.4l0-1.1
	c1.9-1.1,3.3-2,3.7-3C26.4,12.3,14.7,13.8,9.1,24.2z"/>
<text transform="matrix(1 0 0 1 6.4507 36.8408)" class="st1 st2 st3">El Amiguini</text>
</svg>
