<?xml version="1.0" encoding="utf-8"?>
<!-- Generator: Adobe Illustrator 24.1.2, SVG Export Plug-In . SVG Version: 6.00 Build 0)  -->
<svg version="1.1" id="Capa_1" xmlns="http://www.w3.org/2000/svg" xmlns:xlink="http://www.w3.org/1999/xlink" x="0px" y="0px"
	 viewBox="0 0 40 40" style="enable-background:new 0 0 40 40;" xml:space="preserve">
<style type="text/css">
	.st0{fill-rule:evenodd;clip-rule:evenodd;fill:url(#Trazado_146_1_);}
	.st1{fill-rule:evenodd;clip-rule:evenodd;fill:url(#Trazado_147_1_);}
	.st2{fill-rule:evenodd;clip-rule:evenodd;fill:url(#Trazado_148_1_);}
	.st3{fill-rule:evenodd;clip-rule:evenodd;fill:url(#Trazado_149_1_);}
	.st4{font-family:'AlexBrush-Regular';}
	.st5{font-size:6.7409px;}
</style>
<g id="Grupo_140" transform="translate(412.529 6.959)">
	<g id="Grupo_139" transform="translate(-412.529 -6.959)">
		
			<linearGradient id="Trazado_146_1_" gradientUnits="userSpaceOnUse" x1="22.0109" y1="8.6063" x2="21.1541" y2="8.6063" gradientTransform="matrix(23.4573 0 0 -17.5565 -486.6078 173.3502)">
			<stop  offset="0" style="stop-color:#003794"/>
			<stop  offset="1" style="stop-color:#0083D4"/>
		</linearGradient>
		<path id="Trazado_146" class="st0" d="M17.2,27.7c2.5-2.2,4.9-5.3,7.4-7.6l-0.1,0.1c1.3-1.2,4.3-4.2,5.2-2.5
			c-0.2-0.6-0.7-1.1-1.4-1.2c-1.4-0.4-3.3,0.4-5,1.5c-3.1,1.9-7.1,7.3-9.3,7.2c0.1-0.2,0.1-0.3,0.2-0.5c0,0,0,0.1,0,0.1
			C13,27.1,15,29.1,17.2,27.7z"/>
		
			<linearGradient id="Trazado_147_1_" gradientUnits="userSpaceOnUse" x1="16.4571" y1="20.7833" x2="16.6977" y2="21.4115" gradientTransform="matrix(40.2154 0 0 -44.2206 -648.4373 950.1176)">
			<stop  offset="0" style="stop-color:#003794"/>
			<stop  offset="1" style="stop-color:#0083D4"/>
		</linearGradient>
		<path id="Trazado_147" class="st1" d="M12.4,9.2C5.5,20.6,4.5,27.3,9.3,30c2.8,1.3,5.3,0,7.8-2.3c-2.2,1.4-4.1-0.6-3.1-3
			c1.6-4,10.1-10.9,15.9-16.7c2.3-2.3,2.9-3.4,3.6-5.7C29.6,3.8,26,6,22.8,8.7L19.3,12c1,1.4,0.8,3.3-0.4,4.5
			c-1.5,1.3-3.5,2.1-5.5,2.2c-0.9,0-1.5-0.7-1.5-1.6c0,0,0,0,0,0c0.1-2.1,0.9-4,2.2-5.6c0.2-0.1,0.3-0.3,0.5-0.4
			c0.6-0.4,0.5-0.2,1.2-0.3c3.1-0.4,5.7-5.8,5.6-7.6l0,0L17.9,8c-0.1,0.2-0.4,0.2-0.6,0.1c-0.2-0.1-0.2-0.4-0.1-0.6
			c0.5-0.7,2.8-4,3.1-5C19.2,3.3,17,6.3,16.5,7c-0.1,0.2-0.4,0.2-0.6,0.1c0,0,0,0,0,0c-0.2-0.1-0.2-0.4-0.1-0.6
			c0.6-0.8,2.8-3.8,3.1-5.1c-1.4,1.4-2.7,3-3.8,4.6c-0.1,0.2-0.4,0.2-0.6,0.1c0,0,0,0,0,0c-0.2-0.1-0.2-0.4-0.1-0.6l3.5-4.8l0,0
			c-2,0.9-6.5,5.2-5.4,8.2L12.4,9.2z"/>
		
			<linearGradient id="Trazado_148_1_" gradientUnits="userSpaceOnUse" x1="35.5397" y1="-5.2744" x2="35.2067" y2="-4.7506" gradientTransform="matrix(10.926 0 0 -10.6602 -358.0673 -32.3005)">
			<stop  offset="0" style="stop-color:#003794"/>
			<stop  offset="1" style="stop-color:#0083D4"/>
		</linearGradient>
		<path id="Trazado_148" class="st2" d="M29.6,17.7c-0.9-1.7-3.9,1.3-5.2,2.5c0.1-0.1,0.2-0.2,0.4-0.3c1-1,2.4-0.9,2.2,0.6
			c-0.4,3.6,1.5,4.6,3.4,3.4c0.5-0.4,1-0.9,1.4-1.5c-0.1,0.1-0.1,0.1-0.2,0.2c-0.7,0.5-1.4,0.6-1.8,0.1v0l0,0
			c-0.2-0.3-0.3-0.6-0.3-0.9l0,0v-0.1v-0.1l0,0v0l0,0v0l0,0v0l0,0v0l0,0v0l0,0v0l0,0v0l0,0v0l0,0v0l0,0v0l0,0v0c0-0.2,0-0.4,0-0.6
			C29.5,19.9,29.9,18.6,29.6,17.7L29.6,17.7z M31.8,22.3L31.8,22.3L31.8,22.3L31.8,22.3z"/>
		
			<linearGradient id="Trazado_149_1_" gradientUnits="userSpaceOnUse" x1="54.5576" y1="-10.0643" x2="53.9557" y2="-10.7141" gradientTransform="matrix(6.28 0 0 -9.2203 -308.8 -75.9654)">
			<stop  offset="0" style="stop-color:#003794"/>
			<stop  offset="1" style="stop-color:#0083D4"/>
		</linearGradient>
		<path id="Trazado_149" class="st3" d="M33.6,16.9c-0.9,2-2.4,3.6-4.2,4.7c0,0,0,0.1,0,0.1c0,1.7,1.1,1.7,2.1,1
			C32.8,21.2,33.4,18.8,33.6,16.9z"/>
	</g>
	<text transform="matrix(1 0 0 1 -404.6687 29.4479)" class="st4 st5">Food One</text>
</g>
</svg>
