<?xml version="1.0" encoding="utf-8"?>
<!-- Generator: Adobe Illustrator 24.1.1, SVG Export Plug-In . SVG Version: 6.00 Build 0)  -->
<svg version="1.1" id="Capa_1" xmlns="http://www.w3.org/2000/svg" xmlns:xlink="http://www.w3.org/1999/xlink" x="0px" y="0px"
	 viewBox="0 0 457 256" style="enable-background:new 0 0 457 256;" xml:space="preserve">
<style type="text/css">
	.st0{fill:#09C932;}
	.st1{enable-background:new    ;}
	.st2{fill:#FA9100;}
	.st3{fill:#D10D0D;}
	.st4{fill:#FFFFFF;}
</style>
<g id="Grupo_15" transform="translate(-102.726 -1751.596)">
	<path id="Trazado_1" class="st0" d="M533.6,1766.4l-145.4-9.2c-13.3-0.8-24.8,9.3-25.6,22.6c0,0,0,0,0,0l-9.2,145.4
		c-0.8,13.3,9.3,24.8,22.6,25.6c0,0,0,0,0,0l52,3.3c10.3,16.6,31.9,44.7,61,48c0,0-11.8-26.7-13.7-44.9l46.1,2.9
		c13.3,0.8,24.8-9.3,25.6-22.6c0,0,0,0,0,0l9.2-145.4C557,1778.8,546.9,1767.3,533.6,1766.4C533.6,1766.4,533.6,1766.4,533.6,1766.4
		z"/>
	<g class="st1">
		<path class="st2" d="M152.6,1806.3c1.2,0,1.9,3.2,1.9,9.7c0,6.5-0.6,9.7-1.9,9.7h-20v12.5H146c1.2,0,1.9,2.8,1.9,8.5
			c0,5.7-0.6,8.5-1.8,8.5h-13.5v26.4c0,1-1.4,1.7-4.1,2c-2.7,0.3-5,0.5-6.8,0.5l-5.1-0.2c-3.6-0.4-5.4-1.2-5.4-2.2v-72.5
			c0-1.2,0.2-1.9,0.7-2.3c0.5-0.4,1.2-0.5,2.1-0.5H152.6z"/>
		<path class="st2" d="M195.9,1884c-10.3,0-18.6-3.4-25.1-10.1c-6.5-6.7-9.7-16.5-9.7-29.4c0-12.9,3.3-22.6,9.8-29.3
			c6.5-6.6,15-10,25.3-10c10.3,0,18.7,3.3,25,9.8c6.3,6.5,9.5,16.4,9.5,29.7c0,13.2-3.2,23.1-9.7,29.6
			C214.5,1880.8,206.2,1884,195.9,1884z M196,1826.4c-3.5,0-6.4,1.6-8.8,4.8c-2.4,3.2-3.6,7.7-3.6,13.5c0,5.8,1.1,10.3,3.4,13.4
			c2.3,3.1,5.2,4.7,8.9,4.7c3.7,0,6.7-1.6,9-4.7c2.3-3.1,3.4-7.6,3.4-13.5c0-5.8-1.2-10.3-3.6-13.5
			C202.4,1827.9,199.5,1826.4,196,1826.4z"/>
		<path class="st2" d="M272.1,1884c-10.3,0-18.6-3.4-25.1-10.1c-6.5-6.7-9.7-16.5-9.7-29.4c0-12.9,3.3-22.6,9.8-29.3
			c6.5-6.6,15-10,25.3-10c10.3,0,18.7,3.3,25,9.8c6.3,6.5,9.5,16.4,9.5,29.7c0,13.2-3.2,23.1-9.7,29.6
			C290.7,1880.8,282.3,1884,272.1,1884z M272.2,1826.4c-3.5,0-6.4,1.6-8.8,4.8c-2.4,3.2-3.6,7.7-3.6,13.5c0,5.8,1.1,10.3,3.4,13.4
			c2.3,3.1,5.2,4.7,8.9,4.7c3.7,0,6.7-1.6,9-4.7c2.3-3.1,3.4-7.6,3.4-13.5c0-5.8-1.2-10.3-3.6-13.5
			C278.6,1827.9,275.7,1826.4,272.2,1826.4z"/>
		<path class="st2" d="M315.7,1877.9v-65.7c0-1.8,0.5-3.3,1.4-4.3c0.9-1.1,2.1-1.6,3.6-1.6h18.3c11.6,0,20.4,2.9,26.4,8.8
			c6,5.8,9,15,9,27.6c0,26.9-11.5,40.3-34.4,40.3h-18.7C317.6,1882.9,315.7,1881.3,315.7,1877.9z M336.7,1827.1v32.7
			c0,1.5,0.1,2.5,0.3,2.9c0.2,0.4,0.9,0.6,2,0.6c4,0,7.1-1.5,9.1-4.5c2.1-3,3.1-8,3.1-14.9c0-7-1.1-11.5-3.2-13.6
			c-2.2-2.1-5.6-3.2-10.2-3.2H336.7z"/>
	</g>
	<path id="Rectángulo_1" class="st3" d="M217.7,1890.3h164.2c5.7,0,10.3,4.6,10.3,10.3v51.8c0,5.7-4.6,10.3-10.3,10.3H217.7
		c-5.7,0-10.3-4.6-10.3-10.3v-51.8C207.4,1894.9,212,1890.3,217.7,1890.3z"/>
	<g id="Grupo_1" transform="translate(227.532 1896.166)">
		<path id="Trazado_2" class="st4" d="M14.3,45.8h19.2c0.7,0,1.4,0,2.1,0.1c0.5,0.1,1,0.3,1.5,0.5c0.6,0.3,1,0.9,1.2,1.6
			c0.3,1,0.4,2,0.4,3c0,1-0.1,2-0.4,3c-0.2,0.7-0.6,1.3-1.2,1.6c-0.5,0.3-1,0.5-1.6,0.6c-0.7,0.1-1.4,0.1-2,0.1H8c-1,0-2-0.1-3-0.4
			c-0.7-0.2-1.3-0.5-1.8-0.8c-0.5-0.4-0.8-0.9-1-1.4C2,53.1,1.8,52.5,1.8,52c0-0.4,0-1.1,0-2V10.7c0-0.8,0-1.6,0.1-2.4
			C2,7.6,2.2,6.9,2.5,6.4c0.4-0.7,1.1-1.3,1.9-1.5C5.6,4.6,6.8,4.4,8,4.5c1,0,2,0.1,3,0.4c0.7,0.2,1.3,0.5,1.8,0.8
			c0.5,0.4,0.8,0.9,1,1.4c0.2,0.5,0.3,1.1,0.4,1.6c0,0.4,0,1.1,0,2L14.3,45.8z"/>
		<path id="Trazado_3" class="st4" d="M67.5,3.8c6.8-0.1,13.4,2.7,18.2,7.6c5.1,5,7.7,11.4,7.7,19.1c0.1,7-2.5,13.7-7.3,18.7
			c-4.5,5.1-11.1,8-17.9,7.9c-7,0.1-13.7-2.7-18.5-7.8c-4.9-4.9-7.6-11.6-7.5-18.5c0-3.8,0.7-7.5,2.1-11c1.3-3.2,3.2-6.1,5.7-8.6
			c2.3-2.3,5.1-4.1,8.1-5.4C61,4.5,64.3,3.8,67.5,3.8z M67.7,44.6c3.4,0,6.7-1.4,9.1-3.8c2.7-2.5,4-6,4-10.3
			c0.2-3.8-1.3-7.6-4.1-10.2c-4.7-5-12.6-5.2-17.6-0.5c-0.2,0.2-0.3,0.3-0.5,0.5c-2.7,2.7-4.2,6.4-4,10.3c-0.1,3.8,1.3,7.5,4.1,10.1
			C61.1,43.1,64.3,44.5,67.7,44.6L67.7,44.6z"/>
		<path id="Trazado_4" class="st4" d="M125,25h12.4c1,0,2.1,0.2,3.1,0.5c0.7,0.2,1.3,0.7,1.6,1.4c0.3,0.5,0.5,1.1,0.6,1.7
			c0.1,0.8,0.1,1.5,0.1,2.3v15.5c-0.1,1.6-0.8,3.2-2,4.3c-1.3,1.3-2.8,2.5-4.4,3.3c-4.2,2-8.8,2.9-13.4,2.8
			c-6.9,0-13.6-2.9-18.3-7.9c-5.1-5.1-7.9-12.1-7.8-19.4c-0.1-7,2.7-13.8,7.9-18.5c5-4.9,11.7-7.6,18.6-7.5c4.9,0,9.7,1.4,13.8,4.1
			c0.9,0.6,1.6,1.1,2,1.4c0.5,0.4,0.9,0.9,1.3,1.4c0.4,0.5,0.6,1.2,0.6,1.9c-0.1,1.4-0.7,2.8-1.6,3.9c-1.8,2.5-3.5,3.7-5,3.7
			c-1.4-0.2-2.7-0.8-3.7-1.6c-5.4-3.5-12.5-2.9-17.2,1.5c-2.8,2.5-4.3,6.2-4.2,9.9c-0.1,3.9,1.5,7.6,4.2,10.4c2.5,2.7,6,4.2,9.6,4.3
			c2.4,0,4.8-0.4,7-1.3v-7.7h-5.6c-0.6,0-1.3,0-1.9-0.1c-0.5-0.1-0.9-0.3-1.3-0.6c-0.5-0.4-0.9-0.9-1-1.6c-0.2-1-0.3-2-0.3-3
			c0-1,0.1-2,0.3-3c0.1-0.7,0.6-1.2,1.2-1.6c0.5-0.2,0.9-0.4,1.4-0.5C123.7,25,124.3,25,125,25z"/>
	</g>
	<path id="Trazado_5" class="st4" d="M525.3,1846.3c-11-11.2-25.8-12.7-31.8-12.8v-31.5H390.3v19.2h-8.5c-2.6,0-4.6,2.1-4.6,4.7
		c0,2.5,2.1,4.5,4.6,4.6h8.5v12.3h-14.6c-2.6,0-4.6,2-4.7,4.6c0,2.6,2,4.6,4.6,4.7c0,0,0.1,0,0.1,0h14.6v12.3h-6.9
		c-2.6,0-4.6,2.1-4.6,4.6c0,2.5,2.1,4.6,4.6,4.6h6.9v19.2h16.2c0,11.1,9,20,20,20c11.1,0,20-9,20-20h32.6l12,0.2
		c0.1,11,9.1,19.9,20.2,19.8c10.7-0.1,19.4-8.6,19.8-19.3l5.8,0.1l0.4-4.3C539,1870.5,534.9,1856,525.3,1846.3z M426.5,1903.5
		c-5.6,0-10.3-4.4-10.7-10h21.5C436.9,1899.1,432.2,1903.5,426.5,1903.5z M511.2,1903.5c-5.6,0-10.3-4.4-10.7-10H522
		C521.6,1899.1,516.9,1903.5,511.2,1903.5L511.2,1903.5z M518.8,1852.8c6.9,7.1,10.1,17.6,9.7,31.4l-34.9-0.5v-41
		C498.2,1842.8,510.3,1844.1,518.8,1852.8L518.8,1852.8z M399.6,1883.5v-10h47c2.6,0,4.6-2.1,4.6-4.6c0-2.5-2.1-4.6-4.6-4.6h-47
		v-12.3h31.6c2.6,0,4.6-2.1,4.6-4.7c0-2.5-2.1-4.5-4.6-4.6h-31.6v-12.3h48.5c2.6,0,4.6-2.1,4.6-4.7c0-2.5-2.1-4.5-4.6-4.6h-48.5v-10
		h84.7v72.4H399.6z"/>
</g>
</svg>
