<?xml version="1.0" encoding="utf-8"?>
<!-- Generator: Adobe Illustrator 24.1.2, SVG Export Plug-In . SVG Version: 6.00 Build 0)  -->
<svg version="1.1" id="Capa_1" xmlns="http://www.w3.org/2000/svg" xmlns:xlink="http://www.w3.org/1999/xlink" x="0px" y="0px"
	 viewBox="0 0 40 40" style="enable-background:new 0 0 40 40;" xml:space="preserve">
<style type="text/css">
	.st0{fill:#FA9100;}
	.st1{fill:#585858;}
</style>
<g id="Grupo_285" transform="translate(-312 928.695)">
	<path id="Trazado_44" class="st0" d="M350.4-905c0-1.3-0.4-2.6-1.1-3.6c0-0.1-0.1-0.2-0.2-0.2c-1.2-1.6-3-2.6-5-2.6h-0.8l-5.3-5.1
		c-1.1-1-2.5-1.6-4-1.6h-17.4c-1.7,0-3.1,1.4-3.1,3.2v9.4c0,0.1,0,0.2,0,0.3c0,0.1,0,0.2,0,0.3c0.2,1.6,1.6,2.8,3.2,2.8h0
		c0.5,2.1,2.6,3.4,4.7,3c1.5-0.3,2.6-1.5,3-3h16c0.5,2.1,2.6,3.4,4.7,3c1.5-0.3,2.6-1.5,3-3C349.5-902.6,350.4-903.7,350.4-905
		L350.4-905z M320.7-900.4c-1.6,0-2.9-1.2-3-2.8c0-1.6,1.2-2.9,2.8-3c1.6,0,2.9,1.2,3,2.8c0,0,0,0.1,0,0.1
		C323.5-901.7,322.3-900.5,320.7-900.4z M344.4-900.4c-1.6,0-2.9-1.2-3-2.8c0-1.6,1.2-2.9,2.8-3c1.6,0,2.9,1.2,3,2.8
		c0,0,0,0.1,0,0.1C347.2-901.7,346-900.5,344.4-900.4z M348.4-903.6c-0.1-2.2-2-3.9-4.2-3.8c-2.1,0.1-3.7,1.8-3.8,3.9h-15.7
		c0-2.2-1.9-3.9-4-3.9c-2.1,0-3.8,1.8-3.9,3.9c-0.8,0-1.5-0.5-1.8-1.2h0.5c0.3,0,0.6-0.3,0.6-0.6c0-0.3-0.3-0.6-0.6-0.6h-0.7v-9.1
		c0-1,0.8-1.9,1.9-1.9h17.4c1.2,0,2.3,0.5,3.2,1.3l5.4,5.3c0.1,0.1,0.3,0.2,0.4,0.2h1c1.2,0,2.4,0.4,3.3,1.2c-0.3,0-0.6,0.3-0.6,0.7
		c0,0.3,0.3,0.5,0.6,0.6h1c0.5,0.8,0.8,1.8,0.8,2.8C349.2-904.4,348.9-903.9,348.4-903.6L348.4-903.6z"/>
	<path id="Trazado_45" class="st0" d="M339.3-907.8h-14.1c-0.3,0-0.6,0.3-0.6,0.6c0,0.3,0.3,0.6,0.6,0.6h14.1c0.3,0,0.6-0.3,0.6-0.6
		C339.9-907.5,339.7-907.8,339.3-907.8z"/>
	<path id="Trazado_46" class="st1" d="M330.7-910.2v-5.5c0-0.3-0.3-0.6-0.6-0.6c0,0,0,0,0,0h-13.5c-0.3,0-0.6,0.3-0.6,0.6v5.5
		c0,0.3,0.3,0.6,0.6,0.6c0,0,0,0,0,0h13.5C330.4-909.6,330.7-909.9,330.7-910.2z M329.5-910.8h-12.2v-4.3h12.2L329.5-910.8z"/>
	<path id="Trazado_47" class="st1" d="M336.6-915.2c-0.8-0.8-1.9-1.2-3-1.2h-1.8c-0.3,0-0.6,0.3-0.6,0.6v5.5c0,0.3,0.3,0.6,0.6,0.6
		c0,0,0,0,0,0h9.1c0.3,0,0.6-0.3,0.6-0.6c0-0.2-0.1-0.3-0.2-0.4L336.6-915.2z M332.4-910.8v-4.3h1.2c0.8,0,1.6,0.3,2.1,0.8l3.7,3.4
		H332.4z"/>
	<path id="Trazado_48" class="st1" d="M321-905.4c-1.2,0-2.1,0.9-2.1,2.1c0,1.2,0.9,2.1,2.1,2.1s2.1-0.9,2.1-2.1
		C323-904.5,322.1-905.4,321-905.4z M321-902.4c-0.5,0-0.9-0.4-0.9-0.9c0-0.5,0.4-0.9,0.9-0.9c0.5,0,0.9,0.4,0.9,0.9v0
		C321.8-902.8,321.4-902.4,321-902.4z"/>
	<path id="Trazado_49" class="st1" d="M344.2-905.4c-1.2,0-2.1,0.9-2.1,2.1c0,1.2,0.9,2.1,2.1,2.1s2.1-0.9,2.1-2.1
		C346.3-904.5,345.4-905.4,344.2-905.4z M344.2-902.4c-0.5,0-0.9-0.4-0.9-0.9c0-0.5,0.4-0.9,0.9-0.9c0.5,0,0.9,0.4,0.9,0.9v0
		C345.1-902.8,344.7-902.4,344.2-902.4z"/>
</g>
</svg>
