<?xml version="1.0" encoding="utf-8"?>
<!-- Generator: Adobe Illustrator 24.1.2, SVG Export Plug-In . SVG Version: 6.00 Build 0)  -->
<svg version="1.1" id="Capa_1" xmlns="http://www.w3.org/2000/svg" xmlns:xlink="http://www.w3.org/1999/xlink" x="0px" y="0px"
	 viewBox="0 0 40 40" style="enable-background:new 0 0 40 40;" xml:space="preserve">
<style type="text/css">
	.st0{fill:#595959;}
	.st1{fill:#D01317;}
</style>
<g>
	<path class="st0" d="M7.4,36c-2.2,0-3.9-1.8-3.9-3.9s1.8-3.9,3.9-3.9c2.2,0,3.9,1.8,3.9,3.9S9.5,36,7.4,36z M7.4,29.6
		c-1.4,0-2.5,1.1-2.5,2.5c0,1.4,1.1,2.5,2.5,2.5c1.4,0,2.5-1.1,2.5-2.5C9.8,30.7,8.7,29.6,7.4,29.6z"/>
	<path class="st0" d="M31.1,36c-2.2,0-3.9-1.8-3.9-3.9s1.8-3.9,3.9-3.9s3.9,1.8,3.9,3.9S33.3,36,31.1,36z M31.1,29.6
		c-1.4,0-2.5,1.1-2.5,2.5c0,1.4,1.1,2.5,2.5,2.5c1.4,0,2.5-1.1,2.5-2.5C33.6,30.7,32.5,29.6,31.1,29.6z"/>
	<path class="st0" d="M9.1,17l-1.1-0.7c0.4-0.6,0.8-1.1,1.3-1.6l1,0.9C9.9,16,9.5,16.5,9.1,17z"/>
	<path class="st0" d="M11.1,14.7l-0.9-0.9c2.7-2.5,6.1-3.9,9.8-3.9l0,1.3C16.7,11.2,13.5,12.4,11.1,14.7z"/>
	<path class="st1" d="M35,29.4H5c-2.5,0-4.6-2-4.6-4.6c0-0.4,0.3-0.7,0.7-0.7h37.7c0.4,0,0.7,0.3,0.7,0.7
		C39.5,27.3,37.5,29.4,35,29.4z M1.9,25.5c0.3,1.5,1.6,2.6,3.2,2.6H35c1.6,0,2.9-1.1,3.2-2.6H1.9z"/>
	<path class="st1" d="M36.3,25.5H3.7c-0.4,0-0.7-0.3-0.7-0.7v-0.7c0-9.3,7.6-16.9,16.9-16.9c9.3,0,16.9,7.6,16.9,16.9v0.7
		C36.9,25.2,36.6,25.5,36.3,25.5z M4.4,24.2h31.2c0-8.6-7-15.6-15.6-15.6S4.4,15.6,4.4,24.2z"/>
	<rect x="18" y="4" class="st1" width="3.9" height="1.3"/>
	<rect x="19.3" y="4.7" class="st1" width="1.3" height="3.3"/>
</g>
</svg>
