<?xml version="1.0" encoding="utf-8"?>
<!-- Generator: Adobe Illustrator 24.1.2, SVG Export Plug-In . SVG Version: 6.00 Build 0)  -->
<svg version="1.1" id="Capa_1" xmlns="http://www.w3.org/2000/svg" xmlns:xlink="http://www.w3.org/1999/xlink" x="0px" y="0px"
	 viewBox="0 0 40 40" style="enable-background:new 0 0 40 40;" xml:space="preserve">
<style type="text/css">
	.st0{fill:#FFFFFF;}
</style>
<g>
	<path class="st0" d="M28,6.8c0-1.6-1.3-2.8-2.8-2.8c-1.6,0-2.8,1.3-2.8,2.8c0,1.6,1.3,2.8,2.8,2.8C26.7,9.6,28,8.3,28,6.8L28,6.8z
		 M23.8,6.8c0-0.7,0.6-1.3,1.3-1.3c0.7,0,1.3,0.6,1.3,1.3c0,0.7-0.6,1.3-1.3,1.3C24.4,8.1,23.8,7.5,23.8,6.8L23.8,6.8z M23.8,6.8"/>
	<path class="st0" d="M25.7,22.9c-0.3,0.3-0.3,0.8,0,1.1c0.3,0.3,0.8,0.3,1.1,0c0.3-0.3,0.3-0.7,0-1C26.5,22.6,26,22.6,25.7,22.9
		C25.5,23.1,25.8,22.8,25.7,22.9L25.7,22.9z M25.7,22.9"/>
	<path class="st0" d="M19,24.2h4.2c1,0,1-1.5,0-1.5H19c-2,0-3.7-1.6-3.7-3.7c0-2,1.6-3.7,3.7-3.7h6.2c0.2,0,0.5-0.1,0.6-0.3
		c0,0,0,0,0,0c1.1-0.9,2.1-1.7,3-2.8c0.9-1,1.6-2.2,2-3.6c0.3-1.4,0.1-2.9-0.4-4.2c-0.4-1.1-1.1-2-2.1-2.7c-1.1-0.7-2.4-1-3.7-0.8
		c-1.6,0.2-3.1,1.1-4,2.4c-0.9,1.3-1.3,3-1.1,4.6c0.2,1.5,1,2.9,1.9,4c0.5,0.7,1.2,1.3,1.8,1.8H19c-2.8,0-5.2,2.3-5.2,5.2
		C13.8,21.9,16.2,24.2,19,24.2z M21.1,8.6c-0.5-1.8,0.1-4,1.5-5.2c0.7-0.6,1.7-0.9,2.6-0.9c0.9,0,1.8,0.3,2.6,0.9l0,0
		c1.4,1.2,2.1,3.6,1.4,5.4c-0.7,2-2.4,3.5-4,4.8C23.4,12.2,21.7,10.5,21.1,8.6z"/>
	<path class="st0" d="M31.9,22.7h-2.7c-1,0-1,1.5,0,1.5h2.7c2.2,0,4,1.8,4,4s-1.8,4-4,4h-7c-0.3-1.6-1.7-2.8-3.4-2.8h-1.3l-0.7-0.7
		c-1.7-1.8-4.1-2.9-6.6-2.9H8.4c-0.8,0-1.4,0.6-1.4,1.4v2.2H6.1c-1.9,0-3.5,1.6-3.5,3.5c0,1.6,1.1,2.9,2.5,3.4
		C5.4,37.9,6.7,39,8.3,39c1.5,0,2.8-1,3.1-2.5h4.9c0.3,1.4,1.6,2.5,3.1,2.5c1.6,0,2.9-1.1,3.2-2.6c1.2-0.4,2-1.4,2.3-2.6h7
		c3.1,0,5.5-2.5,5.5-5.5C37.4,25.2,34.9,22.7,31.9,22.7z M8.5,27.4h4.4c1.9,0,3.8,0.8,5.2,2.1H8.5V27.4z M8.3,37.5
		c-0.9,0-1.7-0.8-1.7-1.7c0-0.9,0.8-1.7,1.7-1.7c0.9,0,1.7,0.8,1.7,1.7C10,36.7,9.2,37.5,8.3,37.5z M19.4,37.5
		c-0.9,0-1.7-0.8-1.7-1.7c0-0.9,0.8-1.7,1.7-1.7c0.9,0,1.7,0.8,1.7,1.7C21.1,36.7,20.4,37.5,19.4,37.5z M22.5,34.8
		c-0.4-1.3-1.6-2.2-3-2.2c-1.5,0-2.8,1-3.1,2.5h-4.9c-0.3-1.4-1.6-2.5-3.1-2.5c-1.4,0-2.7,0.9-3.1,2.2c-0.7-0.3-1.1-1-1.1-1.8
		c0-1.1,0.9-2,2-2h1.7l12.1,0c0,0,0,0,0,0h1.6c1.1,0,2,0.9,2,2C23.5,33.8,23.1,34.4,22.5,34.8z"/>
	<path class="st0" d="M19.4,35.1c-0.4,0-0.7,0.3-0.7,0.7c0,0.4,0.3,0.7,0.7,0.7c0.4,0,0.7-0.3,0.7-0.7
		C20.2,35.4,19.8,35.1,19.4,35.1z"/>
	<path class="st0" d="M8.3,35.1c-0.4,0-0.7,0.3-0.7,0.7c0,0.4,0.3,0.7,0.7,0.7c0.4,0,0.7-0.3,0.7-0.7C9,35.4,8.7,35.1,8.3,35.1z"/>
</g>
</svg>
