<?xml version="1.0" encoding="utf-8"?>
<!-- Generator: Adobe Illustrator 24.1.2, SVG Export Plug-In . SVG Version: 6.00 Build 0)  -->
<svg version="1.1" id="Capa_1" xmlns="http://www.w3.org/2000/svg" xmlns:xlink="http://www.w3.org/1999/xlink" x="0px" y="0px"
	 viewBox="0 0 40 40" style="enable-background:new 0 0 40 40;" xml:space="preserve">
<style type="text/css">
	.st0{fill-rule:evenodd;clip-rule:evenodd;fill:#27AAE1;}
	.st1{fill-rule:evenodd;clip-rule:evenodd;fill:#39B54A;}
	.st2{fill-rule:evenodd;clip-rule:evenodd;fill:#F15A29;}
	.st3{enable-background:new    ;}
	.st4{fill:#27AAE1;}
</style>
<g>
	<g id="Grupo_154" transform="translate(-1536.048 1200)">
		<g id="Trazado_181">
			<path class="st0" d="M1543.4-1181.7c0.3,0,0.6,0.3,0.6,0.6l0,0c0,0.3-0.3,0.6-0.6,0.6c0,0,0,0,0,0c-0.3,0-0.6-0.3-0.6-0.6
				c0,0,0,0,0,0C1542.8-1181.5,1543.1-1181.7,1543.4-1181.7C1543.4-1181.7,1543.4-1181.7,1543.4-1181.7"/>
		</g>
		<g id="Trazado_182">
			<path class="st1" d="M1544.1-1193c0.7,0,1.2,0.6,1.2,1.2c0,0.7-0.6,1.2-1.2,1.2c-0.7,0-1.2-0.6-1.2-1.2
				C1542.9-1192.5,1543.4-1193,1544.1-1193z"/>
		</g>
		<g id="Trazado_183">
			<path class="st0" d="M1546.5-1182.4c0.7,0,1.2,0.6,1.2,1.2s-0.6,1.2-1.2,1.2c-0.7,0-1.2-0.6-1.2-1.2
				C1545.3-1181.8,1545.8-1182.4,1546.5-1182.4z"/>
		</g>
		<g id="Trazado_184">
			<path class="st1" d="M1548.1-1178.1c0.7,0,1.2,0.6,1.2,1.2c0,0.7-0.6,1.2-1.2,1.2s-1.2-0.6-1.2-1.2
				C1546.9-1177.6,1547.4-1178.1,1548.1-1178.1z"/>
		</g>
		<g id="Trazado_185">
			<path class="st1" d="M1552.2-1178.4h7.3c7.8,0,5.6-6.1,2.7-6.5c2.8-2.1,0.9-5.7-2.7-5.7h-11.8c-0.7,0-1.3-0.6-1.3-1.4
				c0-0.7,0.6-1.3,1.3-1.3c3.9,0,7.9,0,11.8,0c4.9,0,8.8,3.9,8.8,8.8l0,0c0,4.8-3.9,8.8-8.8,8.8h-7.3c-0.7,0-1.3-0.6-1.3-1.3
				C1550.8-1177.8,1551.4-1178.4,1552.2-1178.4z"/>
		</g>
		<g id="Trazado_186">
			<path class="st0" d="M1556.3-1181.4c0.1-0.9,0.9-1.5,2-1.7c-0.9-0.2-1.7,0.3-1.9,1.2C1556.2-1181.7,1556.2-1181.5,1556.3-1181.4
				 M1556.2-1182.4c1.1-1.8,5.5-1.2,6.5-0.5h0l-3.9,0.1c-0.1,0-0.3,0.1-0.2,0.3c0,0.1,0.1,0.3,0.3,0.3c1.3,0,2.6,0,3.9,0.2
				c-1.3,0.2-2.6,0.4-3.9,0.4c-0.1,0-0.3,0.1-0.2,0.3c0,0.1,0.1,0.3,0.3,0.3c0.6,0,3.1-0.1,3.9,0.2c-1.3,0.2-2.6,0.3-4,0.4
				c-0.1,0-0.3,0.1-0.2,0.3c0,0.1,0.1,0.3,0.3,0.3l4-0.1h0c-1.3,0.8-5.4,1.6-6.5-0.2v0h-6.5c-1.7,0-1.6-2.1,0.1-2.1L1556.2-1182.4z"
				/>
		</g>
		<g id="Trazado_187">
			<path class="st2" d="M1556.4-1185.7c-0.7-0.7-0.4-2.4,0.3-2.9c0.9-0.6,1.6-0.4,2.8-0.2c-0.5-0.2-1.1-0.4-1.7-0.4
				c-2.9,0-2.9,4.4,0,4.4c0.7,0,1.3-0.2,1.9-0.5C1557.9-1184.9,1556.8-1185.3,1556.4-1185.7 M1555.3-1188.1c0.4-0.9,1.4-1.5,2.4-1.5
				c1.4,0.1,2.7,0.6,3.8,1.4c0.9,0.7,0.8,1.5-0.1,2.2c-1.1,0.8-2.3,1.3-3.7,1.5c-1,0-1.9-0.6-2.4-1.5c0,0-8.7,0-9.6,0
				c-1.4,0-1.2-2.1,0.1-2.1L1555.3-1188.1z"/>
		</g>
	</g>
	<g class="st3">
		<path class="st4" d="M6.4,32.4c-0.1,0.2-0.2,0.4-0.3,0.5s-0.4,0.2-0.8,0.3c-0.4,0.1-0.9,0.1-1.3,0.1c-0.7,0-1.1-0.3-1.1-0.8
			c0-0.1,0-0.4,0.1-0.8l0.7-3.4c0-0.2,0.1-0.3,0.1-0.4c0-0.1,0-0.2-0.1-0.2c0.3-0.1,0.5-0.2,0.6-0.2c0.1,0,0.2,0.1,0.2,0.2
			c0,0,0,0.2-0.1,0.6l-0.6,3c-0.1,0.4-0.1,0.7-0.1,0.9c0,0.3,0.3,0.4,1,0.4C5.2,32.8,5.8,32.7,6.4,32.4z"/>
		<path class="st4" d="M10,31.1c-0.3,0.6-0.7,1.1-1.1,1.6s-0.8,0.6-1.1,0.6c-0.2,0-0.4-0.1-0.6-0.3c-0.1-0.2-0.2-0.5-0.2-0.9
			c0-0.7,0.2-1.4,0.7-1.9c0.4-0.5,0.9-0.8,1.5-0.8c0.3,0,0.7,0.1,1.1,0.3c0.1-0.2,0.3-0.3,0.7-0.3c0,0,0.1,0,0.1,0
			c-0.1,0.2-0.2,0.5-0.3,0.8l-0.1,0.3c-0.1,0.3-0.1,0.7-0.1,1.1c0,0.5,0.1,0.8,0.4,0.8c0.2,0,0.6-0.2,1-0.6c0.4-0.4,0.9-0.9,1.3-1.6
			l0.3,0.2c-0.4,0.8-0.9,1.4-1.5,1.9c-0.5,0.5-1,0.8-1.4,0.8c-0.5,0-0.7-0.4-0.7-1.2C9.9,31.6,9.9,31.4,10,31.1z M10.1,30.3
			c-0.5-0.3-0.9-0.5-1.2-0.5c-0.3,0-0.6,0.2-0.9,0.6c-0.3,0.4-0.4,0.9-0.4,1.5c0,0.5,0.2,0.7,0.5,0.7c0.3,0,1-0.7,1.9-2.2
			C10,30.4,10,30.4,10.1,30.3z"/>
		<path class="st4" d="M17.6,28.6l-0.8,3.9c0,0.2-0.1,0.4-0.1,0.4c0,0.1,0,0.1,0,0.2c-0.2,0.1-0.4,0.2-0.6,0.2c-0.1,0-0.2,0-0.2-0.1
			c0,0,0-0.2,0.1-0.4l0.8-4.1h-0.5c-0.5,0-1,0.1-1.4,0.2c0.1-0.3,0.2-0.5,0.3-0.6c0.1-0.1,0.4-0.1,0.8-0.1h2.3c0.6,0,1-0.2,1.2-0.7
			c0.1,0.1,0.1,0.2,0.1,0.3c0,0.3-0.2,0.5-0.6,0.7c-0.2,0.1-0.6,0.2-1.3,0.2H17.6z"/>
		<path class="st4" d="M23.4,30.6c0,0.1,0,0.1,0,0.1c0,0.7-0.2,1.2-0.7,1.7c-0.5,0.5-1,0.7-1.6,0.7c-0.5,0-0.8-0.1-1.1-0.4
			c-0.3-0.3-0.4-0.7-0.4-1.1c0-0.5,0.2-1,0.6-1.4c0.4-0.4,0.8-0.6,1.3-0.6c0.1,0,0.2,0,0.2,0c-0.1-0.1-0.1-0.2-0.1-0.3
			c0-0.1,0-0.2,0.1-0.3c0.6,0,1,0.3,1.4,0.9c0.4,0.3,0.8,0.4,1.2,0.4c0.3,0,0.6-0.1,0.9-0.3l0.2,0.3c-0.4,0.3-0.7,0.4-1.1,0.4
			C24,30.8,23.7,30.8,23.4,30.6z M22.6,30.4c-0.2-0.1-0.4-0.1-0.5-0.3c-0.1,0-0.2,0-0.3,0c-0.4,0-0.7,0.2-1,0.5
			c-0.3,0.4-0.5,0.8-0.5,1.2c0,0.3,0.1,0.6,0.3,0.8s0.4,0.3,0.7,0.3c0.4,0,0.7-0.2,1-0.6s0.4-0.9,0.4-1.4
			C22.7,30.7,22.6,30.5,22.6,30.4z"/>
		<path class="st4" d="M25.2,33.2c-0.2,0.1-0.3,0.1-0.4,0.1c-0.2,0-0.4-0.1-0.4-0.3c0-0.1,0-0.4,0.1-0.8l0.2-0.9
			c0.1-0.5,0.2-0.9,0.2-1.1c0-0.1,0-0.2-0.1-0.3c0.2-0.1,0.4-0.1,0.6-0.1c0.2,0,0.2,0.1,0.2,0.3c0,0.1-0.1,0.5-0.2,1l-0.2,1
			c0.4-0.8,0.9-1.5,1.3-2c0.4-0.5,0.8-0.7,1.2-0.7c0.1,0,0.2,0,0.3,0.1s0.1,0.2,0.1,0.3c0,0.2-0.2,0.4-0.5,0.6
			c-0.1-0.2-0.2-0.3-0.4-0.3c-0.3,0-0.7,0.3-1.1,0.9c-0.3,0.4-0.5,0.8-0.7,1.2C25.3,32.6,25.2,32.9,25.2,33.2L25.2,33.2z"/>
		<path class="st4" d="M29.1,33.2c-0.2,0.1-0.3,0.1-0.4,0.1c-0.2,0-0.4-0.1-0.4-0.3c0-0.1,0-0.4,0.1-0.8l0.2-0.9
			c0.1-0.5,0.2-0.9,0.2-1.1c0-0.1,0-0.2-0.1-0.3c0.2-0.1,0.4-0.1,0.6-0.1c0.2,0,0.2,0.1,0.2,0.3c0,0.1-0.1,0.5-0.2,1l-0.2,1
			c0.4-0.8,0.9-1.5,1.3-2c0.4-0.5,0.8-0.7,1.2-0.7c0.1,0,0.2,0,0.3,0.1s0.1,0.2,0.1,0.3c0,0.2-0.2,0.4-0.5,0.6
			c-0.1-0.2-0.2-0.3-0.4-0.3c-0.3,0-0.7,0.3-1.1,0.9c-0.3,0.4-0.5,0.8-0.7,1.2C29.2,32.6,29.1,32.9,29.1,33.2L29.1,33.2z"/>
		<path class="st4" d="M32.7,31.8c0,0.7,0.3,1,0.9,1c0.5,0,1-0.2,1.6-0.7c0.6-0.5,1.1-1.1,1.6-1.9l0.3,0.2c-0.5,0.8-1,1.5-1.8,2.1
			c-0.7,0.6-1.4,0.8-2.1,0.8c-0.4,0-0.7-0.1-1-0.4c-0.2-0.3-0.4-0.6-0.4-1.1c0-0.7,0.2-1.2,0.7-1.7s1-0.7,1.6-0.7
			c0.3,0,0.5,0.1,0.7,0.2c0.2,0.1,0.3,0.3,0.3,0.6c0,0.4-0.2,0.8-0.7,1.1C33.9,31.6,33.4,31.8,32.7,31.8z M32.8,31.4
			c0.5,0,0.9-0.2,1.2-0.4s0.5-0.5,0.5-0.9c0-0.3-0.1-0.4-0.4-0.4c-0.3,0-0.6,0.2-0.9,0.5C33,30.5,32.8,30.9,32.8,31.4z"/>
	</g>
</g>
</svg>
