<?xml version="1.0" encoding="utf-8"?>
<!-- Generator: Adobe Illustrator 24.1.1, SVG Export Plug-In . SVG Version: 6.00 Build 0)  -->
<svg version="1.1" id="Capa_1" xmlns="http://www.w3.org/2000/svg" xmlns:xlink="http://www.w3.org/1999/xlink" x="0px" y="0px"
	 viewBox="0 0 300 168" style="enable-background:new 0 0 300 168;" xml:space="preserve">
<style type="text/css">
	.st0{fill:none;}
	.st1{fill:#FFFFFF;}
</style>
<g>
	<path class="st0" d="M166,126.6c-3-3.4-4.5-7.8-4.2-12.3l1.4-22.4H74c-4.4,0-8,3.6-8,8v30.7c0,4.4,3.6,8,8,8h105.8
		c3.6,0,6.6-2.4,7.6-5.6l-9.7-0.6C173.2,132,169,130,166,126.6z"/>
	<path class="st0" d="M189.5,99.9v30.7c0,0.3,0,0.5,0,0.8l23.5,1.5l0.2,0.4c6.6,10.6,20.3,28.6,38.6,31.4
		c-1.9-4.4-7.5-18.5-8.6-28.9l-0.1-1l31.8,2c8.4,0.5,15.7-5.9,16.2-14.3l6.2-97.1c0.3-4.1-1.1-8-3.8-11.1c-2.7-3.1-6.4-4.9-10.5-5.2
		L185.9,3c-0.3,0-0.7,0-1,0c-8,0-14.7,6.2-15.2,14.3l-4.6,72.9h14.7C185.1,90.2,189.5,94.5,189.5,99.9z"/>
	<path class="st0" d="M187.8,99.9c0-4.4-3.6-8-8-8H165l-1.4,22.5c-0.3,4.1,1.1,8,3.8,11.1c2.7,3.1,6.4,4.9,10.5,5.2l9.9,0.6
		c0-0.2,0-0.4,0-0.7V99.9z"/>
	<path class="st1" d="M294.8,13.2c-3-3.4-7.1-5.4-11.7-5.7L186,1.4c-9.3-0.6-17.4,6.5-18,15.9l-4.6,73h1.7l4.6-72.9
		C170.2,9.2,177,3,185,3c0.3,0,0.7,0,1,0L283,9.2c4.1,0.3,7.8,2.1,10.5,5.2c2.7,3.1,4,7,3.8,11.1l-6.2,97.1
		c-0.5,8.4-7.8,14.8-16.2,14.3l-31.8-2l0.1,1c1.1,10.4,6.8,24.5,8.6,28.9c-18.4-2.9-32-20.8-38.6-31.4l-0.2-0.4l-23.5-1.5
		c0,0.6-0.1,1.1-0.3,1.7l22.9,1.5c7,11.2,21.5,29.9,41.1,32l1.5,0.2l-0.6-1.3c-0.1-0.2-7.4-16.9-9-28.8l29.8,1.9
		c9.3,0.6,17.4-6.5,18-15.9l6.2-97.1C299.3,21,297.8,16.7,294.8,13.2z"/>
	<path class="st1" d="M179.8,90.2h-14.7h-1.7H74c-5.3,0-9.6,4.3-9.6,9.6v30.7c0,5.3,4.3,9.6,9.6,9.6h105.8c4.5,0,8.2-3.1,9.3-7.2
		c0.1-0.5,0.2-1.1,0.3-1.7c0-0.3,0-0.5,0-0.8V99.9C189.5,94.5,185.1,90.2,179.8,90.2z M187.4,132.9c-1,3.3-4,5.6-7.6,5.6H74
		c-4.4,0-8-3.6-8-8V99.9c0-4.4,3.6-8,8-8h89.2h1.7h14.9c4.4,0,8,3.6,8,8v30.7c0,0.2,0,0.4,0,0.7
		C187.7,131.8,187.6,132.4,187.4,132.9z"/>
	<g>
		<path class="st1" d="M88.2,125.6H101c0.6,0,1.1,0,1.4,0.1c0.3,0,0.6,0.2,1,0.4c0.4,0.2,0.6,0.5,0.8,1c0.2,0.5,0.2,1.2,0.2,2
			c0,0.8-0.1,1.5-0.2,2c-0.2,0.5-0.4,0.9-0.8,1.1c-0.4,0.2-0.7,0.3-1.1,0.4c-0.3,0-0.8,0.1-1.4,0.1H84c-0.8,0-1.5-0.1-2-0.2
			c-0.5-0.2-0.9-0.3-1.2-0.6c-0.3-0.2-0.5-0.5-0.6-1c-0.1-0.4-0.2-0.8-0.2-1.1c0-0.3,0-0.7,0-1.3v-26.2c0-0.7,0-1.3,0.1-1.6
			c0-0.4,0.2-0.8,0.4-1.3c0.3-0.5,0.7-0.8,1.3-1c0.6-0.2,1.4-0.3,2.4-0.3c0.8,0,1.5,0.1,2,0.2c0.5,0.2,0.9,0.3,1.2,0.6
			c0.3,0.2,0.5,0.5,0.6,1c0.1,0.4,0.2,0.8,0.2,1.1c0,0.3,0,0.7,0,1.3V125.6z"/>
		<path class="st1" d="M123.8,97.5c4.7,0,8.7,1.7,12.1,5c3.4,3.4,5.1,7.6,5.1,12.8c0,4.8-1.6,9-4.9,12.5c-3.3,3.5-7.2,5.3-11.9,5.3
			c-4.9,0-9-1.7-12.3-5.2c-3.3-3.5-5-7.6-5-12.4c0-2.6,0.5-5.1,1.4-7.3c0.9-2.3,2.2-4.2,3.8-5.7c1.6-1.5,3.4-2.8,5.4-3.6
			C119.5,98,121.6,97.5,123.8,97.5z M123.9,124.7c2.3,0,4.3-0.8,6.1-2.5c1.8-1.7,2.7-4,2.7-6.9c0-2.8-0.9-5.1-2.7-6.8
			c-1.8-1.7-3.8-2.6-6-2.6c-2.3,0-4.3,0.9-6.1,2.6c-1.8,1.7-2.7,4-2.7,6.9c0,2.8,0.9,5,2.7,6.8C119.7,123.9,121.7,124.7,123.9,124.7
			z"/>
		<path class="st1" d="M162.1,111.7h8.3c0.8,0,1.5,0.1,2.1,0.4c0.5,0.2,0.9,0.5,1.1,0.9c0.2,0.4,0.3,0.8,0.4,1.1
			c0,0.3,0.1,0.8,0.1,1.5V126c0,1-0.4,2-1.3,2.9c-0.9,0.9-1.9,1.7-2.9,2.2c-2.5,1.3-5.5,1.9-9,1.9c-4.7,0-8.8-1.8-12.2-5.3
			c-3.5-3.5-5.2-7.9-5.2-12.9c0-4.9,1.8-9,5.3-12.4c3.5-3.3,7.7-5,12.5-5c3.3,0,6.3,0.9,9.2,2.7c0.6,0.4,1,0.7,1.3,0.9
			c0.3,0.2,0.6,0.5,0.8,0.9c0.3,0.4,0.4,0.8,0.4,1.3c0,0.7-0.4,1.6-1.1,2.6c-1.2,1.7-2.3,2.5-3.3,2.5c-0.6,0-1.4-0.4-2.5-1.1
			c-1.6-1-3.3-1.5-5.1-1.5c-2.4,0-4.5,0.8-6.4,2.5c-1.9,1.7-2.8,3.9-2.8,6.6c0,2.7,0.9,5,2.8,6.9c1.9,1.9,4,2.9,6.4,2.9
			c1.7,0,3.3-0.3,4.7-0.8v-5.1h-3.7c-0.6,0-1,0-1.3-0.1c-0.3,0-0.6-0.2-0.9-0.4c-0.3-0.2-0.6-0.5-0.7-1c-0.1-0.5-0.2-1.2-0.2-2
			c0-0.8,0.1-1.5,0.2-2c0.1-0.5,0.4-0.8,0.8-1c0.4-0.2,0.7-0.3,1-0.4C161.1,111.7,161.5,111.7,162.1,111.7z"/>
	</g>
	<path class="st0" d="M229.5,48c0,1.9-1.6,3.5-3.5,3.5h-32v7.4h20.7c1.9,0,3.5,1.6,3.5,3.5c0,1.9-1.6,3.5-3.5,3.5H194v7.4h30.9
		c1.9,0,3.5,1.6,3.5,3.5c0,1.9-1.6,3.5-3.5,3.5H194v5.8h55.7V38.6H194v5.8h32C227.9,44.5,229.5,46,229.5,48z"/>
	<path class="st0" d="M272.8,66.3c-5.3-5.4-12.8-6.4-16.2-6.6v26.5l22.5,0.3C279.4,77.7,277.3,70.9,272.8,66.3L272.8,66.3z"/>
	<path class="st0" d="M109.5,49.1c-2.4,0-4.3,1.1-5.9,3.2c-1.6,2.2-2.4,5.2-2.4,9.1c0,3.9,0.8,6.9,2.3,9c1.5,2.1,3.5,3.1,6,3.1
		c2.5,0,4.5-1.1,6-3.2c1.5-2.1,2.3-5.1,2.3-9.1c0-3.9-0.8-7-2.4-9.1C113.8,50.2,111.8,49.1,109.5,49.1z"/>
	<path class="st0" d="M211.6,99.5c3.4,0,6.3-2.5,6.7-5.8h-13.4C205.3,96.9,208.2,99.5,211.6,99.5z"/>
	<path class="st0" d="M268.1,99.5c3.4,0,6.3-2.5,6.7-5.8h-13.4C261.8,96.9,264.7,99.5,268.1,99.5z"/>
	<path class="st0" d="M153.7,49.7H153v22c0,1,0.1,1.7,0.2,2c0.1,0.3,0.6,0.4,1.3,0.4c2.7,0,4.8-1,6.2-3c1.4-2,2.1-5.4,2.1-10.1
		c0-4.7-0.7-7.8-2.2-9.2C159.1,50.4,156.8,49.7,153.7,49.7z"/>
	<path class="st0" d="M58.1,49.1c-2.4,0-4.3,1.1-5.9,3.2c-1.6,2.2-2.4,5.2-2.4,9.1c0,3.9,0.8,6.9,2.3,9c1.5,2.1,3.5,3.1,6,3.1
		c2.5,0,4.5-1.1,6-3.2c1.5-2.1,2.3-5.1,2.3-9.1c0-3.9-0.8-7-2.4-9.1C62.5,50.2,60.5,49.1,58.1,49.1z"/>
	<path class="st1" d="M28.9,35.7h-26c-0.6,0-1.1,0.1-1.4,0.4C1.2,36.3,1,36.8,1,37.6v48.8c0,0.7,1.2,1.2,3.6,1.5L8.1,88
		c1.2,0,2.8-0.1,4.6-0.3c1.8-0.2,2.8-0.7,2.8-1.4V68.5h9.1c0.8,0,1.2-1.9,1.2-5.7c0-3.8-0.4-5.7-1.3-5.7h-9v-8.4h13.5
		c0.8,0,1.3-2.2,1.3-6.5C30.2,37.8,29.8,35.7,28.9,35.7z"/>
	<path class="st1" d="M58.3,35c-7,0-12.6,2.2-17,6.7c-4.4,4.5-6.6,11-6.6,19.7c0,8.7,2.2,15.3,6.5,19.8c4.3,4.5,10,6.8,16.9,6.8
		c6.9,0,12.5-2.2,16.9-6.5c4.4-4.4,6.6-11,6.6-19.9c0-8.9-2.1-15.6-6.4-20C70.9,37.2,65.3,35,58.3,35z M64.1,70.5
		c-1.5,2.1-3.6,3.2-6,3.2c-2.5,0-4.5-1-6-3.1c-1.5-2.1-2.3-5.1-2.3-9c0-3.9,0.8-6.9,2.4-9.1c1.6-2.2,3.6-3.2,5.9-3.2
		c2.4,0,4.3,1.1,5.9,3.2c1.6,2.1,2.4,5.1,2.4,9.1C66.5,65.3,65.7,68.3,64.1,70.5z"/>
	<path class="st1" d="M109.6,35c-7,0-12.6,2.2-17,6.7c-4.4,4.5-6.6,11-6.6,19.7c0,8.7,2.2,15.3,6.5,19.8c4.3,4.5,10,6.8,16.9,6.8
		c6.9,0,12.5-2.2,16.9-6.5c4.4-4.4,6.6-11,6.6-19.9c0-8.9-2.1-15.6-6.4-20C122.2,37.2,116.6,35,109.6,35z M115.5,70.5
		c-1.5,2.1-3.6,3.2-6,3.2c-2.5,0-4.5-1-6-3.1c-1.5-2.1-2.3-5.1-2.3-9c0-3.9,0.8-6.9,2.4-9.1c1.6-2.2,3.6-3.2,5.9-3.2
		c2.4,0,4.3,1.1,5.9,3.2c1.6,2.1,2.4,5.1,2.4,9.1C117.8,65.3,117,68.3,115.5,70.5z"/>
	<path class="st1" d="M174.1,62.4c0-1.9,1.6-3.5,3.5-3.5h0.6c-0.2-7.8-2.2-13.6-6-17.3c-4.1-3.9-10-5.9-17.8-5.9h-12.3
		c-1,0-1.8,0.4-2.4,1.1c-0.6,0.7-0.9,1.7-0.9,2.9v44.2c0,2.3,1.3,3.4,3.8,3.4h12.6c13.7,0,21.3-7.1,22.8-21.4h-0.4
		C175.7,65.9,174.1,64.3,174.1,62.4z M160.7,71c-1.4,2-3.5,3-6.2,3c-0.7,0-1.2-0.1-1.3-0.4c-0.1-0.3-0.2-0.9-0.2-2v-22h0.7
		c3.1,0,5.4,0.7,6.9,2.1c1.4,1.4,2.2,4.5,2.2,9.2C162.8,65.7,162.1,69,160.7,71z"/>
	<path class="st1" d="M277.2,62c-7.2-7.4-17.1-8.4-20.9-8.4l-0.4,0V32.5h-68v12.9h-6.1c-1.5,0-2.7,1.2-2.7,2.7s1.2,2.7,2.7,2.7h6.1
		v9.1h-9.5h-0.7c-1.5,0-2.7,1.2-2.7,2.7c0,1.5,1.2,2.7,2.7,2.7h0.5h9.7v9.1h-5c-1.5,0-2.7,1.2-2.7,2.7c0,1.5,1.2,2.7,2.7,2.7h5v12.9
		h10.8v0.4c0,7.1,5.8,12.9,12.9,12.9c7.1,0,12.9-5.8,12.9-12.9v-0.4h22.2l8.4,0.1l0,0.4c0.1,7.1,5.9,12.8,12.9,12.8
		c7,0,12.7-5.5,12.9-12.5l0-0.4l3.9,0.1l0.2-2.5C286.2,78,283.5,68.4,277.2,62z M219.2,93.2c-0.3,4-3.6,7.1-7.6,7.1
		c-4,0-7.3-3.1-7.6-7.1l0-0.5h15.3L219.2,93.2z M250.5,86.9h-57.4v-7.5h31.8c1.5,0,2.7-1.2,2.7-2.7c0-1.5-1.2-2.7-2.7-2.7h-31.8V65
		h21.5c1.5,0,2.7-1.2,2.7-2.7c0-1.5-1.2-2.7-2.7-2.7h-21.5v-9.1h32.8c1.5,0,2.7-1.2,2.7-2.7s-1.2-2.7-2.7-2.7h-32.8v-7.5h57.4V86.9z
		 M275.7,93.2c-0.3,4-3.6,7.1-7.6,7.1c-4,0-7.3-3.1-7.6-7.1l0-0.5h15.3L275.7,93.2z M280,87l0,0.4l-24.1-0.3V58.8l0.4,0
		c3.2,0.1,11.4,1,17.2,6.9C278.1,70.5,280.3,77.7,280,87z"/>
	<path class="st0" d="M256.3,59.3v27.4l23.3,0.3c0.3-9.2-1.8-16.3-6.4-21C267.5,60.2,259.4,59.4,256.3,59.3z M256.7,86.2V59.7
		c3.4,0.2,10.8,1.2,16.2,6.6h0c4.4,4.6,6.6,11.4,6.3,20.3L256.7,86.2z"/>
	<path class="st0" d="M268.1,99.9c3.8,0,6.9-3,7.2-6.7h-14.4C261.2,96.9,264.3,99.9,268.1,99.9z M274.8,93.6
		c-0.5,3.3-3.3,5.8-6.7,5.8c-3.4,0-6.3-2.5-6.7-5.8H274.8z"/>
	<path class="st0" d="M277.8,61.4c-7.2-7.3-16.9-8.5-21.1-8.7V31.6H187v12.9h-5.2c-1.9,0-3.5,1.6-3.5,3.5c0,1.9,1.6,3.5,3.5,3.5h5.2
		v7.4h-8.7c0,0.1,0,0.3,0,0.4h9.1V51h-5.7c-1.7,0-3.1-1.4-3.1-3.1c0-1.7,1.4-3.1,3.1-3.1h5.7V32h68.9v21.1c4,0.1,13.9,1.1,21.2,8.6
		c6.4,6.5,9.1,16.2,8.1,28.7l-0.2,2.9l-3.9-0.1c-0.3,7.1-6.1,12.9-13.3,12.9c-7.3,0-13.3-5.9-13.4-13.3l-8-0.1h-21.8
		c0,7.4-6,13.4-13.4,13.4s-13.4-6-13.4-13.4h-10.8V79.8h-4.6c-1.7,0-3.1-1.4-3.1-3.1c0-1.7,1.4-3.1,3.1-3.1h4.6v-8.2H178
		c0,0.1,0,0.3,0,0.4h9v7.4h-4.2c-1.9,0-3.5,1.6-3.5,3.5c0,1.9,1.6,3.5,3.5,3.5h4.2v12.9h10.8c0.2,7.4,6.3,13.4,13.8,13.4
		c7.5,0,13.6-6,13.8-13.4h21.4l7.6,0.1c0.3,7.3,6.4,13.3,13.8,13.3c7.3,0,13.3-5.6,13.7-12.9l3.9,0.1l0.3-3.3
		C287.1,77.8,284.3,68,277.8,61.4z"/>
	<path class="st0" d="M211.6,99.9c3.8,0,6.9-3,7.2-6.7h-14.4C204.6,96.9,207.8,99.9,211.6,99.9z M218.3,93.6
		c-0.5,3.3-3.3,5.8-6.7,5.8c-3.4,0-6.3-2.5-6.7-5.8H218.3z"/>
	<path class="st0" d="M193.6,44.9h32.4c1.7,0,3.1,1.4,3.1,3.1c0,1.7-1.4,3.1-3.1,3.1h-32.4v8.2h21.1c1.7,0,3.1,1.4,3.1,3.1
		c0,1.7-1.4,3.1-3.1,3.1h-21.1v8.2h31.4c1.7,0,3.1,1.4,3.1,3.1c0,1.7-1.4,3.1-3.1,3.1h-31.4v6.7h56.5V38.2h-56.5V44.9z M194,38.6
		h55.7v47.5H194v-5.8h30.9c1.9,0,3.5-1.6,3.5-3.5c0-1.9-1.6-3.5-3.5-3.5H194v-7.4h20.7c1.9,0,3.5-1.6,3.5-3.5c0-1.9-1.6-3.5-3.5-3.5
		H194v-7.4h32c1.9,0,3.5-1.6,3.5-3.5c0-1.9-1.6-3.5-3.5-3.5h-32V38.6z"/>
	<path class="st1" d="M250.5,37.8h-57.4v7.5h32.8c1.5,0,2.7,1.2,2.7,2.7s-1.2,2.7-2.7,2.7h-32.8v9.1h21.5c1.5,0,2.7,1.2,2.7,2.7
		c0,1.5-1.2,2.7-2.7,2.7h-21.5v9.1h31.8c1.5,0,2.7,1.2,2.7,2.7c0,1.5-1.2,2.7-2.7,2.7h-31.8v7.5h57.4V37.8z M250.1,86.5h-56.5v-6.7
		h31.4c1.7,0,3.1-1.4,3.1-3.1c0-1.7-1.4-3.1-3.1-3.1h-31.4v-8.2h21.1c1.7,0,3.1-1.4,3.1-3.1c0-1.7-1.4-3.1-3.1-3.1h-21.1V51h32.4
		c1.7,0,3.1-1.4,3.1-3.1c0-1.7-1.4-3.1-3.1-3.1h-32.4v-6.7h56.5V86.5z"/>
	<path class="st1" d="M187.8,59.7v-9.1h-6.1c-1.5,0-2.7-1.2-2.7-2.7s1.2-2.7,2.7-2.7h6.1V32.5h68v21.1l0.4,0
		c3.9,0.1,13.7,1.1,20.9,8.4c6.3,6.4,9,16,7.9,28.4l-0.2,2.5l-3.9-0.1l0,0.4c-0.3,7-5.9,12.5-12.9,12.5c-7.1,0-12.9-5.8-12.9-12.8
		l0-0.4l-8.4-0.1h-22.2v0.4c0,7.1-5.8,12.9-12.9,12.9c-7.1,0-12.9-5.8-12.9-12.9v-0.4h-10.8V79.4h-5c-1.5,0-2.7-1.2-2.7-2.7
		c0-1.5,1.2-2.7,2.7-2.7h5V65h-9.7c0,0.1,0,0.3,0,0.4h9.4v8.2h-4.6c-1.7,0-3.1,1.4-3.1,3.1c0,1.7,1.4,3.1,3.1,3.1h4.6v12.9h10.8
		c0,7.4,6,13.4,13.4,13.4s13.4-6,13.4-13.4h21.8l8,0.1c0.1,7.3,6,13.3,13.4,13.3c7.2,0,13.1-5.7,13.3-12.9l3.9,0.1l0.2-2.9
		c1.1-12.5-1.6-22.2-8.1-28.7c-7.3-7.5-17.3-8.5-21.2-8.6V32h-68.9v12.9h-5.7c-1.7,0-3.1,1.4-3.1,3.1c0,1.7,1.4,3.1,3.1,3.1h5.7v8.2
		h-9.1c0,0.1,0,0.3,0,0.4H187.8z"/>
	<path class="st1" d="M204,93.2c0.3,4,3.6,7.1,7.6,7.1c4,0,7.3-3.1,7.6-7.1l0-0.5h-15.3L204,93.2z M218.7,93.2
		c-0.3,3.7-3.4,6.7-7.2,6.7c-3.8,0-6.9-3-7.2-6.7H218.7z"/>
	<path class="st1" d="M280,87c0.3-9.3-1.9-16.5-6.6-21.3c-5.8-5.9-13.9-6.8-17.2-6.9l-0.4,0v28.2l24.1,0.3L280,87z M279.6,87
		l-23.3-0.3V59.3c3.2,0.1,11.2,0.9,16.9,6.8C277.8,70.7,279.9,77.8,279.6,87z"/>
	<path class="st1" d="M260.5,93.2c0.3,4,3.6,7.1,7.6,7.1c4,0,7.3-3.1,7.6-7.1l0-0.5h-15.3L260.5,93.2z M275.3,93.2
		c-0.3,3.7-3.4,6.7-7.2,6.7c-3.8,0-6.9-3-7.2-6.7H275.3z"/>
	<path class="st1" d="M174.5,62.4c0,1.7,1.4,3.1,3.1,3.1h0.4c0-0.1,0-0.3,0-0.4h-0.5c-1.5,0-2.7-1.2-2.7-2.7c0-1.5,1.2-2.7,2.7-2.7
		h0.7c0-0.1,0-0.3,0-0.4h-0.7C175.9,59.3,174.5,60.7,174.5,62.4z"/>
</g>
</svg>
