<?xml version="1.0" encoding="utf-8"?>
<!-- Generator: Adobe Illustrator 24.1.1, SVG Export Plug-In . SVG Version: 6.00 Build 0)  -->
<svg version="1.1" id="Capa_1" xmlns="http://www.w3.org/2000/svg" xmlns:xlink="http://www.w3.org/1999/xlink" x="0px" y="0px"
	 viewBox="0 0 40 40" style="enable-background:new 0 0 40 40;" xml:space="preserve">
<style type="text/css">
	.st0{fill:#D10D0D;}
	.st1{fill:#FFFFFF;}
</style>
<g>
	<path id="Rectángulo_37" class="st0" d="M5.8,0.5h28.4c2.9,0,5.3,2.4,5.3,5.3v28.4c0,2.9-2.4,5.3-5.3,5.3H5.8
		c-2.9,0-5.3-2.4-5.3-5.3V5.8C0.5,2.9,2.9,0.5,5.8,0.5z"/>
	<g id="Grupo_105" transform="translate(299.091 -522.702)">
		<path id="Trazado_123" class="st1" d="M-266.8,552.8h-24.5c-2.1,0-3.7-1.7-3.7-3.7c0-0.3,0.2-0.5,0.5-0.5h30.9
			c0.3,0,0.5,0.2,0.5,0.5C-263.1,551.2-264.8,552.8-266.8,552.8z M-293.9,549.6c0.3,1.2,1.3,2.1,2.6,2.1h24.5c1.3,0,2.4-0.9,2.6-2.1
			H-293.9z"/>
		<path id="Trazado_124" class="st1" d="M-265.8,549.6h-26.6c-0.3,0-0.5-0.2-0.5-0.5v-0.5c0-7.6,6.2-13.8,13.8-13.8
			c7.6,0,13.8,6.2,13.8,13.8v0.5C-265.2,549.4-265.5,549.6-265.8,549.6C-265.8,549.6-265.8,549.6-265.8,549.6z M-291.9,548.6h25.6
			c0-7.1-5.7-12.8-12.8-12.8C-286.1,535.8-291.8,541.5-291.9,548.6z"/>
		<rect id="Rectángulo_38" x="-280.7" y="532.1" class="st1" width="3.2" height="1.1"/>
		<rect id="Rectángulo_39" x="-279.6" y="532.6" class="st1" width="1.1" height="2.7"/>
	</g>
</g>
</svg>
