<?xml version="1.0" encoding="utf-8"?>
<!-- Generator: Adobe Illustrator 24.1.2, SVG Export Plug-In . SVG Version: 6.00 Build 0)  -->
<svg version="1.1" id="Capa_1" xmlns="http://www.w3.org/2000/svg" xmlns:xlink="http://www.w3.org/1999/xlink" x="0px" y="0px"
	 viewBox="0 0 40 40" style="enable-background:new 0 0 40 40;" xml:space="preserve">
<style type="text/css">
	.st0{fill-rule:evenodd;clip-rule:evenodd;fill:url(#Trazado_176_1_);}
	.st1{fill-rule:evenodd;clip-rule:evenodd;fill:url(#Trazado_177_1_);}
	.st2{fill-rule:evenodd;clip-rule:evenodd;fill:url(#Trazado_178_1_);}
	.st3{font-family:'AlondriaBepahRegular';}
	.st4{font-size:3.8505px;}
</style>
<g>
	<g id="Grupo_145" transform="translate(-368.863 606.221)">
		
			<linearGradient id="Trazado_176_1_" gradientUnits="userSpaceOnUse" x1="388.9494" y1="-585.9498" x2="388.9494" y2="-586.5916" gradientTransform="matrix(27.006 0 0 -38.879 -10115.957 -23385.5996)">
			<stop  offset="0" style="stop-color:#F9EC23"/>
			<stop  offset="1" style="stop-color:#EB2027"/>
		</linearGradient>
		<path id="Trazado_176" class="st0" d="M384.7-579.5c-4.6-2.8-7.7-8.4-3.2-13.9c0.9-1.1,1.1-2.6,0.4-3.9c4.7,1.1,1.1,6.7,1.8,7.9
			c0-2.3,2.8-3.8,2-6.7c-1.3-4.4,0.2-6.9,2.8-8.4c-1.8,1.7-2.3,4.2-1.1,4.5c1,0.3,2.1-0.5,1.5-2c1.2,0.5,2,1.5,1.5,3.7
			c-0.4,1.8-2.9,3.2-1.4,4.5c2.3,1.4,3.4-1.9,1.7-2.6c1.9-0.6,3.4,0.7,3.2,2.7c0,1.8-2.2,3.3-1.2,4.7c-0.7-1.4,2.5-3.1,2.5-5.3
			c3.3,5.5,0.4,11.3-3.1,14.3c2-2.6,2.6-4.9,1.1-6.6c0.1,1.7-0.8,2.5-1.7,2.4c-0.8-0.1-0.9-1-0.5-1.8c0.5-1.4-0.7-2.5-1.9-2.7
			c0.7,1.1,0.2,2.6-1.3,2.4c-2.4-0.8,2.7-5.1-0.5-7.2c1.3,3-6.2,5.2-2.2,10.5c-1.9-0.9-3-2.5-3.2-5
			C380.6-584.5,382.3-581.9,384.7-579.5z"/>
		
			<linearGradient id="Trazado_177_1_" gradientUnits="userSpaceOnUse" x1="387.0339" y1="-632.8585" x2="387.6757" y2="-632.8585" gradientTransform="matrix(31.9458 0 0 -6.46 -11988.7949 -4664.7666)">
			<stop  offset="0" style="stop-color:#3F51B5"/>
			<stop  offset="1" style="stop-color:#00BCD4"/>
		</linearGradient>
		<path id="Trazado_177" class="st1" d="M381.5-575.9l4.3,0.3l9.2,0.6c0.2,0,0.4-0.1,0.6-0.2c0.2-0.2,0.3-0.4,0.3-0.6v0c0,0,0,0,0,0
			c0-0.2-0.1-0.4-0.2-0.6c-0.1-0.2-0.3-0.3-0.6-0.3l-9.2,0l-4.3,0c-0.5-2.4-5.2-1.8-6.2-1h0l3.6,0.1c0.1,0,0.2,0.1,0.2,0.3l0,0
			c0,0.1-0.1,0.2-0.2,0.3c-1.2-0.1-2.4,0-3.6,0.1c1.2,0.2,2.4,0.4,3.6,0.4c0.1,0,0.2,0.1,0.2,0.3l0,0c0,0.1-0.1,0.2-0.2,0.3
			c-0.6,0-2.9-0.1-3.6,0.2c1.2,0.2,2.4,0.3,3.6,0.4c0.1,0,0.2,0.1,0.2,0.3l0,0c0,0.1-0.1,0.2-0.2,0.3l-3.6-0.1h0
			C376.6-574.5,380.9-573.6,381.5-575.9L381.5-575.9z M381.2-575.6c0.5-1.3-0.4-2.3-1.7-2.5c0.9-0.1,1.8,0.5,1.9,1.5
			c0,0.3,0,0.6-0.1,0.8c0,0.1-0.1,0.2-0.2,0.4C381.2-575.5,381.2-575.5,381.2-575.6L381.2-575.6z"/>
		
			<linearGradient id="Trazado_178_1_" gradientUnits="userSpaceOnUse" x1="386.8699" y1="-622.6196" x2="387.5116" y2="-622.6196" gradientTransform="matrix(32.1274 0 0 -7.9272 -12047.333 -5514.3398)">
			<stop  offset="0" style="stop-color:#019147"/>
			<stop  offset="1" style="stop-color:#F9EC23"/>
		</linearGradient>
		<path id="Trazado_178" class="st2" d="M395.5-578.2l-4.4,0.3l-8.6,0.5c-0.2,0-0.4-0.1-0.5-0.2c-0.1-0.1-0.2-0.3-0.2-0.5
			c0,0,0,0,0,0c0,0,0,0,0,0c0-0.2,0.1-0.4,0.2-0.5c0.1-0.1,0.3-0.2,0.5-0.2l8.6-0.1l4.4,0c0.2-1.3,1.2-2.2,2.5-2.2
			c1.5,0,2.9,0.6,4.1,1.5c0.5,0.4,0.5,1.1,0.1,1.6c0,0,0,0,0,0c-1.1,1.1-2.5,1.7-4,1.9C396.9-576.1,395.8-576.9,395.5-578.2
			L395.5-578.2z M396.8-577.3c-0.7-0.6-0.5-2.4,0.2-2.9c0.8-0.6,1.6-0.5,2.8-0.3c-0.6-0.2-1.1-0.3-1.7-0.3c-2.9,0.1-2.7,4.5,0.2,4.4
			c0.7-0.1,1.3-0.3,1.9-0.6C398.3-576.5,397.2-576.9,396.8-577.3L396.8-577.3z"/>
	</g>
	<text transform="matrix(1 0 0 1 11.659 37.1781)" class="st3 st4">Pepe’s Pizza</text>
</g>
</svg>
