<?xml version="1.0" encoding="utf-8"?>
<!-- Generator: Adobe Illustrator 24.1.2, SVG Export Plug-In . SVG Version: 6.00 Build 0)  -->
<svg version="1.1" id="Capa_1" xmlns="http://www.w3.org/2000/svg" xmlns:xlink="http://www.w3.org/1999/xlink" x="0px" y="0px"
	 viewBox="0 0 40 40" style="enable-background:new 0 0 40 40;" xml:space="preserve">
<style type="text/css">
	.st0{fill-rule:evenodd;clip-rule:evenodd;fill:url(#Trazado_180_1_);}
	.st1{font-family:'CooperBlack';}
	.st2{font-size:6.0517px;}
</style>
<g>
	<g id="Grupo_151" transform="translate(-236.131 1220.682)">
		
			<linearGradient id="Trazado_180_1_" gradientUnits="userSpaceOnUse" x1="252.1391" y1="-1200.235" x2="252.1391" y2="-1199.5626" gradientTransform="matrix(42.627 0 0 -42.656 -10491.8145 -52386.9219)">
			<stop  offset="0" style="stop-color:#EB1C24"/>
			<stop  offset="1" style="stop-color:#FAEC21"/>
		</linearGradient>
		<path id="Trazado_180" class="st0" d="M256.1-1217.9c7.9,0,14.3,6.4,14.3,14.3c0,0.7-0.1,1.4-0.2,2.1c-1.9,8.5-8.1,2.2-11.9-1.5
			c-0.5,0.4-0.9,0.9-1.3,1.4c3.7,4.1,7.7,9.7,2.9,11.7c-1.3,0.4-2.6,0.6-3.9,0.6c-1.3,0-2.7-0.2-4-0.6c-6.8-2.9,4.2-13,6.9-15.9
			c3.6,2.5,6.9-4.7,5.3-6.3c-1.7-1.7-9,1.4-6.5,5.2l-1.7,1.6l-1.9-1.7c1.3-2-0.4-3.5-1.9-4.4l-2.9-1.9c-0.6-0.4-1.1,0-0.6,0.5
			l3.4,3.1c0.1,0.1,0.1,0.3,0,0.4c0,0,0,0,0,0l-0.3,0.3c-0.1,0.1-0.3,0.1-0.4,0c0,0,0,0,0,0l-3.4-3c-0.2-0.2-0.6-0.2-0.8,0
			c-0.2,0.2-0.1,0.6,0.1,0.8c0,0,0,0,0,0l3.4,3c0.1,0.1,0.1,0.3,0,0.4l-0.3,0.3c-0.1,0.1-0.3,0.1-0.4,0l-3.4-3.1
			c-0.5-0.5-0.9,0.1-0.4,0.7l2.2,2.7c1.1,1.4,2.7,2.9,4.6,1.4l1.7,1.7c-3.5,3.4-10.8,11.8-12.9,2.5c-0.1-0.7-0.2-1.4-0.2-2.1
			C241.8-1211.4,248.2-1217.8,256.1-1217.9L256.1-1217.9z"/>
	</g>
	<text transform="matrix(1 0 0 1 2.5674 35.6534)" class="st1 st2">Pizzamania</text>
</g>
</svg>
