<?xml version="1.0" encoding="utf-8"?>
<!-- Generator: Adobe Illustrator 24.1.2, SVG Export Plug-In . SVG Version: 6.00 Build 0)  -->
<svg version="1.1" id="Capa_1" xmlns="http://www.w3.org/2000/svg" xmlns:xlink="http://www.w3.org/1999/xlink" x="0px" y="0px"
	 viewBox="0 0 40 40" style="enable-background:new 0 0 40 40;" xml:space="preserve">
<style type="text/css">
	.st0{fill-rule:evenodd;clip-rule:evenodd;fill:url(#Trazado_175_1_);}
	.st1{fill:#C10E0E;}
	.st2{font-family:'SegoeUI';}
	.st3{font-size:5.4238px;}
</style>
<g>
	
		<linearGradient id="Trazado_175_1_" gradientUnits="userSpaceOnUse" x1="16.1099" y1="20.8388" x2="16.1099" y2="20.0408" gradientTransform="matrix(41.95 0 0 -40.7919 -655.8105 847.256)">
		<stop  offset="0" style="stop-color:#BC1E2D"/>
		<stop  offset="0.484" style="stop-color:#EC2A58"/>
		<stop  offset="1" style="stop-color:#F9AE40"/>
	</linearGradient>
	<path id="Trazado_175" class="st0" d="M13.6,18.8c-0.1,4-0.1,6.9,0.2,8.7c0.7,3.6,3.2,2.3,4.1-0.5c1.3-4.3,1.2-12.7,1.2-15.3
		l-0.1,0c-4-0.9-1.5-8.2,1-8.2c2.4,0,5,7.3,1,8.2l0,0c0.1,2.6-0.1,10.9,1.2,15.3c0.8,2.8,3.4,4.1,4.1,0.5c0.3-1.8,0.4-4.7,0.2-8.7
		c-2.3-0.4-2.3-2.6-2-4.4l0.5-3.4c0.1-0.7,0.8-0.8,0.8-0.1v4.3c0,0.4,1,0.4,1,0V11c0-0.3,0.2-0.6,0.5-0.6c0,0,0,0,0,0
		c0.3,0,0.5,0.3,0.5,0.5c0,0,0,0,0,0v4.2c0,0.4,1,0.4,1,0v-4.3c0-0.7,0.6-0.6,0.8,0.1l0.5,3.4c0.3,1.8,0.3,3.9-2,4.4
		c0,1.5,0.1,3,0.5,4.5c0.7,2.4,2.4,2.3,3.6,0.3c1.4-2.2,2.1-4.8,2.1-7.4C34.2,8.4,27.9,2,20,2C12.1,2,5.8,8.4,5.8,16.2
		c0,2.6,0.7,5.2,2.1,7.4c1.2,2,3,2.1,3.6-0.3c0.3-1.5,0.5-3,0.5-4.5c-2.3-0.4-2.3-2.6-2-4.4l0.5-3.4c0.1-0.7,0.8-0.8,0.8-0.1v4.3
		c0,0.4,1,0.4,1,0V11c0-0.3,0.2-0.5,0.5-0.6c0,0,0,0,0,0c0.3,0,0.5,0.3,0.5,0.6c0,0,0,0,0,0v4.2c0,0.4,1,0.4,1,0v-4.3
		c0-0.7,0.6-0.6,0.8,0.1l0.5,3.4C15.9,16.2,15.9,18.3,13.6,18.8L13.6,18.8z"/>
	<text transform="matrix(1 0 0 1 5.0566 35.7835)" class="st1 st2 st3">THE ITALIAN</text>
</g>
</svg>
