<?xml version="1.0" encoding="utf-8"?>
<!-- Generator: Adobe Illustrator 24.1.2, SVG Export Plug-In . SVG Version: 6.00 Build 0)  -->
<svg version="1.1" id="Capa_1" xmlns="http://www.w3.org/2000/svg" xmlns:xlink="http://www.w3.org/1999/xlink" x="0px" y="0px"
	 viewBox="0 0 40 40" style="enable-background:new 0 0 40 40;" xml:space="preserve">
<style type="text/css">
	.st0{fill:#FA9100;}
	.st1{fill:#484747;}
</style>
<g id="Grupo_187" transform="translate(2159.702 -440.848)">
	<path id="Trazado_287" class="st0" d="M-2132.1,447.9c0-1.4-1.2-2.6-2.6-2.6c-1.4,0-2.6,1.2-2.6,2.6c0,1.4,1.2,2.6,2.6,2.6
		C-2133.3,450.6-2132.1,449.4-2132.1,447.9z M-2136,447.9c0-0.7,0.6-1.2,1.2-1.2c0.7,0,1.2,0.6,1.2,1.2c0,0.7-0.6,1.2-1.2,1.2
		C-2135.4,449.2-2136,448.6-2136,447.9z"/>
	<path id="Trazado_288" class="st0" d="M-2134.2,463.7c-0.3,0.3-0.3,0.7,0,1c0.3,0.3,0.7,0.3,1,0c0.3-0.3,0.3-0.7,0-1
		C-2133.5,463.4-2133.9,463.4-2134.2,463.7C-2134.2,463.7-2134.2,463.7-2134.2,463.7z"/>
	<path id="Trazado_289" class="st1" d="M-2140.5,464h3.9c0.4,0,0.7-0.3,0.7-0.7c0-0.4-0.3-0.7-0.7-0.7h-3.9c-1.9,0-3.4-1.5-3.4-3.4
		c0-1.9,1.5-3.4,3.4-3.4h5.7c0.2,0,0.4-0.1,0.6-0.3l0,0c1-0.8,1.9-1.6,2.8-2.6c0.9-0.9,1.5-2.1,1.8-3.3c0.3-1.3,0.1-2.6-0.4-3.8
		c-0.4-1-1.1-1.9-2-2.5c-1-0.7-2.2-0.9-3.4-0.8c-1.5,0.2-2.8,1-3.7,2.2c-0.9,1.2-1.2,2.7-1,4.2c0.2,1.4,0.9,2.7,1.8,3.7
		c0.5,0.6,1.1,1.2,1.7,1.7h-3.8c-2.6,0-4.8,2.1-4.8,4.8C-2145.2,461.9-2143.1,464-2140.5,464z M-2138.6,449.6
		c-0.5-1.7,0.1-3.6,1.4-4.8c0.7-0.6,1.5-0.9,2.4-0.9c0.9,0,1.7,0.3,2.4,0.8l0,0c1.4,1.3,1.9,3.2,1.3,5c-0.6,1.8-2.2,3.2-3.7,4.5
		C-2136.4,453-2138,451.4-2138.6,449.6L-2138.6,449.6z"/>
	<path id="Trazado_290" class="st1" d="M-2128.3,464h-2.6c-0.4,0-0.7,0.3-0.7,0.7c0,0.4,0.3,0.7,0.7,0.7h2.6c2.1,0,3.8,1.6,3.9,3.7
		c0,2.1-1.8,3.8-3.9,3.7h-6.7c-0.4-1.5-1.7-2.6-3.3-2.5h-1.3l-0.7-0.7c-1.7-1.7-3.9-2.7-6.3-2.7h-4.3c-0.7,0-1.3,0.6-1.4,1.3v2h-0.9
		c-1.8,0-3.3,1.4-3.4,3.2c0,1.5,1,2.7,2.4,3.1c0.3,1.4,1.6,2.4,3,2.4c1.4,0,2.6-0.9,3-2.3h4.7c0.4,1.4,1.6,2.3,3,2.3
		c1.5,0,2.7-1,3-2.4c1.1-0.3,1.9-1.3,2.2-2.4h6.7c2.9,0.1,5.3-2.2,5.3-5.1C-2123,466.3-2125.4,464-2128.3,464z M-2150.7,468.4h4.2
		c1.9,0,3.6,0.7,5,2h-9.2V468.4z M-2151,477.7c-0.9,0-1.6-0.7-1.6-1.6c0-0.9,0.8-1.6,1.6-1.6c0.9,0,1.6,0.7,1.6,1.6
		C-2149.3,477-2150.1,477.7-2151,477.7L-2151,477.7z M-2140.3,477.7c-0.9,0-1.6-0.7-1.6-1.6c0-0.9,0.8-1.6,1.6-1.6
		c0.9,0,1.6,0.7,1.6,1.6C-2138.6,477-2139.4,477.7-2140.3,477.7L-2140.3,477.7z M-2137.3,475.2c-0.4-1.2-1.6-2-2.9-2
		c-1.4,0-2.6,0.9-3,2.3h-4.7c-0.4-1.4-1.6-2.3-3-2.3c-1.3,0-2.5,0.8-2.9,2.1c-0.6-0.3-1.1-1-1.1-1.7c0-1,0.9-1.9,1.9-1.9h14.8
		c1,0,1.9,0.8,1.9,1.9C-2136.4,474.3-2136.7,474.9-2137.3,475.2L-2137.3,475.2z"/>
	<path id="Trazado_291" class="st0" d="M-2140.3,475.4c-0.4,0-0.7,0.3-0.7,0.7c0,0.4,0.3,0.7,0.7,0.7c0.4,0,0.7-0.3,0.7-0.7
		C-2139.6,475.8-2139.9,475.5-2140.3,475.4C-2140.2,475.4-2140.3,475.4-2140.3,475.4z"/>
	<path id="Trazado_292" class="st0" d="M-2151.2,475.4c-0.4,0-0.7,0.3-0.7,0.7c0,0.4,0.3,0.7,0.7,0.7c0.4,0,0.7-0.3,0.7-0.7
		C-2150.5,475.8-2150.8,475.5-2151.2,475.4C-2151.2,475.4-2151.2,475.4-2151.2,475.4z"/>
</g>
</svg>
