<?xml version="1.0" encoding="utf-8"?>
<!-- Generator: Adobe Illustrator 24.1.2, SVG Export Plug-In . SVG Version: 6.00 Build 0)  -->
<svg version="1.1" id="Capa_1" xmlns="http://www.w3.org/2000/svg" xmlns:xlink="http://www.w3.org/1999/xlink" x="0px" y="0px"
	 viewBox="0 0 40 40" style="enable-background:new 0 0 40 40;" xml:space="preserve">
<style type="text/css">
	.st0{fill:#FA9100;}
	.st1{fill:#585858;}
</style>
<g id="Grupo_294" transform="translate(-298 -103.729)">
	<path id="Trazado_402" class="st0" d="M310.6,112.7h14.8c0.3,0,0.5-0.2,0.5-0.5c0-0.3-0.2-0.5-0.5-0.5h-14.8
		c-0.3,0-0.5,0.2-0.5,0.5C310.1,112.5,310.3,112.7,310.6,112.7z"/>
	<path id="Trazado_403" class="st1" d="M304.8,110.3v30.4c0,0.9,0.7,1.6,1.6,1.6h23.2c0.9,0,1.6-0.7,1.6-1.6v-30.4
		c0-0.9-0.7-1.6-1.6-1.6l0,0h-7.7c-0.3-2.2-2.2-3.7-4.4-3.4c0,0,0,0,0,0c-1.8,0.2-3.2,1.6-3.4,3.4h-7.7
		C305.5,108.7,304.8,109.4,304.8,110.3C304.8,110.3,304.8,110.3,304.8,110.3z M330.2,140.7c0,0.3-0.3,0.6-0.6,0.6l0,0h-23.2
		c-0.3,0-0.6-0.3-0.6-0.6v0v-25.5h24.4L330.2,140.7z M318,106.2c1.4,0,2.7,1,2.9,2.5h-5.7C315.4,107.3,316.6,106.2,318,106.2z
		 M329.6,109.7c0.3,0,0.6,0.3,0.6,0.6v3.9h-24.4v-3.9c0-0.3,0.3-0.6,0.6-0.6l0,0H329.6z"/>
	<path id="Trazado_404" class="st1" d="M315,120.7h12c0.3,0,0.5-0.2,0.5-0.5c0-0.3-0.2-0.5-0.5-0.5c0,0,0,0,0,0h-12
		c-0.3,0-0.5,0.2-0.5,0.5c0,0,0,0,0,0C314.5,120.5,314.8,120.7,315,120.7C315,120.7,315,120.7,315,120.7z"/>
	<path id="Trazado_405" class="st1" d="M315,126h12c0.3,0,0.5-0.2,0.5-0.5c0,0,0,0,0,0c0-0.3-0.2-0.5-0.5-0.5c0,0,0,0,0,0h-12
		c-0.3,0-0.5,0.2-0.5,0.5c0,0,0,0,0,0C314.5,125.8,314.8,126,315,126C315,126,315,126,315,126z"/>
	<path id="Trazado_406" class="st1" d="M315,131.3h12c0.3,0,0.5-0.2,0.5-0.5c0-0.3-0.2-0.5-0.5-0.5h-12c-0.3,0-0.5,0.2-0.5,0.5
		c0,0,0,0,0,0C314.5,131.1,314.8,131.3,315,131.3z"/>
	<path id="Trazado_407" class="st1" d="M315,136.6h12c0.3,0,0.5-0.2,0.5-0.5c0,0,0,0,0,0c0-0.3-0.2-0.5-0.5-0.5h-12
		c-0.3,0-0.5,0.2-0.5,0.5c0,0,0,0,0,0C314.5,136.3,314.8,136.6,315,136.6C315,136.6,315,136.6,315,136.6z"/>
	<path id="Trazado_408" class="st0" d="M310,121c0.1,0.1,0.2,0.2,0.3,0.2h0.1c0.1,0,0.2,0,0.3-0.1l3.2-2.5c0.2-0.1,0.3-0.4,0.2-0.7
		c-0.1-0.2-0.4-0.3-0.7-0.2c0,0,0,0,0,0c0,0-0.1,0.1-0.1,0.1l-2.8,2.2l-0.5-0.7c-0.2-0.2-0.5-0.3-0.7-0.1c0,0,0,0,0,0
		c-0.2,0.2-0.3,0.5-0.1,0.7c0,0,0,0,0,0L310,121z"/>
	<path id="Trazado_409" class="st0" d="M310,126.2c0.1,0.1,0.2,0.2,0.3,0.2h0.1c0.1,0,0.2,0,0.3-0.1l3.2-2.5
		c0.2-0.2,0.3-0.5,0.1-0.7c0,0,0,0,0,0c-0.2-0.2-0.5-0.3-0.7-0.1v0l0,0l-2.8,2.2l-0.5-0.7c-0.1-0.3-0.4-0.4-0.7-0.2c0,0,0,0,0,0
		c-0.3,0.1-0.4,0.4-0.2,0.7c0,0,0,0,0,0c0,0,0,0.1,0.1,0.1L310,126.2z"/>
	<path id="Trazado_410" class="st0" d="M310,131.4c0.1,0.1,0.2,0.2,0.3,0.2h0.1c0.1,0,0.2,0,0.3-0.1l3.2-2.5
		c0.2-0.2,0.3-0.5,0.1-0.7c0,0,0,0,0,0c-0.2-0.2-0.5-0.3-0.7-0.1l0,0l-2.8,2.2l-0.5-0.7c-0.2-0.2-0.5-0.3-0.7-0.1
		c-0.2,0.2-0.3,0.5-0.1,0.7L310,131.4z"/>
	<path id="Trazado_411" class="st0" d="M310,136.7c0.1,0.1,0.2,0.2,0.3,0.2h0.1c0.1,0,0.2,0,0.3-0.1l3.2-2.5
		c0.2-0.1,0.3-0.5,0.2-0.7c-0.2-0.2-0.5-0.3-0.7-0.2c0,0-0.1,0-0.1,0.1l-2.8,2.2L310,135c-0.2-0.2-0.5-0.3-0.7-0.1c0,0,0,0,0,0
		c-0.2,0.2-0.3,0.5-0.1,0.7L310,136.7z"/>
</g>
</svg>
