<?xml version="1.0" encoding="utf-8"?>
<!-- Generator: Adobe Illustrator 24.1.2, SVG Export Plug-In . SVG Version: 6.00 Build 0)  -->
<svg version="1.1" id="Capa_1" xmlns="http://www.w3.org/2000/svg" xmlns:xlink="http://www.w3.org/1999/xlink" x="0px" y="0px"
	 viewBox="0 0 40 40" style="enable-background:new 0 0 40 40;" xml:space="preserve">
<style type="text/css">
	.st0{fill:#595959;}
	.st1{fill:#D01317;}
</style>
<g>
	<path class="st0" d="M4.3,36.9c-0.1,0-0.2,0-0.4-0.1c-0.3-0.1-0.5-0.5-0.5-0.8V31c0-1.5-0.4-3-1.3-4.3c-0.5-0.9-0.8-1.9-0.8-2.9
		V8.5c0-3,2.4-5.4,5.4-5.4h26.6c3,0,5.4,2.4,5.4,5.4v15.3c0,3-2.4,5.4-5.4,5.4H16.1c-2,0-4,0.8-5.5,2.2l-5.7,5.3
		C4.8,36.8,4.5,36.9,4.3,36.9z M6.7,4.9c-2,0-3.6,1.6-3.6,3.6v15.3c0,0.7,0.2,1.3,0.6,1.9c1,1.6,1.5,3.4,1.5,5.3v2.9l4.2-3.8
		c1.8-1.7,4.2-2.6,6.7-2.6h17.2c2,0,3.6-1.6,3.6-3.6V8.5c0-2-1.6-3.6-3.6-3.6H6.7z"/>
	<path class="st1" d="M28.8,10.8H11.2c-0.5,0-0.9-0.4-0.9-0.9c0-0.5,0.4-0.9,0.9-0.9h17.6c0.5,0,0.9,0.4,0.9,0.9
		C29.7,10.4,29.3,10.8,28.8,10.8z"/>
	<path class="st1" d="M31.9,16.7h-5.4c-0.5,0-0.9-0.4-0.9-0.9c0-0.5,0.4-0.9,0.9-0.9h5.4c0.5,0,0.9,0.4,0.9,0.9
		C32.8,16.3,32.4,16.7,31.9,16.7z"/>
	<path class="st1" d="M17.4,16.7H8.1c-0.5,0-0.9-0.4-0.9-0.9c0-0.5,0.4-0.9,0.9-0.9h9.3c0.5,0,0.9,0.4,0.9,0.9
		C18.3,16.3,17.9,16.7,17.4,16.7z"/>
	<path class="st1" d="M31.9,22.6H8.1c-0.5,0-0.9-0.4-0.9-0.9c0-0.5,0.4-0.9,0.9-0.9h23.9c0.5,0,0.9,0.4,0.9,0.9
		C32.8,22.1,32.4,22.6,31.9,22.6z"/>
</g>
</svg>
