<?xml version="1.0" encoding="utf-8"?>
<!-- Generator: Adobe Illustrator 24.1.2, SVG Export Plug-In . SVG Version: 6.00 Build 0)  -->
<svg version="1.1" id="Capa_1" xmlns="http://www.w3.org/2000/svg" xmlns:xlink="http://www.w3.org/1999/xlink" x="0px" y="0px"
	 viewBox="0 0 40 40" style="enable-background:new 0 0 40 40;" xml:space="preserve">
<style type="text/css">
	.st0{fill:#595959;}
	.st1{fill:#D01317;}
</style>
<g>
	<path class="st0" d="M35.4,7.1H4.6c-2.2,0-4,1.8-4,4v1.6v4.9v11.3c0,2.2,1.8,4,4,4h30.7c2.2,0,4-1.8,4-4V17.6v-4.9v-1.6
		C39.4,8.9,37.6,7.1,35.4,7.1z M4.6,8.7h30.7c1.3,0,2.4,1.1,2.4,2.4v0.8H2.2v-0.8C2.2,9.8,3.3,8.7,4.6,8.7z M37.8,16.8H2.2v-3.2
		h35.6V16.8z M35.4,31.3H4.6c-1.3,0-2.4-1.1-2.4-2.4V18.4h35.6v10.5C37.8,30.2,36.7,31.3,35.4,31.3z"/>
	<path class="st1" d="M16,24.9H6.2c-0.4,0-0.8-0.4-0.8-0.8s0.4-0.8,0.8-0.8H16c0.4,0,0.8,0.4,0.8,0.8S16.4,24.9,16,24.9z"/>
	<path class="st1" d="M16,28.1H6.2c-0.4,0-0.8-0.4-0.8-0.8s0.4-0.8,0.8-0.8H16c0.4,0,0.8,0.4,0.8,0.8S16.4,28.1,16,28.1z"/>
	<path class="st1" d="M32.1,28.1h-1.6c-1.3,0-2.4-1.1-2.4-2.4V24c0-1.3,1.1-2.4,2.4-2.4h1.6c1.3,0,2.4,1.1,2.4,2.4v1.6
		C34.6,27,33.5,28.1,32.1,28.1z M30.5,23.2c-0.4,0-0.8,0.4-0.8,0.8v1.6c0,0.4,0.4,0.8,0.8,0.8h1.6c0.4,0,0.8-0.4,0.8-0.8V24
		c0-0.4-0.4-0.8-0.8-0.8H30.5z"/>
</g>
</svg>
