<?xml version="1.0" encoding="utf-8"?>
<!-- Generator: Adobe Illustrator 24.1.2, SVG Export Plug-In . SVG Version: 6.00 Build 0)  -->
<svg version="1.1" id="Capa_1" xmlns="http://www.w3.org/2000/svg" xmlns:xlink="http://www.w3.org/1999/xlink" x="0px" y="0px"
	 viewBox="0 0 40 40" style="enable-background:new 0 0 40 40;" xml:space="preserve">
<style type="text/css">
	.st0{fill:#595959;}
	.st1{fill:#FA9100;}
</style>
<path class="st0" d="M23.6,36.1H8.2c-0.3,0-0.6-0.3-0.6-0.6V28c0-0.2,0.1-0.4,0.2-0.5l3-2.5c0.5-0.5,1.2-0.7,2-0.7h8.1
	c1.2,0,2.2,0.9,2.2,2.1v0.1c0,1.2-1,2.2-2.2,2.2h-4c-0.3,0-0.6,0.3-0.6,0.6s0.3,0.6,0.6,0.6h7.2L31,25c0.5-0.4,1.2-0.5,1.8-0.4
	c0.6,0.1,1.2,0.5,1.6,1c0,0.1,0.1,0.1,0.1,0.2c0.6,1.1,0.3,2.5-0.7,3.2l-7.5,6.2C25.6,35.7,24.6,36.1,23.6,36.1z M8.9,34.9h14.7
	c0.7,0,1.4-0.3,2-0.7l7.5-6.2c0.5-0.4,0.7-1.1,0.4-1.6c0,0,0-0.1-0.1-0.1c-0.2-0.3-0.5-0.4-0.8-0.5c-0.3,0-0.6,0-0.9,0.2l-7,5
	c-0.1,0.1-0.2,0.1-0.4,0.1h-7.4c-1,0-1.9-0.8-1.9-1.9c0-1,0.8-1.9,1.9-1.9h4c0.5,0,0.9-0.4,0.9-0.9s-0.4-0.9-1-0.9h-8.1
	c-0.4,0-0.8,0.2-1.2,0.4l-2.8,2.3v6.7H8.9z"/>
<path class="st0" d="M8.2,38.6H1.4v-1.2h6.2V28H1.4v-1.2h6.8c0.3,0,0.6,0.3,0.6,0.6V38C8.8,38.3,8.6,38.6,8.2,38.6z"/>
<path class="st1" d="M4.5,36.1c-1,0-1.9-0.8-1.9-1.9c0-1,0.8-1.9,1.9-1.9s1.9,0.8,1.9,1.9S5.5,36.1,4.5,36.1z M4.5,33.6
	c-0.3,0-0.6,0.3-0.6,0.6s0.3,0.6,0.6,0.6s0.6-0.3,0.6-0.6C5.1,33.9,4.9,33.6,4.5,33.6z"/>
<path class="st1" d="M34.2,25.6H5.8c-2.4,0-4.3-1.9-4.3-4.3c0-0.3,0.3-0.6,0.6-0.6H38c0.3,0,0.6,0.3,0.6,0.6
	C38.6,23.6,36.6,25.6,34.2,25.6z M2.7,21.9c0.3,1.4,1.5,2.5,3,2.5h28.5c1.5,0,2.7-1.1,3-2.5H2.7z"/>
<path class="st1" d="M35.5,21.9h-31c-0.3,0-0.6-0.3-0.6-0.6v-0.6c0-8.9,7.2-16.1,16.1-16.1s16.1,7.2,16.1,16.1v0.6
	C36.1,21.6,35.8,21.9,35.5,21.9z M5.1,20.6h29.7c0-8.2-6.7-14.9-14.9-14.9S5.1,12.4,5.1,20.6z"/>
<path class="st0" d="M9.7,13.8l-1-0.7c0.4-0.5,0.8-1.1,1.2-1.5l0.9,0.8C10.3,12.8,10,13.3,9.7,13.8z"/>
<path class="st0" d="M11.5,11.6l-0.8-0.9C13.2,8.3,16.5,7,20,7v1.2C16.8,8.2,13.8,9.4,11.5,11.6z"/>
<rect x="18.1" y="1.4" class="st1" width="3.7" height="1.2"/>
<rect x="19.4" y="2" class="st1" width="1.2" height="3.1"/>
</svg>
