<?xml version="1.0" encoding="utf-8"?>
<!-- Generator: Adobe Illustrator 24.1.2, SVG Export Plug-In . SVG Version: 6.00 Build 0)  -->
<svg version="1.1" id="Capa_1" xmlns="http://www.w3.org/2000/svg" xmlns:xlink="http://www.w3.org/1999/xlink" x="0px" y="0px"
	 viewBox="0 0 40 40" style="enable-background:new 0 0 40 40;" xml:space="preserve">
<style type="text/css">
	.st0{fill:#595959;}
	.st1{fill:#D01317;}
</style>
<g>
	<g>
		<circle class="st0" cx="11.6" cy="9.4" r="1.2"/>
	</g>
	<g>
		<circle class="st0" cx="28.5" cy="9.4" r="1.2"/>
	</g>
	<g>
		<g>
			<path class="st0" d="M18.2,31.5c0,0-0.1,0-0.1,0c-0.8-0.1-1.3-0.7-1.3-1.5l0.2-7.3c0-0.3-0.1-0.5-0.4-0.7
				c-0.5-0.3-0.9-0.9-0.9-1.5v-3.6c0-0.3,0.2-0.5,0.5-0.5c0.3,0,0.5,0.2,0.5,0.5v3.6c0,0.3,0.1,0.5,0.4,0.7c0.5,0.3,0.9,0.9,0.9,1.6
				l-0.2,7.3c0,0.3,0.2,0.5,0.4,0.5c0.1,0,0.3,0,0.4-0.1c0.1-0.1,0.2-0.2,0.2-0.4l-0.2-7.4c0-0.6,0.3-1.2,0.9-1.6
				c0.2-0.1,0.4-0.4,0.4-0.7v-3.6c0-0.3,0.2-0.5,0.5-0.5c0.3,0,0.5,0.2,0.5,0.5v3.6c0,0.6-0.3,1.2-0.9,1.5c-0.2,0.1-0.4,0.4-0.4,0.7
				l0.2,7.4c0,0.4-0.2,0.8-0.5,1.1C18.9,31.3,18.6,31.5,18.2,31.5z"/>
		</g>
		<g>
			<path class="st0" d="M23.8,31.5c0,0-0.1,0-0.1,0c-0.8-0.1-1.4-0.8-1.3-1.6l0.2-7.9c0-0.2-0.1-0.3-0.2-0.4
				c-0.7-0.6-1.1-1.5-1.1-2.5c0-1.7,1.1-3.1,2.5-3.1c1.4,0,2.5,1.4,2.5,3.1c0,1-0.4,2-1.1,2.5C25.1,21.7,25,21.8,25,22l0.2,7.9
				c0,0.4-0.2,0.8-0.5,1.1C24.5,31.3,24.1,31.5,23.8,31.5z M23.8,16.9c-0.9,0-1.5,0.9-1.5,2.1c0,0.7,0.3,1.4,0.7,1.8
				c0.3,0.3,0.5,0.7,0.5,1.2l-0.2,7.9c0,0.3,0.2,0.5,0.5,0.6c0.1,0,0.3,0,0.4-0.1c0.1-0.1,0.2-0.2,0.2-0.4L24,22
				c0-0.5,0.2-0.9,0.5-1.2c0.5-0.4,0.7-1.1,0.7-1.8C25.3,17.9,24.6,16.9,23.8,16.9z"/>
		</g>
		<g>
			<path class="st0" d="M18.2,20.4c-0.3,0-0.5-0.2-0.5-0.5v-3c0-0.3,0.2-0.5,0.5-0.5c0.3,0,0.5,0.2,0.5,0.5v3
				C18.7,20.2,18.5,20.4,18.2,20.4z"/>
		</g>
		<g>
			<path class="st1" d="M21,34.4c-6.2,0-11.3-5-11.3-11.3c0-6.2,5-11.3,11.3-11.3s11.3,5,11.3,11.3C32.2,29.4,27.2,34.4,21,34.4z
				 M21,12.9c-5.7,0-10.3,4.6-10.3,10.3S15.3,33.5,21,33.5c5.7,0,10.3-4.6,10.3-10.3S26.7,12.9,21,12.9z"/>
		</g>
	</g>
	<g>
		<path class="st0" d="M37.6,39.7H4.4c-0.2,0-0.3-0.1-0.4-0.2c-0.1-0.1-0.2-0.3-0.1-0.4l3-31.9c0-0.3,0.3-0.5,0.6-0.5h26.2
			c0.3,0,0.5,0.2,0.6,0.5L38.2,39c0,0.2,0,0.3-0.1,0.4C37.9,39.6,37.8,39.7,37.6,39.7z M5,38.6h32L33.1,7.8H7.9L5,38.6z"/>
	</g>
	<g>
		<g>
			<path class="st0" d="M29,9.3h-0.9c0-4.4-3.6-8-8-8s-8,3.6-8,8h-0.9c0-4.9,4-9,9-9C25,0.3,29,4.3,29,9.3z"/>
		</g>
	</g>
</g>
</svg>
