<?xml version="1.0" encoding="utf-8"?>
<!-- Generator: Adobe Illustrator 24.1.2, SVG Export Plug-In . SVG Version: 6.00 Build 0)  -->
<svg version="1.1" id="Capa_1" xmlns="http://www.w3.org/2000/svg" xmlns:xlink="http://www.w3.org/1999/xlink" x="0px" y="0px"
	 viewBox="0 0 40 40" style="enable-background:new 0 0 40 40;" xml:space="preserve">
<style type="text/css">
	.st0{fill:#FA9100;}
	.st1{fill:#585858;}
</style>
<g id="Grupo_285" transform="translate(-312 928.695)">
	<path id="Trazado_44" class="st0" d="M350.9-904.9c0-1.3-0.4-2.6-1.1-3.7c0-0.1-0.1-0.2-0.2-0.2c-1.2-1.7-3.1-2.7-5.1-2.7h-0.8
		l-5.4-5.2c-1.1-1.1-2.6-1.7-4.1-1.7h-17.9c-1.8,0-3.2,1.5-3.1,3.2v9.6c0,0.1,0,0.2,0,0.3c0,0.1,0,0.2,0,0.3
		c0.3,1.6,1.7,2.9,3.3,2.9h0c0.5,2.2,2.7,3.5,4.8,3c1.5-0.3,2.7-1.5,3-3h16.4c0.5,2.2,2.7,3.5,4.8,3c1.5-0.4,2.7-1.6,3-3.1
		C350-902.4,350.9-903.6,350.9-904.9L350.9-904.9z M320.5-900.2c-1.6,0-3-1.2-3-2.9c0-1.6,1.2-3,2.9-3c1.6,0,3,1.2,3,2.9
		c0,0,0,0.1,0,0.1C323.3-901.6,322.1-900.3,320.5-900.2z M344.7-900.2c-1.6,0-3-1.2-3-2.9c0-1.6,1.2-3,2.9-3c1.6,0,3,1.2,3,2.9
		c0,0,0,0.1,0,0.1C347.6-901.6,346.3-900.3,344.7-900.2z M348.8-903.5c-0.1-2.2-2-4-4.3-3.9c-2.1,0.1-3.8,1.9-3.9,4h-16.1
		c0-2.2-1.9-4-4.1-4c-2.2,0-3.9,1.8-4,4c-0.8,0-1.5-0.5-1.8-1.2h0.5c0.3,0,0.6-0.3,0.6-0.7c0-0.3-0.3-0.6-0.6-0.6h-0.8v-9.3
		c0-1.1,0.8-2,1.9-2h17.9c1.2,0,2.4,0.5,3.3,1.3l5.6,5.4c0.1,0.1,0.3,0.2,0.4,0.2h1.1c1.2,0,2.4,0.5,3.4,1.3c-0.3,0-0.6,0.3-0.6,0.7
		c0,0.3,0.3,0.6,0.6,0.6h1c0.5,0.9,0.8,1.9,0.8,2.9C349.7-904.3,349.3-903.8,348.8-903.5L348.8-903.5z"/>
	<path id="Trazado_45" class="st0" d="M339.5-907.8h-14.4c-0.3,0-0.6,0.3-0.6,0.6c0,0.3,0.3,0.6,0.6,0.6h14.4c0.3,0,0.6-0.3,0.6-0.6
		C340.1-907.5,339.9-907.8,339.5-907.8z"/>
	<path id="Trazado_46" class="st1" d="M330.7-910.3v-5.6c0-0.3-0.3-0.6-0.6-0.6c0,0,0,0,0,0h-13.8c-0.3,0-0.6,0.3-0.6,0.6v5.6
		c0,0.3,0.3,0.6,0.6,0.6c0,0,0,0,0,0h13.8C330.4-909.6,330.7-909.9,330.7-910.3z M329.4-910.9h-12.5v-4.4h12.5L329.4-910.9z"/>
	<path id="Trazado_47" class="st1" d="M336.7-915.3c-0.8-0.8-1.9-1.2-3-1.2h-1.8c-0.3,0-0.6,0.3-0.6,0.6v5.6c0,0.3,0.3,0.6,0.6,0.6
		c0,0,0,0,0,0h9.3c0.3,0,0.6-0.3,0.6-0.6c0-0.2-0.1-0.3-0.2-0.5L336.7-915.3z M332.4-910.9v-4.4h1.2c0.8,0,1.6,0.3,2.2,0.9l3.8,3.5
		H332.4z"/>
	<path id="Trazado_48" class="st1" d="M320.7-905.3c-1.2,0-2.1,1-2.1,2.1s1,2.1,2.1,2.1s2.1-1,2.1-2.1
		C322.8-904.4,321.9-905.3,320.7-905.3z M320.7-902.3c-0.5,0-0.9-0.4-0.9-0.9c0-0.5,0.4-0.9,0.9-0.9s0.9,0.4,0.9,0.9v0
		C321.6-902.7,321.2-902.3,320.7-902.3z"/>
	<path id="Trazado_49" class="st1" d="M344.5-905.3c-1.2,0-2.1,1-2.1,2.1s1,2.1,2.1,2.1s2.1-1,2.1-2.1
		C346.7-904.4,345.7-905.3,344.5-905.3z M344.5-902.3c-0.5,0-0.9-0.4-0.9-0.9c0-0.5,0.4-0.9,0.9-0.9c0.5,0,0.9,0.4,0.9,0.9v0
		C345.4-902.7,345-902.3,344.5-902.3z"/>
</g>
</svg>
