<?xml version="1.0" encoding="utf-8"?>
<!-- Generator: Adobe Illustrator 24.1.2, SVG Export Plug-In . SVG Version: 6.00 Build 0)  -->
<svg version="1.1" id="Capa_1" xmlns="http://www.w3.org/2000/svg" xmlns:xlink="http://www.w3.org/1999/xlink" x="0px" y="0px"
	 viewBox="0 0 40 40" style="enable-background:new 0 0 40 40;" xml:space="preserve">
<style type="text/css">
	.st0{fill:#484747;}
	.st1{fill:#FA9100;}
</style>
<g id="Grupo_267" transform="translate(-51 -91)">
	<path id="Trazado_340" class="st0" d="M66.4,124.7c-0.1,0-0.1,0-0.2,0c-1.2-0.1-2.2-1.2-2.1-2.4l0.3-11.6c0-0.4-0.2-0.8-0.6-1.1
		c-0.9-0.5-1.4-1.4-1.4-2.4v-5.7c0-0.4,0.4-0.8,0.8-0.8s0.8,0.4,0.8,0.8v5.7c0,0.4,0.2,0.8,0.6,1.1c0.9,0.5,1.4,1.5,1.4,2.5
		l-0.3,11.6c0,0.4,0.3,0.8,0.7,0.8c0.2,0,0.4-0.1,0.6-0.2c0.2-0.1,0.2-0.4,0.2-0.6l-0.3-11.7c0-1,0.5-2,1.4-2.5
		c0.4-0.2,0.6-0.6,0.6-1.1v-5.7c0-0.4,0.4-0.8,0.8-0.8s0.8,0.4,0.8,0.8v5.7c0,1-0.5,1.9-1.4,2.4c-0.4,0.2-0.6,0.6-0.6,1.1l0.3,11.7
		c0,0.7-0.2,1.3-0.7,1.8C67.5,124.5,67,124.7,66.4,124.7z"/>
	<path id="Trazado_341" class="st0" d="M75.6,124.7c-0.1,0-0.1,0-0.2,0c-1.3-0.1-2.2-1.2-2.1-2.5l0.3-12.5c0-0.3-0.1-0.5-0.3-0.7
		c-1.1-1-1.7-2.5-1.7-4c0-2.7,1.8-4.9,4-4.9c2.2,0,4,2.2,4,4.9c0,1.5-0.6,3-1.7,4c-0.2,0.2-0.3,0.4-0.3,0.7l0.3,12.6
		c0,0.7-0.3,1.3-0.7,1.8C76.8,124.5,76.2,124.7,75.6,124.7z M75.6,101.6c-1.4,0-2.5,1.5-2.5,3.4c0,1.1,0.4,2.1,1.2,2.8
		c0.6,0.5,0.9,1.2,0.8,1.9l-0.3,12.5c0,0.4,0.3,0.8,0.7,0.9c0.2,0,0.5-0.1,0.6-0.2c0.2-0.2,0.3-0.4,0.3-0.6L76,109.7
		c0-0.7,0.3-1.4,0.8-1.9c0.8-0.7,1.2-1.8,1.2-2.8C78,103.1,76.9,101.6,75.6,101.6L75.6,101.6z"/>
	<path id="Trazado_342" class="st0" d="M66.4,106.2c-0.4,0-0.8-0.4-0.8-0.8v-4.8c0-0.4,0.4-0.8,0.8-0.8s0.8,0.4,0.8,0.8v4.8
		C67.2,105.9,66.8,106.2,66.4,106.2z"/>
	<path id="Trazado_343" class="st1" d="M71,129.5c-10.2,0-18.4-8.3-18.5-18.5c0-10.2,8.3-18.4,18.5-18.5c10.2,0,18.4,8.3,18.5,18.5
		C89.4,121.2,81.2,129.4,71,129.5z M71,94.2c-9.3,0-16.8,7.5-16.8,16.8c0,9.3,7.5,16.8,16.8,16.8c9.3,0,16.8-7.5,16.8-16.8
		C87.8,101.7,80.3,94.2,71,94.2z"/>
</g>
</svg>
