<?xml version="1.0" encoding="utf-8"?>
<!-- Generator: Adobe Illustrator 24.1.2, SVG Export Plug-In . SVG Version: 6.00 Build 0)  -->
<svg version="1.1" id="Capa_1" xmlns="http://www.w3.org/2000/svg" xmlns:xlink="http://www.w3.org/1999/xlink" x="0px" y="0px"
	 viewBox="0 0 40 40" style="enable-background:new 0 0 40 40;" xml:space="preserve">
<style type="text/css">
	.st0{fill:#FA9100;}
	.st1{fill:#585858;}
</style>
<g id="Grupo_272" transform="translate(-256 -92.809)">
	<path id="Trazado_344" class="st0" d="M293,130h-1.3v-1.7h1.3c0.5,0,0.9-0.4,0.9-0.9c0,0,0,0,0,0c0-5.2-4-9.6-9.2-10.1v-1.6
		c0-0.5-0.4-0.9-0.9-0.9c0,0,0,0,0,0c-0.5,0-0.9,0.4-0.9,0.9c0,0,0,0,0,0v1.6c-5.2,0.5-9.2,4.8-9.2,10.1c0,0.5,0.4,0.9,0.9,0.9h1.3
		v1.7h-1.3c-0.5,0-0.9,0.4-0.9,0.9s0.4,0.9,0.9,0.9H293c0.5,0,0.9-0.4,0.9-0.9c0,0,0,0,0,0C294,130.4,293.5,130,293,130z M289.8,130
		h-11.9v-1.7h11.9V130z M275.7,126.4c0.5-4.1,4-7.3,8.2-7.3c4.2,0,7.7,3.1,8.2,7.3H275.7z"/>
	<path id="Trazado_345" class="st0" d="M269.2,102.8c-2.8,0-4.9,1.6-4.9,3.6s2.2,3.6,4.9,3.6c2.8,0,4.9-1.6,4.9-3.6
		C274.1,104.4,272,102.8,269.2,102.8z M269.2,108.1c-1.8,0-3.1-0.9-3.1-1.7s1.3-1.7,3.1-1.7c1.8,0,3.1,0.9,3.1,1.7
		S271,108.1,269.2,108.1L269.2,108.1z"/>
	<path id="Trazado_346" class="st1" d="M271.5,130h-11.6v-29.9h18.7v15.5c0,0.5,0.4,0.9,0.9,0.9c0,0,0,0,0,0c0.5,0,0.9-0.4,0.9-0.9
		c0,0,0,0,0,0V99.2c0-0.5-0.4-0.9-0.9-0.9l0,0h-0.4v-3.6c0-0.3-0.1-0.5-0.3-0.7c-0.2-0.2-0.5-0.3-0.7-0.2L258.9,96
		c-0.5,0.1-0.8,0.5-0.8,0.9v34c0,0.5,0.4,0.9,0.9,0.9l0,0h12.5c0.5,0,0.9-0.4,0.9-0.9C272.5,130.5,272,130,271.5,130
		C271.5,130,271.5,130,271.5,130z M259.9,97.7l17.4-2v2.6h-17.4V97.7z"/>
	<path id="Trazado_347" class="st0" d="M270.8,127.3c0.5,0,0.9-0.4,0.9-0.9c0,0,0,0,0,0c0-0.5-0.4-0.9-0.9-0.9l0,0h-3.2
		c-0.5,0-0.9,0.4-0.9,0.9c0,0,0,0,0,0c0,0.5,0.4,0.9,0.9,0.9l0,0H270.8z"/>
</g>
</svg>
